<svg width="154" height="154" viewBox="0 0 154 154" fill="none" xmlns="http://www.w3.org/2000/svg">
<g clip-path="url(#clip0)">
<path d="M104.535 84.4917C104.535 86.8754 102.566 88.8505 100.19 88.8505H56.187C53.8103 88.8505 51.8411 86.8754 51.8411 84.4917V40.3588C51.8411 37.9751 53.8103 36 56.187 36H100.19C102.566 36 104.535 37.9751 104.535 40.3588V84.4917Z" fill="#E71E25"/>
<path d="M98.492 55.8871C98.2204 55.1379 97.745 54.0482 97.6092 53.7758C96.319 50.6429 94.6214 47.7824 92.5842 45.0581C90.2755 41.9934 86.8802 39.8821 83.1454 39.0648C78.3242 37.9751 73.435 39.3372 71.6694 39.8821C69.9039 40.3588 65.0147 41.789 61.4837 45.2625C58.6996 47.9186 57.0019 51.5282 56.5945 55.3422C56.255 58.6794 56.3229 62.0847 56.8661 65.4219C56.934 65.7625 57.0698 66.9203 57.2735 67.7375C57.7489 69.917 59.1749 74.5482 62.2985 78.1578C62.2985 78.2259 68.4779 85.4452 77.5093 86.4668C79.886 86.603 82.3306 86.3306 84.5714 85.5814C86.9481 85.0366 89.1211 83.9469 91.0903 82.5847C98.2204 76.9319 99.7143 67.4651 99.6464 67.4651C100.461 62.6977 99.2389 57.9983 98.492 55.8871Z" fill="white"/>
<path d="M83.5529 41.9933C80.9725 42.7425 75.8796 44.6495 73.2313 45.3306C70.6509 46.0797 65.2864 47.1694 62.706 47.9186C57.8847 49.2807 58.0206 59.1561 59.9898 66.103C61.5516 71.6196 68.5459 69.6445 70.8546 68.9635C74.182 68.01 74.5215 67.6013 79.1391 66.2392C83.7566 64.9452 84.2999 65.0814 87.5593 64.196C89.936 63.5149 96.8623 61.5399 95.3005 56.0232C93.4671 49.0764 88.3742 40.6312 83.5529 41.9933Z" fill="#E71E25"/>
<path d="M70.9904 66.5797C70.9225 66.6478 70.9225 66.7841 70.9904 66.8522C71.3978 67.4651 72.9596 66.6478 73.0954 66.5797C73.7745 66.2392 74.5215 66.0349 75.2684 66.0349C76.2191 66.0349 77.0339 65.2857 77.1018 64.2641L73.6387 65.2176C73.2992 65.9668 72.5522 66.4435 71.7373 66.5116C71.3978 66.5797 71.1262 66.4435 70.9904 66.5797Z" fill="white"/>
<path d="M66.4407 58.407C65.2863 56.7043 65.6938 54.3206 67.3914 53.1628C69.089 52.005 71.4657 52.4136 72.6201 54.1163C73.7745 55.8189 73.367 58.2027 71.6694 59.3605C69.9718 60.5864 67.5951 60.1777 66.4407 58.407Z" fill="white"/>
<path d="M67.1198 57.6578C66.1691 56.2957 66.5086 54.3887 67.9346 53.4352C69.2927 52.4817 71.1941 52.8223 72.1448 54.2525C73.0954 55.6146 72.7559 57.5216 71.3299 58.4751C69.9718 59.4286 68.0704 59.088 67.1198 57.6578Z" fill="#E71E25"/>
<path d="M71.262 48.9402C71.262 48.9402 71.3299 50.0299 69.2248 49.8937C69.2248 49.8937 70.1076 50.3023 70.3792 50.5066C72.1448 51.6644 71.9411 52.005 71.6015 52.005C71.262 52.005 70.8546 51.8007 69.7681 51.1877C66.5765 49.3488 63.7924 48.6678 62.2306 50.098C60.2614 51.8007 61.2799 55.1379 62.2306 56.6362C62.9097 57.7259 63.0455 57.2492 63.1134 56.5681C63.385 54.8654 64.4036 53.3671 65.8975 52.5498V52.4817C65.8975 52.4817 65.8975 52.4817 65.8296 52.4817C64.5394 52.6179 63.7924 52.5498 63.7245 52.2093C63.5887 51.6644 65.6938 51.1196 67.4593 51.4601C68.8853 51.7326 71.262 52.686 71.8732 52.2093C72.2806 51.8688 72.4843 51.2558 71.262 48.9402Z" fill="white"/>
<path d="M74.0462 58.6794C72.8918 58.8837 72.0769 59.9734 72.1448 61.1993C72.1448 61.2674 72.2127 61.4037 72.2127 61.4718C72.4164 61.6761 72.6881 61.7442 72.8918 61.5399L72.9597 61.4718C73.0276 61.3355 73.0955 61.1993 73.0955 60.995C73.2313 60.0415 74.182 58.7475 75.4722 59.3605C75.9475 59.6329 76.3549 60.1096 76.6266 60.6545C76.3549 59.2243 75.2685 58.407 74.0462 58.6794Z" fill="white"/>
<path d="M68.6816 62.5615C68.7495 62.4933 68.6816 62.4933 68.6816 62.4933C67.7988 61.8804 66.6445 61.9485 65.8975 62.6296C65.2864 63.1744 65.0826 64.0598 65.2864 64.8771C65.6938 66.1711 66.5766 66.5116 67.2556 66.3073C67.9347 66.103 68.41 65.5581 68.5458 64.8771C68.6137 64.6727 68.7495 64.5365 68.8853 64.4003C68.3421 64.5365 68.3421 64.7409 68.0026 65.0133C67.663 65.2857 66.7124 65.4219 66.4407 64.2641C66.237 63.6512 66.5766 62.9701 67.1198 62.6977C67.663 62.5615 68.1384 62.4933 68.6816 62.5615Z" fill="white"/>
<path d="M86.2691 62.2209C86.4049 62.2209 86.4728 62.3571 86.4049 62.4934C86.4049 63.2425 84.6394 63.3106 84.4357 63.3106C83.6887 63.3787 82.9418 63.5831 82.2627 63.9917C81.4478 64.4684 80.3614 64.2641 79.8181 63.4468L83.2813 62.4934C83.9603 62.902 84.8431 62.9701 85.5901 62.6296C85.8617 62.4934 86.1333 62.2209 86.2691 62.2209Z" fill="white"/>
<path d="M85.8617 52.8904C85.9975 50.7791 84.3678 49.0083 82.2627 48.9402C80.1576 48.804 78.3921 50.4385 78.3242 52.5498C78.1884 54.6611 79.8181 56.4319 81.9232 56.5C84.0282 56.5681 85.7938 55.0017 85.8617 52.8904Z" fill="white"/>
<path d="M84.9109 52.6179C84.9788 50.9153 83.6886 49.485 81.991 49.4169C80.2934 49.3488 78.8673 50.6429 78.7994 52.3455C78.7315 54.0482 80.0217 55.4784 81.7194 55.5465C83.3491 55.6146 84.7751 54.3206 84.9109 52.6179Z" fill="#E71E25"/>
<path d="M76.7623 47.3738C76.7623 47.3738 77.3056 48.3272 79.0032 47.1013C79.0032 47.1013 78.46 47.9186 78.3921 48.191C77.5093 50.098 77.8488 50.3023 78.1204 50.098C78.3921 49.8937 78.6637 49.4851 79.2069 48.3954C80.9725 45.1262 83.0096 43.0831 85.0468 43.4917C87.6272 43.9684 88.442 47.3057 88.5099 49.0764C88.5099 50.3704 88.1025 50.0299 87.6951 49.4851C86.5407 48.191 84.911 47.4419 83.2133 47.51C83.1454 47.51 83.1454 47.4419 83.2133 47.4419C84.4356 46.897 84.9789 46.4203 84.8431 46.0797C84.6393 45.5349 82.6022 46.2159 81.312 47.3738C80.2255 48.3272 78.7316 50.3704 77.9846 50.3704C77.4414 50.3704 77.0339 49.9618 76.7623 47.3738Z" fill="white"/>
<path d="M79.5465 57.0449C80.7009 56.6362 81.9232 57.113 82.4664 58.2027C82.6022 58.407 82.4664 58.6794 82.2627 58.8156C82.1269 58.8837 81.9911 58.8837 81.8553 58.8156C81.7194 58.7475 81.5836 58.6113 81.5157 58.4751C80.9046 57.7259 79.4107 57.1811 78.6637 58.3389C78.3921 58.8156 78.2563 59.4286 78.3921 59.9734C77.9168 58.7475 78.3921 57.5216 79.5465 57.0449Z" fill="white"/>
<path d="M86.2012 57.5897C86.1333 57.5897 86.1333 57.5897 86.2012 57.5897C86.1333 57.5897 86.1333 57.5216 86.2012 57.5897C86.5407 56.5681 87.5593 56.0233 88.5779 56.1595C89.3927 56.2957 90.0718 56.9086 90.2076 57.7259C90.5471 59.0199 90.0039 59.7691 89.2569 59.9734C88.5779 60.1777 87.8988 59.9734 87.4235 59.4286C87.2877 59.2924 87.084 59.2242 86.8802 59.2242C87.4235 59.088 87.4914 59.2924 87.9667 59.2924C88.4421 59.3605 89.2569 59.0199 88.9174 57.8621C88.7816 57.2492 88.1704 56.8405 87.4914 56.9086C87.0161 57.0448 86.5407 57.2492 86.2012 57.5897Z" fill="white"/>
<path d="M88.0346 52.1412C87.1519 53.0947 86.337 54.1844 85.7258 55.4103C85.6579 55.4784 85.7258 55.5465 85.7938 55.6146C85.8617 55.6146 85.9296 55.6146 85.9975 55.6146C87.084 54.4568 89.189 53.0947 90.3434 55.4103C91.7015 58.1346 91.7694 59.3605 90.6829 60.5183C89.5285 61.3356 87.9667 61.2675 86.8802 60.4502C85.9975 59.8372 84.8431 59.5648 83.7566 59.8372C83.1454 59.9734 79.207 61.5399 77.9168 61.8804C76.6266 62.2209 72.4843 63.0382 71.8732 63.2425C70.8546 63.5831 69.9718 64.4003 69.5644 65.4219C69.0891 66.716 67.7989 67.6013 66.3729 67.5332C64.879 67.1246 64.2678 66.0349 63.9962 63.0382C63.7246 60.4502 66.2371 60.5183 67.7989 60.9269C67.8668 60.9269 67.9347 60.9269 68.0026 60.8588C68.0026 60.7907 68.0026 60.7226 67.9347 60.6545C66.7803 59.9734 65.558 59.4286 64.2678 59.088C60.3293 57.9983 60.6688 63.5831 62.2307 66.2392C64.132 69.3721 67.4594 67.8738 67.731 67.7375C68.5458 67.3289 69.2928 66.7841 69.9718 66.2392C73.2313 63.515 74.3178 64.1279 78.1884 62.902C82.1269 61.8804 82.738 60.7907 86.9481 61.4037C87.8309 61.5399 88.7137 61.608 89.5964 61.5399C89.8681 61.4718 93.5349 60.995 93.467 57.3173C93.467 54.1163 90.8187 49.1445 88.0346 52.1412Z" fill="white"/>
<path d="M93.1274 64.6047H93.0595C92.6521 64.809 91.9731 65.2176 91.4977 65.49C91.4298 65.49 91.4298 65.5581 91.4298 65.6262C91.4298 65.6262 91.4298 65.6262 91.4977 65.6944C96.0474 68.0781 93.3991 75.706 92.4484 78.0216C92.4484 78.0897 92.4484 78.1578 92.5163 78.1578C92.5842 78.1578 92.6521 78.1578 92.6521 78.0897C96.7264 72.7093 97.0659 65.3538 93.1274 64.6047Z" fill="#E71E25"/>
<path d="M89.9359 66.3073H89.868C89.6643 66.3754 88.442 66.8522 87.8308 67.1246C87.7629 67.1246 87.7629 67.2608 87.7629 67.3289C87.7629 67.3289 87.7629 67.397 87.8308 67.397C92.3805 69.9851 89.9359 77.9535 89.121 80.4734C89.121 80.5415 89.121 80.6096 89.1889 80.6096C89.2569 80.6096 89.3248 80.6096 89.3248 80.5415C93.1954 74.8887 93.8744 67.1927 89.9359 66.3073Z" fill="#E71E25"/>
<path d="M94.5535 63.583C94.4856 63.583 94.4856 63.6512 94.5535 63.7193L94.6214 63.7874C96.7944 64.1279 97.1339 66.2392 97.1339 67.0565C97.1339 67.1246 97.2018 67.1246 97.2697 67.1246C97.2697 67.1246 97.3376 67.1246 97.3376 67.0565C97.8808 66.2392 98.2204 64.7409 97.4055 63.7874C96.4548 62.6977 95.0967 63.2425 94.5535 63.583Z" fill="#E71E25"/>
<path d="M66.3049 72.2326H66.3728C66.8482 72.2326 67.663 72.1644 68.1384 72.1644C68.2063 72.1644 68.2742 72.1644 68.2742 72.2326V72.3007C65.6259 76.7276 71.9411 81.8355 73.9103 83.3339C73.9782 83.3339 73.9782 83.402 73.9782 83.4701C73.9782 83.5382 73.9103 83.5382 73.8424 83.5382C67.5272 81.0183 63.385 74.9568 66.3049 72.2326Z" fill="#E71E25"/>
<path d="M69.9718 71.9601C69.9718 71.9601 70.0397 71.9601 69.9718 71.9601C70.2434 71.892 71.5336 71.6196 72.1447 71.5515C72.2126 71.5515 72.2805 71.6196 72.2805 71.6877V71.7558C69.768 76.387 76.0153 81.8355 78.1204 83.5382C78.1883 83.6063 78.1883 83.6744 78.1204 83.7425C78.0525 83.8106 78.0525 83.8106 77.9846 83.8106C71.6694 81.0864 67.0518 74.8887 69.9718 71.9601Z" fill="#E71E25"/>
<path d="M64.6073 72.1644C64.6752 72.1644 64.6752 72.2326 64.6752 72.2326C64.6752 72.2326 64.6752 72.3007 64.6073 72.3007C62.9776 73.7309 63.7924 75.706 64.1999 76.387C64.1999 76.4551 64.1999 76.5233 64.132 76.5233H64.064C63.1813 76.1146 62.1627 75.0249 62.2985 73.799C62.5022 72.3007 63.9961 72.1644 64.6073 72.1644Z" fill="#E71E25"/>
<path d="M89.6643 83.402C89.3927 83.0615 89.0532 82.789 88.6457 82.6528C88.7815 82.5847 88.9173 82.5166 89.0532 82.3804C89.2569 82.2442 89.3927 82.0399 89.4606 81.9037C89.5964 81.6993 89.6643 81.495 89.6643 81.2907C89.6643 81.1545 89.8001 80.201 89.8001 79.7243V79.588V79.4518C89.8001 79.0432 89.6643 78.6346 89.3927 78.3621C89.189 78.0897 88.8494 77.9535 88.5778 77.8173C88.1704 77.6811 87.695 77.5449 87.2876 77.5449C87.2197 77.4767 87.0839 77.4086 87.016 77.2724C86.6086 76.9319 86.0653 76.7276 85.5221 76.6595C85.2505 76.5914 84.9788 76.6595 84.7751 76.7276C84.2998 76.8638 83.9603 77.2043 83.8245 77.6811C83.7565 77.8854 83.7565 78.0897 83.7565 78.294L81.2441 79.1794C81.1762 78.9751 81.1082 78.8389 81.0403 78.6346C80.9045 78.3621 80.6329 78.0897 80.4292 77.8854C80.1576 77.6811 79.886 77.4767 79.6143 77.3405C79.2748 77.1362 78.9353 77.0681 78.5958 77C78.1883 76.9319 77.8488 76.9319 77.4414 77.0681C77.1697 77.1362 76.8981 77.2724 76.6265 77.4086C76.4907 77.4767 76.287 77.613 76.0833 77.6811C75.8795 77.8173 75.6079 77.9535 75.3363 78.0897L75.0647 78.294H74.5214C74.4535 78.2259 74.4535 78.0897 74.3856 78.0216C74.1819 77.6811 73.9103 77.3405 73.5708 77.1362C73.2312 76.8638 72.7559 76.7276 72.2806 76.7276H72.2127C71.941 76.7276 71.6015 76.8638 71.3978 77C70.9225 77 70.4471 77.2724 70.1755 77.6811C70.0397 77.9535 69.9718 78.2259 69.9718 78.5664H69.7002C69.5644 78.2259 69.3607 77.9535 69.089 77.6811C68.7495 77.4086 68.41 77.1362 68.0026 77C67.663 76.8638 67.3235 76.8638 66.984 76.9319C66.237 77.0681 65.7617 77.8173 65.8975 78.6346C65.8975 78.7708 65.9654 78.8389 66.0333 78.9751C66.0333 79.0432 66.1012 79.1113 66.1012 79.1113L65.0147 79.588C64.5394 79.9286 64.3357 80.4734 64.4715 81.0864C64.5394 81.495 64.811 81.8356 65.0826 82.0399C65.2184 82.1761 65.3542 82.2442 65.4901 82.3123L65.4222 82.6528C65.3542 82.8571 65.2184 83.1296 65.0826 83.3339V83.402C64.9468 83.6063 64.8789 83.8787 64.811 84.0831C64.7431 84.4236 64.7431 84.8322 64.811 85.1728C64.9468 85.6495 65.2184 85.99 65.6259 86.3306C65.9654 86.603 66.4407 86.8073 66.9161 86.8073C67.4593 86.8073 68.0025 86.5349 68.2742 86.0581C68.6137 86.3306 69.0211 86.4668 69.4286 86.5349C69.7002 86.603 69.9039 86.6711 70.1755 86.6711H70.3792H70.8546H71.262H71.3978C71.6694 86.6711 71.8731 86.6711 72.1448 86.603C72.4164 86.5349 72.7559 86.4668 73.0275 86.3306C73.435 86.1944 73.8424 85.99 74.2498 85.7176C74.861 85.99 75.1326 86.1944 75.6079 86.3987C75.7437 86.4668 75.9475 86.5349 76.0833 86.603C76.2191 86.6711 76.4228 86.6711 76.5586 86.7392H76.6944C76.966 86.8073 77.2377 86.8073 77.5093 86.8073H77.5772H77.9167H77.9846L78.4599 86.7392C78.7316 86.6711 79.0711 86.6711 79.3427 86.5349C79.9539 86.3306 80.565 86.2625 81.1761 86.2625C81.7194 86.2625 82.3305 86.3306 82.8738 86.4668C83.417 86.7392 84.0282 86.8754 84.6393 86.8754H84.7072C84.9109 86.8754 85.1826 86.8754 85.3863 86.8073C85.7937 86.7392 86.2011 86.603 86.6086 86.3987C86.7444 86.3306 86.9481 86.1944 87.0839 86.0581L87.2876 86.1944C87.4913 86.3306 87.763 86.4668 88.0346 86.5349C88.1704 86.603 88.3741 86.603 88.5099 86.603C88.8494 86.603 89.1211 86.4668 89.3927 86.3306C89.6643 86.1263 89.868 85.9219 90.0038 85.6495C90.1396 85.3771 90.2075 85.1047 90.1396 84.7641C90.2075 84.2874 90.0038 83.8106 89.6643 83.402Z" fill="#E71E25"/>
<path d="M69.2928 83.0615C69.3607 82.9934 69.4965 82.8571 69.5644 82.789C69.7002 82.6528 69.836 82.5847 69.9718 82.5166C70.1756 82.4485 70.3114 82.3804 70.5151 82.3123C70.7188 82.2442 70.9225 82.2442 71.1262 82.2442H71.262C71.3979 82.2442 71.5337 82.3123 71.6695 82.3804C71.8053 82.4485 71.8732 82.4485 72.009 82.5166C72.0769 82.5166 72.1448 82.5847 72.2127 82.5847C72.2806 82.5847 72.3485 82.5847 72.4164 82.5166C72.6202 82.4485 72.756 82.3123 72.8918 82.1761C73.0276 81.9718 73.0955 81.7674 73.0955 81.5631C73.0955 81.495 73.0955 81.495 73.0955 81.4269C73.0955 81.2907 73.0276 81.0864 73.0276 80.9502C72.8918 80.6096 72.756 80.3372 72.4843 80.1329C72.3485 79.9967 72.1448 79.8605 71.9411 79.7243C71.6695 79.588 71.3979 79.4518 71.0583 79.4518H70.9225C70.7867 79.4518 70.7188 79.4518 70.583 79.5199C70.3793 79.588 70.1756 79.7243 69.9718 79.7924C69.5644 80.0648 69.2249 80.3372 68.8854 80.6777C68.6817 80.8821 68.5458 81.0183 68.3421 81.2226L68.1384 81.4269V81.6312C68.2063 81.4269 68.2742 81.2226 68.2742 81.0183C68.2742 81.0183 68.2742 80.9502 68.3421 80.9502L68.6137 80.7458L69.157 80.4053C69.2249 80.3372 69.3607 80.2691 69.3607 80.1329C69.4965 79.9286 69.4286 79.6561 69.2249 79.5199C69.0891 79.3837 68.8854 79.3156 68.6817 79.2475H68.6137C68.6137 79.1113 68.6137 78.9751 68.5458 78.907C68.4779 78.7027 68.41 78.5664 68.2063 78.3621C68.0026 78.1578 67.731 78.0216 67.4594 77.9535C67.3915 77.9535 67.3236 77.8854 67.1877 77.8854C67.1198 77.8854 67.1198 77.8854 67.0519 77.8854C66.9161 77.8854 66.7803 78.0897 66.7803 78.2259V78.294C66.8482 78.3621 66.9161 78.4983 66.984 78.4983C67.1198 78.5664 67.1877 78.6346 67.3236 78.7708C67.3915 78.7708 67.3915 78.8389 67.3915 78.8389C67.3915 79.0432 67.3236 79.2475 67.3236 79.4518C67.3236 79.5199 67.2556 79.5199 67.2556 79.588L66.5766 80.1329L66.0334 80.5415C65.9655 80.5415 65.8975 80.4734 65.8296 80.4734C65.7617 80.4734 65.7617 80.4734 65.6938 80.4734C65.558 80.4734 65.4901 80.6777 65.4901 80.814C65.4901 80.9502 65.6259 81.0864 65.6938 81.1545C65.8975 81.2907 66.1013 81.4269 66.305 81.4269C66.3729 81.4269 66.5087 81.4269 66.5766 81.4269C66.6445 81.4269 66.7124 81.4269 66.7124 81.4269H66.8482V81.495L66.305 83.0615C66.1692 83.3339 66.1013 83.6063 65.8975 83.8787C65.8296 84.015 65.7617 84.2193 65.6938 84.3555C65.6259 84.4917 65.6259 84.696 65.6938 84.8322C65.7617 85.0365 65.8975 85.2409 66.1013 85.3771C66.305 85.5133 66.5087 85.5814 66.7124 85.5814C66.9161 85.5814 67.1198 85.4452 67.1877 85.2409C67.2556 85.1047 67.2556 84.9684 67.2556 84.9003C67.3236 84.5598 67.3915 84.2874 67.5273 83.9468C67.5952 83.7425 67.6631 83.5382 67.7989 83.3339C68.0026 82.9253 68.2063 82.5166 68.41 82.108C68.6138 81.7674 68.8854 81.495 69.157 81.2226C69.4286 80.9502 69.6323 80.7459 69.9718 80.4734C70.1077 80.3372 70.2435 80.2691 70.4472 80.201C70.5151 80.201 70.583 80.1329 70.6509 80.1329C70.7188 80.1329 70.7867 80.1329 70.8546 80.201C70.9225 80.2691 70.9904 80.2691 71.0583 80.3372C71.1941 80.4734 71.33 80.6777 71.4658 80.8821V80.9502H71.5337C71.0583 81.0864 70.583 81.2226 70.1077 81.495C69.6323 81.7674 69.2249 82.0399 68.8854 82.4485C68.7496 82.5847 68.6817 82.7209 68.5458 82.8571C68.3421 83.1296 68.2742 83.4701 68.2742 83.8106C68.2742 83.8787 68.2742 83.9468 68.2742 83.9468C68.2742 84.0831 68.3421 84.2874 68.3421 84.4236C68.41 84.696 68.6137 84.9684 68.8854 85.1047C69.157 85.2409 69.3607 85.3771 69.7002 85.4452C69.9039 85.5133 70.0398 85.5133 70.2435 85.5133C70.4472 85.5133 70.6509 85.5814 70.8546 85.5814H70.9225H71.33C71.5337 85.5814 71.7374 85.5814 71.9411 85.5133C72.1448 85.5133 72.3485 85.4452 72.5522 85.3771C72.6881 85.309 72.8239 85.2409 72.8918 85.0365C72.9597 84.9003 73.0276 84.696 72.9597 84.5598C72.8918 84.4236 72.8239 84.3555 72.756 84.2874C72.6202 84.1512 72.4843 84.0831 72.3485 84.015C72.2127 83.9468 72.0769 83.9468 71.9411 83.9468C71.8732 83.9468 71.8053 83.9468 71.7374 83.9468L71.0583 84.0831C70.8546 84.0831 70.6509 84.1512 70.4472 84.1512H69.836C69.6323 84.1512 69.4965 84.0831 69.2928 84.015C69.157 83.9468 69.0212 83.8787 69.0212 83.6744C69.0212 83.6063 69.0212 83.4701 69.0212 83.3339C69.157 83.2658 69.157 83.1977 69.2928 83.0615Z" fill="white"/>
<path d="M88.7816 84.1512C88.5778 83.9469 88.3062 83.7425 88.0346 83.6063C87.6951 83.4701 87.4235 83.3339 87.0839 83.2658L86.8123 83.1977V82.108L87.2197 81.9718C87.4234 81.9037 87.6951 81.8356 87.8988 81.7675C88.1025 81.6993 88.2383 81.6312 88.3741 81.495C88.442 81.4269 88.5099 81.3588 88.5099 81.2907C88.5778 81.1545 88.5778 81.0183 88.5778 80.8821C88.5778 80.814 88.5099 80.6778 88.442 80.6096C88.3741 80.5415 88.3062 80.5415 88.2383 80.4734C87.9667 80.3372 87.763 80.201 87.5593 79.9967C87.4914 79.9967 87.4914 79.9286 87.4914 79.9286H87.6272H88.0346H88.1704C88.2383 79.9286 88.3741 79.9286 88.442 79.8605C88.5099 79.8605 88.6457 79.7924 88.6457 79.7243C88.7815 79.5199 88.7816 79.2475 88.5778 79.1113C88.442 78.9751 88.3062 78.907 88.1704 78.8389C87.8309 78.7027 87.4914 78.6346 87.1518 78.6346H87.016C86.9481 78.6346 86.8123 78.6346 86.7444 78.7027V78.6346C86.6765 78.4302 86.5407 78.294 86.4049 78.1578C86.1333 77.9535 85.7937 77.8173 85.4542 77.7492H85.3863C85.3184 77.7492 85.2505 77.7492 85.1826 77.7492C85.1147 77.7492 85.0468 77.8173 85.0468 77.8854C84.9789 78.0216 85.0468 78.1578 85.1147 78.2259C85.1826 78.2259 85.1826 78.294 85.2505 78.294C85.3184 78.3621 85.3863 78.3621 85.5221 78.4302C85.5221 78.4302 85.59 78.4302 85.59 78.4984V79.0432C85.59 79.0432 85.59 79.1113 85.5221 79.1113H85.4542C85.1147 79.2475 84.8431 79.3156 84.5035 79.4518C84.0282 79.5881 83.6208 79.7924 83.1454 79.9967L82.8059 80.1329L82.738 80.0648C82.6701 79.9967 82.6022 79.9967 82.5343 79.9967C82.3985 79.9967 82.3306 80.1329 82.3306 80.201C82.3306 80.3372 82.3985 80.4053 82.4664 80.5415C82.6701 80.7459 82.8738 80.814 83.0775 80.8821C83.2133 80.8821 83.3491 80.9502 83.417 80.9502C83.3491 81.0183 83.3491 81.0864 83.2812 81.1545C83.1454 81.3588 83.0775 81.5631 83.0096 81.8356C82.9417 82.0399 83.0096 82.2442 83.1454 82.4485C83.3491 82.6528 83.6208 82.8572 83.9603 82.8572H84.0961C84.2998 82.8572 84.5035 82.8572 84.7072 82.789L85.5221 82.5166H85.59V82.7209V83.0615V83.1296H85.5221H84.7072C84.5714 83.1296 84.3677 83.1296 84.2319 83.1977C83.9603 83.1977 83.6208 83.3339 83.3491 83.4701C83.1454 83.5382 83.0096 83.6744 82.8738 83.8106C82.8059 83.8787 82.738 84.015 82.738 84.0831C82.6701 84.2193 82.6701 84.3555 82.6701 84.5598C82.6701 84.7641 82.8059 85.0366 82.9417 85.1728C83.0775 85.3771 83.2812 85.5133 83.5529 85.5814C83.9603 85.7857 84.3677 85.8538 84.7751 85.8538C84.9789 85.8538 85.1147 85.8538 85.3184 85.7857C85.59 85.7176 85.8616 85.6495 86.1333 85.5133C86.4049 85.3771 86.6086 85.1728 86.7444 84.9003C86.7444 84.8322 86.8123 84.7641 86.8123 84.696L86.8802 84.7641C87.1518 84.9003 87.4234 85.0366 87.6272 85.1728C87.6951 85.2409 87.8309 85.309 87.8988 85.3771C88.0346 85.4452 88.1704 85.5133 88.3062 85.5814C88.3741 85.5814 88.442 85.5814 88.5099 85.5814C88.6457 85.5814 88.7136 85.5133 88.8495 85.4452C88.9174 85.3771 89.0532 85.309 89.0532 85.1728C89.1211 85.0366 89.1211 84.9003 89.1211 84.7641C89.0532 84.5598 88.9174 84.3555 88.7816 84.1512ZM87.0839 80.1329L87.4235 80.0648C87.4914 80.1329 87.4914 80.201 87.4914 80.2691V80.5415C87.4914 80.6096 87.4235 80.6777 87.3555 80.7459L87.016 80.8821C87.016 80.5415 87.016 80.3372 87.0839 80.1329ZM85.3184 84.4917C85.1826 84.6279 84.9789 84.696 84.8431 84.696C84.7751 84.696 84.6393 84.696 84.5714 84.696C84.3677 84.696 84.2319 84.696 84.0282 84.6279C83.8924 84.6279 83.7566 84.5598 83.6887 84.4236C83.6208 84.3555 83.6208 84.2874 83.6208 84.2193C83.6208 84.1512 83.6887 84.1512 83.6887 84.1512C83.7566 84.0831 83.8924 84.0831 83.9603 84.0831C84.164 84.0831 84.2998 84.0831 84.5035 84.015H84.5714C84.8431 84.015 85.1826 84.0831 85.4542 84.1512H85.5221C85.5221 84.2874 85.4542 84.4236 85.3184 84.4917ZM85.6579 81.2907L84.8431 81.6993L84.0961 82.0399C84.0282 82.0399 84.0282 82.0399 83.9603 82.108C83.8924 82.108 83.8924 82.108 83.8924 82.0399C83.8924 81.9718 83.8924 81.9718 83.8924 81.9037C83.9603 81.8356 83.9603 81.7675 84.0282 81.6993C84.0961 81.5631 84.2319 81.495 84.3677 81.3588C84.6393 81.1545 84.9789 80.9502 85.2505 80.814L85.7937 80.6096V80.6778V81.2226C85.7937 81.2226 85.7258 81.2907 85.6579 81.2907Z" fill="white"/>
<path d="M72.8918 77.9535C72.6881 77.8173 72.4844 77.7492 72.2806 77.7492H72.2127C72.0769 77.7492 71.9411 77.8173 71.8053 77.9535C71.7374 78.0216 71.6695 78.0897 71.6695 78.1578H71.6016C71.5337 78.1578 71.4658 78.0897 71.3979 78.0897H71.33C71.2621 78.0897 71.1263 78.1578 71.0583 78.2259C71.0583 78.294 71.0583 78.294 71.0583 78.3621C71.0583 78.4302 71.1263 78.4983 71.1942 78.5665C71.2621 78.5665 71.3979 78.6346 71.3979 78.7708C71.4658 78.9751 71.6016 79.1113 71.6695 79.3156C71.7374 79.4518 71.8053 79.5199 71.9411 79.588C72.009 79.588 72.0769 79.6562 72.1448 79.6562C72.3485 79.6562 72.4165 79.4518 72.4165 79.3156C72.4165 79.1794 72.3485 79.1113 72.2806 78.9751L72.009 78.4984C72.009 78.4302 71.9411 78.3621 71.9411 78.294C71.9411 78.2259 71.9411 78.2259 72.009 78.2259H72.0769L72.1448 78.294C72.2127 78.3621 72.2127 78.3621 72.2806 78.4302C72.4165 78.6346 72.5523 78.7708 72.6881 78.9751C72.6881 79.0432 72.756 79.1113 72.8239 79.1794C72.8918 79.2475 72.9597 79.3156 73.0955 79.3156C73.1634 79.3156 73.2313 79.2475 73.2992 79.2475C73.3671 79.1794 73.435 79.1113 73.435 78.9751C73.435 78.8389 73.435 78.7027 73.3671 78.6346C73.1634 78.294 73.0276 78.0897 72.8918 77.9535Z" fill="white"/>
<path d="M80.4971 81.3588C80.0897 81.0864 79.6822 80.9502 79.2069 80.9502H79.139C79.0032 80.9502 78.9353 80.9502 78.7995 80.9502H78.5279C78.8674 80.6778 79.2069 80.4053 79.6143 80.201C79.7502 80.1329 79.886 80.0648 79.9539 79.9286C80.0218 79.8605 80.0897 79.7243 80.0897 79.588C80.0897 79.4518 80.0218 79.3156 79.9539 79.2475C79.8181 79.0432 79.6822 78.907 79.5464 78.7708C79.3427 78.6346 79.2069 78.4983 78.9353 78.3621C78.7316 78.2259 78.46 78.1578 78.1883 78.0897C78.1204 78.0897 77.9846 78.0897 77.9167 78.0897C77.7809 78.0897 77.6451 78.0897 77.5772 78.1578C77.3735 78.2259 77.1698 78.294 76.966 78.4302C76.8302 78.4983 76.6265 78.5665 76.4907 78.7027L75.8117 79.1113L75.1326 79.5199H75.0647C75.0647 79.5199 75.0647 79.5199 74.9968 79.5199C74.9289 79.4518 74.7931 79.4518 74.7252 79.4518C74.5894 79.4518 74.4536 79.588 74.4536 79.7243C74.4536 79.7924 74.4536 79.9286 74.5215 79.9967C74.5894 80.1329 74.7252 80.2691 74.7931 80.3372C74.9968 80.4734 75.1326 80.5415 75.3363 80.6096C75.4721 80.6778 75.6079 80.6777 75.6758 80.6777C75.8117 80.6777 75.8796 80.6778 75.9475 80.6096C76.0833 80.5415 76.287 80.4734 76.4228 80.4053L77.0339 79.9286L77.6451 79.4518L78.1204 79.1113L78.392 78.907H78.46C78.46 78.907 78.5279 78.907 78.5279 78.9751C78.5279 79.0432 78.5279 79.0432 78.5279 79.1113C78.5279 79.1794 78.46 79.1794 78.46 79.2475C78.392 79.3156 78.3241 79.3837 78.2562 79.4518L77.5772 80.1329C77.3735 80.3372 77.1698 80.5415 76.966 80.6777C76.7623 80.8821 76.4228 81.1545 76.0833 81.3588C75.4721 81.8356 74.7931 82.3123 74.114 82.7209C73.9782 82.789 73.9103 82.9253 73.8424 83.0615C73.8424 83.1296 73.8424 83.1977 73.8424 83.1977C73.8424 83.2658 73.8424 83.402 73.8424 83.4701C73.8424 83.7425 73.9782 83.9469 74.1819 84.0831C74.3177 84.2193 74.4536 84.2874 74.5894 84.2874H74.6573C74.7252 84.2874 74.861 84.2874 74.9289 84.2193C74.9289 84.2874 74.9289 84.3555 74.9289 84.4236C74.9289 84.6279 74.9968 84.7641 75.1326 84.9685C75.2684 85.1728 75.54 85.3771 75.7437 85.5133C76.0154 85.6495 76.287 85.7176 76.5586 85.7857C76.7623 85.7857 77.0339 85.8538 77.2377 85.8538H77.3056H77.5772L78.0525 85.7857C78.3241 85.7176 78.5958 85.7176 78.7995 85.6495C79.2069 85.5133 79.6143 85.309 80.0218 85.1047C80.2255 84.9685 80.3613 84.8322 80.4971 84.6279C80.7687 84.2874 80.9045 83.8788 80.9724 83.402C80.9724 83.1296 80.9724 82.7891 80.9045 82.5166C81.0403 81.9718 80.8366 81.6312 80.4971 81.3588ZM76.8981 84.3555H76.6944C76.5586 84.3555 76.4228 84.3555 76.287 84.2874C76.1512 84.2874 76.0833 84.2193 75.9475 84.0831C75.8796 84.015 75.8117 83.8787 75.8796 83.8106C75.8796 83.7425 75.9475 83.7425 75.9475 83.7425C76.0154 83.7425 76.0154 83.7425 76.0833 83.7425H76.2191C76.4907 83.8106 76.6944 83.9469 76.8302 84.1512C76.8981 84.2193 76.8981 84.2874 76.966 84.2874C76.966 84.2874 76.966 84.3555 76.8981 84.3555ZM79.9539 82.6528C79.886 82.9253 79.7502 83.1977 79.6143 83.402C79.4106 83.6744 79.0711 83.8788 78.7995 84.015C78.7316 84.015 78.6637 84.0831 78.5958 84.0831L78.46 83.8788C78.3241 83.6744 78.1883 83.5382 78.0525 83.3339C77.9167 83.1977 77.713 83.0615 77.5093 82.9934C77.3056 82.9253 77.1019 82.8572 76.8981 82.8572H76.6944H76.5586L76.7623 82.7209C77.0339 82.5166 77.3056 82.3123 77.6451 82.1761C77.9846 81.9718 78.3241 81.8356 78.7316 81.6993C78.8674 81.6312 79.0032 81.6312 79.139 81.6312H79.2748C79.4106 81.6312 79.6143 81.6993 79.7501 81.7675C79.886 81.9037 80.0218 82.0399 80.0218 82.2442C79.9539 82.4485 79.9539 82.5847 79.9539 82.6528Z" fill="white"/>
<path d="M36.5624 101.314C36.0871 100.088 35.2722 98.9983 34.2536 98.2492C33.6425 97.7724 33.0314 97.2957 32.4202 96.887C31.7412 96.4784 30.9263 96.2741 30.1793 96.2741C29.3645 96.2741 28.5496 96.4784 27.8706 96.8189C27.3952 97.0914 26.852 97.2276 26.3087 97.3638C25.8334 97.2276 25.426 97.2276 24.9506 97.1595C24.4753 97.1595 24.1358 97.5681 24.0679 98.0448V116.025C24.679 116.57 25.3581 116.978 26.105 117.319C26.9199 117.728 27.8706 118 28.8212 118C29.1608 118 29.4324 117.932 29.7719 117.864C30.3151 117.659 31.13 116.91 32.2844 115.548C33.5067 114.05 34.5932 112.415 35.408 110.713C36.3587 108.874 36.902 106.831 36.9699 104.787C36.902 103.561 36.834 102.472 36.5624 101.314ZM31.6053 107.444C30.7905 109.827 29.8398 111.394 28.7533 112.075V101.11C29.704 100.497 30.8584 100.088 32.0128 100.02C32.1486 100.02 32.2844 100.02 32.4202 100.088C32.556 100.156 32.7597 100.429 32.7597 101.586C32.6239 103.561 32.2165 105.537 31.6053 107.444Z" fill="#E71E25"/>
<path d="M50.9584 106.422C50.4151 103.698 50.0077 100.905 49.7361 98.1129V98.0448C49.3965 97.7043 48.4459 97.3638 46.952 96.9551C45.7976 96.6146 44.5753 96.4103 43.353 96.3422C43.0814 96.3422 42.8776 96.3422 42.6739 96.4784C42.5381 96.6146 42.4702 96.887 42.4702 97.4319C42.5381 97.7724 42.5381 98.113 42.4702 98.5216L39.0749 109.487C37.6489 110.168 37.4452 110.44 37.4452 110.645C37.4452 110.713 37.4452 110.849 37.4452 110.917C37.4452 111.326 37.6489 111.734 37.9885 112.007C37.8527 112.347 37.581 113.096 37.0378 114.39C36.4946 115.684 36.4946 116.025 36.5625 116.161C36.6304 116.297 36.8341 116.502 38.1922 117.047C38.8712 117.387 39.6182 117.591 40.3651 117.659C40.4331 117.659 40.5689 117.659 40.6368 117.591C40.9084 117.455 41.0442 117.251 41.18 117.047C41.2479 116.842 41.3158 116.57 41.3158 116.434C41.7233 115.412 42.1307 114.527 42.4023 113.846C43.2172 113.437 44.032 113.164 44.8469 112.96C45.7976 112.688 46.7482 112.415 47.6989 112.279C47.9705 113.164 48.1742 114.05 48.3101 114.935C48.5138 116.093 48.6496 116.365 48.7854 116.502C49.3286 116.978 50.0077 117.319 50.7546 117.455C51.4337 117.728 52.1806 117.864 52.9276 117.864C53.1313 117.864 53.2671 117.864 53.4029 117.796C53.5388 117.591 53.6067 117.319 53.6067 117.047C53.6746 116.502 53.6746 116.161 53.7425 115.957C52.7918 114.118 51.8411 110.917 50.9584 106.422ZM43.8962 108.874C44.0999 107.988 44.3716 107.103 44.7111 106.218C45.1185 104.992 45.458 103.97 45.7976 103.221C45.8655 104.311 46.0013 105.332 46.205 106.286C46.2729 106.626 46.4087 107.239 46.6124 108.261C45.1864 108.533 44.3036 108.738 43.8962 108.874Z" fill="#E71E25"/>
<path d="M110.987 115.071V99.8156C110.987 99.6113 111.054 99.407 111.122 99.2027C111.19 98.9983 111.258 98.7259 111.258 98.4535C111.258 98.3173 111.258 98.1811 111.19 98.0448C111.054 97.6362 110.579 97.2957 109.696 97.1595C109.493 97.1595 108.746 97.0233 107.252 96.9551C106.709 96.887 106.165 96.8189 105.622 96.6827C105.147 96.5465 104.603 96.4784 104.128 96.4784C103.992 96.4784 103.856 96.4784 103.653 96.5465C103.381 96.6146 102.906 97.0914 102.023 100.224C100.733 104.583 99.918 107.444 99.3747 108.942L95.9116 100.088C95.8437 99.9518 95.8437 99.8837 95.8437 99.7475C95.8437 99.6794 95.8437 99.5432 95.9116 99.1345C95.9795 98.9302 95.9116 98.7259 95.9116 98.5216C95.8437 98.2492 95.3683 97.8405 92.5163 97.0914C89.8001 96.4103 89.189 96.4103 88.9853 96.4784C88.7136 96.6146 88.5099 96.7508 88.3741 97.0233C88.2383 97.2276 88.1025 97.5 88.1025 97.7724V115.412C88.1025 115.616 88.0346 115.752 88.0346 115.957C87.9667 116.093 87.9667 116.297 87.9667 116.502C87.9667 116.706 88.0346 116.842 88.1025 116.978C88.3062 117.251 88.8494 117.455 89.868 117.659C90.615 117.864 91.4298 118 92.2447 118C92.4484 118 92.72 118 92.9238 117.864C93.1954 117.728 93.2633 117.319 93.3312 116.774C93.3991 116.365 93.3312 115.957 93.2633 115.548C93.1954 115.276 93.0596 114.935 92.9917 114.663C92.8558 114.39 92.7879 114.118 92.7879 113.777V104.243C93.1954 105.128 93.9423 107.035 95.0288 110.032C95.5042 111.394 96.1153 113.028 96.7943 115.003C96.7943 115.208 96.7943 115.48 96.7943 115.684C96.7264 115.957 96.7944 116.229 96.9981 116.365C97.8808 117.115 99.5106 117.523 101.819 117.523C102.159 117.523 102.43 117.523 102.77 117.455C103.11 117.387 103.313 117.115 103.381 116.774C103.449 116.434 103.449 116.093 103.449 115.752C103.449 115.48 103.381 115.276 103.381 115.003C103.313 114.731 103.313 114.458 103.313 114.254C103.313 114.186 103.313 114.118 103.313 114.05C104.603 109.078 105.622 105.741 106.369 104.106V115.003C106.369 115.208 106.369 115.344 106.301 115.548C106.233 115.684 106.233 115.889 106.233 116.025C106.233 116.161 106.233 116.297 106.301 116.434C106.505 116.774 107.252 117.115 108.542 117.455C109.357 117.728 110.172 117.864 111.054 117.796C111.394 117.728 111.598 117.319 111.733 116.502C111.733 116.229 111.666 115.889 111.462 115.684C111.122 115.548 110.987 115.344 110.987 115.071Z" fill="#E71E25"/>
<path d="M70.4471 113.846C70.2434 113.709 70.0397 113.573 69.836 113.437C69.6322 113.301 69.3606 113.233 69.1569 113.164C66.7123 110.781 65.0826 109.282 64.3356 108.669C67.8667 105.673 69.6322 103.153 69.5643 101.246C69.4964 100.633 69.2248 100.02 68.8174 99.5432C68.342 99.0665 67.7988 98.5897 67.3235 98.1811C66.9839 97.8405 66.6444 97.5681 66.1691 97.1595C65.7617 96.8189 65.2863 96.6146 64.7431 96.5465C64.4715 96.4784 64.1998 96.4784 63.9282 96.4784C63.0454 96.5465 62.2306 96.7508 61.4836 97.1595C60.9404 97.5 60.3292 97.7043 59.6502 97.8405C59.1069 97.8405 58.5637 97.7043 58.0884 97.5681C57.613 97.4319 57.1377 97.3638 56.5945 97.2957C55.8475 97.3638 55.4401 97.7043 55.4401 98.1811C55.4401 98.2492 55.508 98.3854 55.508 98.4535C55.5759 98.5216 55.5759 98.6578 55.5759 98.7259V116.093C55.5759 116.297 55.5759 116.434 55.508 116.638C55.4401 116.774 55.4401 116.842 55.4401 116.978C55.4401 117.319 55.9833 117.591 57.2056 117.796C57.8847 117.932 58.5637 118.068 59.2428 118.068C59.3786 118.068 59.4465 118.068 59.5823 118.068C60.3292 118 60.7367 117.728 60.7367 117.183C60.7367 116.91 60.6009 116.706 60.465 116.502C60.3292 116.297 60.2613 116.093 60.2613 115.889V111.462L65.6937 116.229C65.8296 116.434 65.9654 116.706 66.1012 116.91C66.3728 117.455 66.916 117.796 67.5272 117.796C68.0704 117.796 68.8174 117.251 69.5643 116.093C70.6508 114.527 70.5829 114.118 70.4471 113.846ZM60.2613 106.081V102.472C62.2985 100.905 63.7924 100.088 64.6073 100.088C64.8789 100.088 64.9468 100.224 64.9468 100.497C64.9468 101.178 64.3356 102.199 63.1133 103.63C62.2985 104.651 61.3478 105.468 60.2613 106.081Z" fill="#E71E25"/>
<path d="M129.932 115.821C129.049 114.118 128.099 110.917 127.216 106.422C126.673 103.698 126.265 100.905 125.994 98.1129V98.0448C125.654 97.7043 124.703 97.3638 123.21 96.9551C122.055 96.6146 120.833 96.4103 119.611 96.3422C119.271 96.3422 118.999 96.4103 118.932 96.4784C118.864 96.6146 118.66 96.887 118.728 97.4319C118.796 97.7724 118.796 98.113 118.728 98.5216L115.333 109.487C113.907 110.168 113.703 110.44 113.703 110.576C113.703 110.645 113.703 110.781 113.703 110.849C113.703 111.257 113.907 111.666 114.246 111.939C114.11 112.279 113.839 113.096 113.295 114.322C112.888 115.276 112.684 115.821 112.752 116.093C112.752 116.229 112.956 116.365 114.382 116.978C115.061 117.319 115.808 117.523 116.555 117.591C116.623 117.591 116.759 117.591 116.826 117.523C117.098 117.387 117.234 117.183 117.37 116.978C117.438 116.774 117.505 116.57 117.505 116.365C117.913 115.344 118.32 114.458 118.592 113.777C119.407 113.369 120.222 113.096 121.037 112.892C121.987 112.62 122.938 112.347 123.889 112.211C124.16 113.096 124.364 113.982 124.5 114.867C124.703 116.025 124.839 116.297 124.975 116.434C125.518 116.91 126.197 117.251 126.944 117.387C127.623 117.659 128.37 117.796 129.117 117.796C129.253 117.796 129.457 117.796 129.593 117.728C129.728 117.523 129.796 117.251 129.796 116.978C129.864 116.434 129.864 116.093 129.932 115.889V115.821ZM120.154 108.874C120.358 107.988 120.629 107.103 120.969 106.218C121.376 104.992 121.716 103.97 122.055 103.221C122.123 104.243 122.259 105.264 122.395 106.286C122.463 106.626 122.598 107.307 122.802 108.261C121.444 108.533 120.561 108.738 120.154 108.874Z" fill="#E71E25"/>
<path d="M84.9788 97.3638C84.4356 97.0232 83.8923 96.8189 83.2812 96.7508C82.5342 96.5465 81.7873 96.4103 81.0403 96.3422C80.9045 96.3422 80.7008 96.3422 80.565 96.4103C80.0896 96.6827 79.818 97.2276 79.9538 97.7724C80.0217 97.9767 80.0896 98.1811 80.2254 98.3854C80.3613 98.6578 80.3613 98.9302 80.2933 99.1345C80.4292 100.36 80.4971 101.586 80.4971 102.744C80.4971 105.332 80.3613 107.852 80.0217 110.44C79.6143 113.233 79.0031 114.663 78.1883 114.731C77.7809 114.731 77.2376 113.914 76.7623 110.304C76.4907 107.648 76.3548 104.992 76.3548 102.404C76.2869 101.518 76.3548 100.565 76.4907 99.6794C76.4907 99.407 76.5586 99.1345 76.6944 98.8621C76.8302 98.5897 76.966 98.2492 76.966 97.9086C76.966 97.7724 76.8981 97.5681 76.8302 97.4319C76.6265 97.2276 75.9474 96.9551 74.7251 96.6146C73.1633 96.206 72.7559 96.206 72.6201 96.2741C72.1447 96.4103 71.8052 96.8189 71.8052 97.3638C71.5336 99.2708 71.3978 101.178 71.4657 103.085C71.4657 105.673 71.6694 108.261 72.0768 110.781C72.5522 113.301 73.0954 114.935 73.8424 115.684C74.2498 116.093 74.7251 116.365 75.2684 116.434C75.8795 116.638 76.5586 116.774 77.0339 116.842L79.0711 117.455C79.5464 117.591 80.0896 117.728 80.6329 117.728C80.7008 117.728 80.8366 117.728 80.9045 117.728C83.8244 117.387 85.1825 112.62 85.1825 103.017C85.1825 99.5432 85.1825 98.5897 85.1146 98.2492C85.1146 97.8405 85.1146 97.5681 84.9788 97.3638Z" fill="#E71E25"/>
</g>
<defs>
<clipPath id="clip0">
<rect width="106" height="82" fill="white" transform="translate(24 36)"/>
</clipPath>
</defs>
</svg>
