<svg width="155" height="155" viewBox="0 0 155 155" fill="none" xmlns="http://www.w3.org/2000/svg">
<path d="M43.2354 119.138C43.2354 120.064 43.2354 120.874 43.2354 121.685C43.2354 122.148 43.2354 123.653 44.8601 123.653C45.3244 123.653 45.5565 123.537 45.7886 123.537C45.9046 123.537 46.0207 123.537 46.1367 123.421C46.2528 123.421 46.3688 123.305 46.4849 123.19C46.6009 123.074 46.6009 122.958 46.6009 122.842C46.4849 122.148 46.3688 118.096 46.3688 115.665C46.3688 114.854 46.3688 114.16 46.3688 113.349C46.3688 112.539 46.3688 111.728 46.3688 110.918C46.3688 109.992 45.5565 109.297 44.3959 109.297C44.0478 109.297 43.5836 109.413 43.2354 109.529C43.1193 109.529 43.0033 109.644 42.8872 109.76C42.8872 109.876 42.8872 109.992 42.8872 110.108C42.8872 110.108 43.0033 110.571 43.0033 111.844C43.0033 112.654 43.1193 113.696 43.1193 114.97C42.307 114.97 41.1464 114.97 39.9859 114.97C39.1735 114.97 38.2451 114.97 37.4327 114.97C37.4327 113.233 37.4327 111.497 37.4327 110.918C37.4327 109.992 36.6203 109.297 35.4598 109.297C35.1116 109.297 34.6474 109.413 34.2993 109.529C34.1832 109.529 34.0672 109.644 33.9511 109.76C33.9511 109.876 33.9511 109.992 33.9511 110.108C33.9511 110.108 34.0672 110.571 34.0672 111.96C34.0672 112.886 34.1832 116.706 34.1832 117.864C34.1832 122.032 33.9511 122.727 33.9511 122.727C33.8351 122.842 33.9511 122.958 33.9511 123.19C34.0672 123.305 34.1832 123.421 34.2993 123.421C34.4153 123.421 34.5314 123.421 34.6474 123.537C34.9956 123.653 35.2277 123.653 35.5759 123.653C36.6203 123.653 37.2006 123.074 37.2006 121.916C37.2006 121.337 37.2006 120.643 37.2006 120.064C37.2006 119.485 37.2006 119.022 37.2006 118.559V117.17C38.013 117.17 39.0575 117.17 40.1019 117.17C40.9143 117.17 41.9588 117.17 42.7712 117.17C43.2354 117.864 43.2354 118.443 43.2354 119.138ZM60.7595 109.413C60.4113 109.413 59.9471 109.529 59.831 109.644C59.5989 109.76 59.4829 109.876 59.4829 110.108C59.715 112.307 59.715 114.854 59.715 117.517C59.715 120.18 58.6705 121.685 56.8136 121.685C54.9568 121.685 53.7963 120.18 53.7963 117.517C53.7963 116.706 53.7963 115.317 53.7963 114.044C53.7963 112.886 53.7963 111.728 53.7963 111.034C53.7963 110.108 52.9839 109.413 51.8233 109.413C51.4752 109.413 50.7789 109.529 50.6628 109.644C50.4307 109.644 50.3146 109.876 50.3146 110.108V110.223C50.4307 111.265 50.5468 114.738 50.5468 117.401C50.5468 121.453 52.5197 123.768 56.2334 123.768C58.7866 123.768 61.8039 122.611 61.8039 117.285C61.8039 116.475 61.8039 115.317 61.92 114.275C61.92 113.118 62.036 111.96 62.036 111.149C61.92 110.339 61.92 109.413 60.7595 109.413ZM75.4982 109.529C75.3822 109.413 75.2661 109.413 75.1501 109.413C74.4538 109.529 73.8735 109.644 73.1772 109.644C71.3203 109.644 65.1695 109.529 65.0534 109.529C64.8213 109.529 64.125 109.644 64.125 110.802C64.125 111.149 64.125 111.613 64.2411 111.613C64.2411 111.728 64.3571 111.844 64.4732 111.96C64.5892 112.076 64.7053 112.076 64.8213 112.076C65.1695 112.076 65.9819 111.96 66.9103 111.96C67.1424 111.96 67.4906 111.96 68.419 111.96V112.076V112.191C68.419 113.465 68.535 114.97 68.535 116.359V122.032C68.535 123.074 69.1153 123.768 70.1598 123.768C70.5079 123.768 70.7401 123.768 71.0882 123.653C71.2043 123.653 71.3203 123.653 71.4364 123.537C71.6685 123.537 71.9006 123.305 71.7845 123.074C71.4364 120.643 71.4364 118.211 71.4364 115.896C71.4364 115.086 71.4364 114.275 71.4364 113.349C71.4364 112.886 71.4364 112.423 71.4364 112.076C73.2932 112.076 74.8019 112.076 74.8019 112.076C75.1501 112.076 75.6143 111.844 75.6143 111.034C75.6143 110.571 75.4982 110.108 75.4982 109.992C75.6143 109.644 75.6143 109.529 75.4982 109.529ZM84.3183 109.297C80.8367 109.297 77.123 111.613 77.123 116.822C77.123 120.18 79.328 123.768 84.0862 123.768C87.5678 123.768 91.2815 121.337 91.2815 115.896C91.1655 112.654 88.9604 109.297 84.3183 109.297ZM84.3183 121.8C81.7651 121.8 80.4885 119.138 80.4885 116.475C80.4885 113.928 81.7651 111.381 84.0862 111.381C86.6394 111.381 87.916 113.928 87.916 116.359C87.7999 119.022 86.6394 121.8 84.3183 121.8ZM96.736 121.916C96.736 120.411 96.736 118.906 96.62 117.401C96.62 116.475 96.62 115.549 96.5039 114.623C96.736 114.97 97.0842 115.317 97.5484 115.896L101.262 120.295C102.191 121.453 102.887 122.263 103.235 122.958C103.583 123.421 104.047 123.653 104.512 123.653C105.092 123.653 105.556 123.537 105.556 123.537C105.788 123.421 105.904 123.19 105.904 122.958C105.788 122.263 105.788 119.601 105.788 118.327C105.788 116.822 105.788 115.433 105.788 114.275C105.788 113.233 105.788 112.191 105.788 111.149C105.788 110.571 105.788 109.644 104.512 109.644C104.047 109.644 103.699 109.876 103.583 109.876C103.467 109.992 103.351 109.992 103.351 110.108C103.351 110.223 103.351 110.339 103.351 110.455C103.351 110.455 103.467 110.918 103.467 112.307C103.467 113.349 103.583 114.854 103.583 116.475C103.583 117.17 103.583 117.864 103.583 118.443C103.351 118.096 103.003 117.633 102.539 117.17L98.941 112.886C98.2447 112.076 97.5484 111.149 96.9681 110.339C96.62 109.76 95.9236 109.76 95.5755 109.76C95.1113 109.76 94.6471 109.876 94.531 109.876C94.415 109.876 94.2989 109.992 94.1828 110.108C94.1828 110.223 94.1828 110.339 94.1828 110.455C94.1828 110.455 94.2989 110.918 94.2989 112.191C94.2989 113.118 94.415 116.938 94.415 118.096C94.415 122.148 94.1828 122.958 94.1828 122.958C94.1828 123.074 94.1828 123.19 94.1828 123.305C94.1828 123.421 94.2989 123.537 94.415 123.537C94.415 123.537 94.9952 123.768 95.4594 123.768C96.736 123.653 96.736 122.842 96.736 121.916ZM120.643 123.537C120.759 123.537 120.991 123.537 121.107 123.421L121.223 123.305C121.339 123.19 121.339 123.074 121.339 122.958C121.339 122.958 121.339 122.032 121.339 121.453C121.339 120.99 121.339 120.411 121.339 119.832C121.339 119.253 121.339 118.675 121.339 118.211C121.339 117.748 121.107 116.475 119.25 116.475C118.902 116.475 118.554 116.475 118.206 116.591C118.09 116.706 117.974 116.822 117.858 116.938C117.858 117.054 117.858 117.17 117.974 117.285C118.09 117.633 118.09 119.369 118.09 120.064C118.09 120.527 118.09 120.99 118.09 121.453C117.626 121.569 117.045 121.685 116.465 121.685C113.68 121.685 112.171 118.906 112.171 116.128C112.171 112.886 113.912 111.381 115.769 111.381C117.045 111.381 118.322 112.191 119.25 113.465C119.366 113.581 119.482 113.696 119.599 113.696H119.715C119.831 113.696 119.947 113.696 120.063 113.581C120.411 113.233 120.875 112.307 120.875 111.728C120.875 110.108 117.626 109.529 116.117 109.529C112.635 109.529 108.922 112.191 108.922 117.17C108.922 120.527 111.127 124 116.001 124C116.465 124 117.045 124 117.742 123.884C118.438 123.768 119.366 123.768 119.947 123.768C120.411 123.421 120.643 123.537 120.643 123.537Z" fill="#010101"/>
<path d="M75.034 70.2824H76.5427V68.4301H75.034V70.2824ZM80.8367 66.462H79.6761C79.6761 67.1566 79.6761 67.6197 79.6761 67.8513H80.9527V66.462H80.8367ZM80.8367 64.2624H79.6761V65.5358H80.8367V64.2624ZM114.84 62.7574C112.983 42.3817 94.8791 27.3316 74.4537 29.1839C54.0283 31.152 38.9414 49.0964 40.9143 69.472C42.1909 84.1749 51.9394 95.9835 64.9374 100.846C63.8929 99.8039 62.9645 98.762 62.2681 97.4885C63.8929 98.6462 65.6337 100.035 67.4905 100.962C72.7129 103.624 78.0514 103.161 83.2738 100.962C89.3086 98.4147 94.1828 94.71 96.1557 87.8796C98.941 78.2706 96.6199 69.7036 88.9604 63.2204C88.2641 62.6416 87.5678 62.0627 86.7554 61.4839C86.9875 61.3681 87.1036 61.3681 87.1036 61.3681C92.442 63.2204 96.6199 66.3462 98.941 71.5559C100.798 75.6079 101.03 79.7756 101.378 84.1749C101.61 88.3426 100.334 91.7 97.7805 94.8258C95.9236 97.0254 93.9507 98.9935 91.7457 100.614C95.5755 99.1093 99.1731 96.9097 102.307 94.2469C106.601 86.3745 105.904 78.0391 99.6373 69.009C99.9855 69.1247 100.102 69.2405 100.218 69.3563C104.279 72.9452 106.484 77.4602 106.949 82.7857C107.181 85.1011 107.181 87.3007 106.833 89.2688C112.635 82.091 115.769 72.7136 114.84 62.7574ZM98.941 50.0226C98.5928 50.0226 96.3878 49.791 95.1112 49.791C93.8347 49.791 94.8791 50.2541 95.3433 50.3699C95.6915 50.4857 96.852 50.6014 99.2892 51.4118C101.842 52.1065 103.467 53.1484 105.556 55.1165C107.645 57.0846 105.904 56.39 105.904 56.39C105.904 56.39 105.672 56.1584 104.976 55.8111C104.279 55.4638 100.914 53.7272 99.8694 53.2642C98.825 52.9169 98.941 53.4957 99.8694 54.0746C103.119 56.0427 107.297 61.4839 108.806 64.3781C110.314 67.2724 110.43 69.2405 110.778 70.6298C111.011 72.019 111.127 73.0609 110.43 71.3244C109.618 69.5878 107.645 65.9989 104.744 61.8312C101.842 57.6634 98.4768 55.6953 95.3433 53.6115C92.2099 51.5276 86.8715 50.2541 85.4788 49.9068C83.9701 49.5595 79.9082 48.8649 79.2119 48.7491C78.5156 48.6333 77.5872 48.6333 78.0514 48.0545C79.2119 46.6652 82.4614 47.823 84.0862 47.9387C85.7109 48.1703 87.2196 48.4018 89.3086 48.4018C91.3975 48.4018 93.4865 48.4018 93.4865 48.4018C93.4865 48.4018 94.647 48.286 97.5484 48.9807C100.218 49.7911 99.2892 50.1384 98.941 50.0226ZM91.3975 84.638C92.0939 83.0172 92.442 81.2806 92.442 79.5441C92.442 76.9971 92.0939 74.4502 91.8617 72.019C91.8617 72.019 91.9778 72.1348 92.0939 72.2505C92.2099 72.4821 92.326 72.7136 92.442 72.9452C95.5755 80.1229 94.647 86.8376 90.237 93.205C87.9159 96.6781 84.5504 98.762 80.4885 99.6882C75.7303 100.73 70.9721 100.846 66.4461 98.8778C59.9471 95.9835 59.5989 88.8057 63.4287 84.1749C63.0805 85.5642 62.6163 86.9534 62.3842 88.4584C61.8039 92.6262 63.8929 95.6362 67.8387 96.5624C69.9277 97.0254 72.1327 97.1412 74.3377 97.0254C82.3454 96.0993 88.2641 92.1631 91.3975 84.638ZM67.7226 90.4265C69.3474 91.8158 71.2042 92.3946 73.1772 92.6262C74.918 92.7419 76.6588 92.7419 78.6317 92.8577C75.1501 94.1312 71.9006 95.2889 68.419 94.3627C65.5176 93.5523 63.0805 90.7738 63.7768 87.0692C64.4731 83.9434 66.6782 81.9753 69.2313 80.2387C68.8832 80.9333 68.1869 81.5122 67.8387 82.2068C67.1424 83.5961 66.4461 85.1011 66.0979 86.6061C65.9818 88.1111 66.5621 89.3846 67.7226 90.4265ZM77.9353 64.8412V65.8832H76.5427V67.2724H77.8193V71.0928C78.0514 70.514 78.1674 69.9351 78.2835 69.3563C78.3996 68.6617 78.3996 68.0828 78.3996 67.3882V63.2204H82.1133V70.7455C82.1133 70.9771 81.9972 71.2086 81.7651 71.3244C81.533 71.5559 81.3009 71.5559 81.0688 71.5559H79.9082L79.7922 70.3982H80.6046C80.7206 70.3982 80.7206 70.3982 80.8367 70.2824L80.9527 70.1667V68.5459H79.5601C79.444 69.8194 79.0959 70.8613 78.7477 71.6717L77.8193 71.2086V71.4401H76.5427V71.0928H75.034V71.5559H73.7574V67.2724H75.1501V65.8832H73.5253V64.8412H75.1501V63.2204H76.4266V64.8412H77.9353ZM75.6143 79.5441H80.1404V82.9014H76.8909V83.2487H75.6143V79.5441ZM75.1501 77.8075H80.3725V78.8495H75.1501V77.8075ZM80.4885 83.2487C80.6046 83.2487 80.6046 83.2487 80.7206 83.133C80.8367 83.133 80.8367 83.0172 80.8367 82.9014V77.1129H74.918V84.638H73.5253V76.1867H82.1133V83.4803C82.1133 83.7118 81.9972 84.0591 81.7651 84.1749C81.533 84.4064 81.3009 84.5222 80.9527 84.5222H79.5601L79.444 83.3645H80.4885V83.2487ZM92.7902 59.5158C87.5678 56.7373 81.0688 56.0427 79.5601 55.6953C78.0514 55.4638 78.0514 55.8111 78.0514 56.39C78.2835 58.0108 75.034 57.0846 72.945 56.6215C70.74 56.1584 70.0437 56.2742 67.4905 56.2742C64.9374 56.2742 64.0089 57.6634 63.5447 58.3581C63.1966 59.0527 65.2855 59.8631 65.2855 59.8631C64.8213 60.6735 59.0186 58.8212 58.6705 59.0527C58.4384 59.2842 59.0186 60.3262 59.0186 60.3262C57.9742 60.4419 57.0457 59.8631 55.8852 58.8212C54.8407 57.6634 55.6531 56.8531 56.1173 56.39C56.5815 55.9269 56.9297 56.2742 58.2063 56.1584C59.4828 56.0427 59.1347 56.1584 60.1792 56.0427C61.2236 55.9269 61.5718 55.6953 61.2236 55.5796C60.8755 55.4638 59.9471 55.5796 59.2507 55.4638C58.5544 55.348 57.8581 55.1165 57.3939 55.1165C56.8136 55.2323 56.6976 54.7692 57.742 54.5376C60.0631 54.0746 60.0631 54.5376 60.6434 54.7692C61.2236 55.0007 61.5718 54.5376 63.6608 54.1903C65.7497 53.843 65.6337 53.4957 65.5176 53.1484C65.4016 52.8011 63.3126 53.2642 62.3842 53.3799C61.4558 53.4957 59.3668 53.9588 58.5544 53.843C57.742 53.843 56.8136 53.3799 56.4655 53.3799C56.1173 53.3799 55.8852 53.6115 55.8852 53.6115V54.0746C54.7247 52.9169 53.0999 53.3799 52.7517 52.9169C51.4752 50.833 53.0999 49.4437 53.5641 48.9807C54.0283 48.5176 54.9568 48.7491 56.0012 49.0964C57.0457 49.4437 57.0457 49.2122 58.0902 49.2122C59.1347 49.328 59.5989 48.8649 60.6434 48.6333C61.6879 48.4018 61.3397 48.4018 61.5718 48.1703C61.6879 47.823 62.7323 46.781 63.4287 46.0864C64.125 45.3918 64.7053 44.8129 65.1695 44.4656C65.6337 44.1183 68.8832 43.4237 69.8116 43.1921C70.74 42.9606 70.3919 42.8448 70.5079 42.729C70.74 42.6133 71.0882 42.1502 71.2042 42.6133C71.4363 43.8868 66.7942 44.6971 65.7497 44.9287C64.5892 45.276 63.5447 47.1283 63.0805 47.9387C62.6163 48.6333 61.2236 49.4437 60.5273 49.6753C59.9471 49.9068 58.2063 49.9068 57.742 49.791C57.2778 49.6753 57.0457 49.9068 56.6976 50.0226C56.2334 50.1384 56.5815 50.3699 56.9297 50.4857C57.2778 50.4857 57.5099 50.3699 58.2063 50.2541C58.7865 50.0226 59.0186 50.3699 59.5989 50.4857C60.2952 50.6014 60.5273 50.833 61.1076 50.7172C61.6879 50.6014 62.1521 50.1384 62.8484 49.791C63.5447 49.4437 63.8929 50.2541 64.3571 50.6014C64.9374 50.9488 65.1695 50.6014 66.0979 50.3699C67.0263 50.1384 66.5621 50.2541 67.1424 50.3699C67.6066 50.4857 67.8387 50.7172 68.535 50.7172C70.5079 50.6014 70.1598 48.9807 69.5795 48.286C68.9992 47.5914 68.535 48.0545 68.3029 48.4018C67.9547 48.7491 68.6511 48.7491 68.9992 48.6333C69.2313 48.5176 69.6955 49.2122 69.2313 49.6753C67.8387 50.7172 66.2139 49.2122 66.2139 49.2122C64.4731 50.2541 64.0089 48.7491 64.0089 48.7491C64.0089 47.3599 64.7053 46.0864 68.1869 44.8129C71.6685 43.5394 74.2216 43.8868 75.4982 44.0025C76.7748 44.1183 78.3996 44.6971 80.8367 44.9287C83.1577 45.276 85.0146 44.6971 86.0591 44.2341C87.1036 43.771 87.2196 44.1183 87.1036 44.4656C86.9875 44.8129 86.8715 45.5075 87.2196 45.7391C89.3086 46.2022 90.9333 45.3918 92.442 44.3498C93.9507 43.3079 94.7631 44.8129 94.4149 45.276C92.5581 47.2441 88.4962 48.1703 87.5678 47.9387C81.0688 46.3179 77.123 47.4756 75.9624 48.286C74.6858 49.0964 75.6143 49.0964 76.7748 49.2122C86.5233 50.6014 96.736 52.4538 104.396 63.3362C112.055 74.1029 109.502 84.638 109.502 84.638C107.181 67.5039 98.1286 62.2943 92.7902 59.5158ZM78.7477 80.586H76.8909V81.7437H78.7477V80.586Z" fill="#BE2026"/>
</svg>
