<svg width="155" height="155" viewBox="0 0 155 155" fill="none" xmlns="http://www.w3.org/2000/svg">
<path d="M43.4358 113.894C41.006 113.894 38.3649 113.049 36.8859 111.253C35.7238 109.88 35.4068 108.507 35.1956 106.816H40.5834C40.9003 108.295 41.6398 109.457 43.4358 109.457C44.7035 109.457 45.8656 108.612 45.8656 107.45C45.8656 107.133 45.76 106.711 45.5487 106.394C44.8092 105.443 42.0624 104.809 40.9003 104.386C37.9423 103.436 35.9351 101.534 35.9351 98.576C35.9351 94.8784 39.527 92.2373 43.3301 92.2373C47.239 92.2373 50.4083 94.8784 50.5139 98.4703H45.3374C45.1261 97.4139 44.3866 96.6744 43.2245 96.6744C42.1681 96.6744 41.2173 97.4139 41.2173 98.4703C41.2173 99.5268 42.1681 99.8437 43.0132 100.161C43.6471 100.372 44.2809 100.583 44.9148 100.794C48.2954 101.745 51.0422 103.119 51.0422 106.922C51.2534 110.831 47.8728 113.894 43.4358 113.894Z" fill="#231F20"/>
<path d="M68.0508 113.26V111.253H67.9452C66.4662 113.155 64.7759 114 62.2404 114C59.388 114 56.43 112.944 54.8453 110.831C53.3663 108.823 53.155 106.182 53.155 103.858V92.8712H58.4372V103.224C58.4372 106.182 59.0711 109.352 63.0856 109.352C66.7831 109.352 67.5226 105.971 67.5226 103.224V92.7655H72.8048V113.049H68.0508V113.26Z" fill="#231F20"/>
<path d="M83.1579 113.894C80.7281 113.894 78.087 113.049 76.5023 111.253C75.3402 109.88 75.0233 108.507 74.812 106.816H80.1999C80.5168 108.295 81.2563 109.457 83.1579 109.457C84.4256 109.457 85.5877 108.612 85.5877 107.45C85.5877 107.133 85.4821 106.711 85.2708 106.394C84.5313 105.443 81.6789 104.809 80.6224 104.386C77.6644 103.436 75.6572 101.534 75.6572 98.576C75.6572 94.8784 79.2491 92.2373 83.0522 92.2373C86.8554 92.2373 90.1304 94.8784 90.236 98.4703H85.1651C84.9538 97.4139 84.2143 96.6744 83.0522 96.6744C81.8902 96.6744 81.045 97.4139 81.045 98.4703C81.045 99.5268 81.9958 99.8437 82.841 100.161C83.4748 100.372 84.1087 100.583 84.7425 100.794C88.1232 101.745 90.8699 103.119 90.8699 106.922C90.8699 110.831 87.5949 113.894 83.1579 113.894Z" fill="#231F20"/>
<path d="M106.928 113.261V102.907C106.928 99.9494 106.4 96.78 102.385 96.78C98.4763 96.78 97.9481 100.161 97.9481 103.013V113.366H92.6659V85.8987H97.9481V94.3502C99.5328 92.8712 101.434 92.2374 103.653 92.2374C106.188 92.2374 108.935 93.5051 110.414 95.301C111.787 96.9913 112.104 99.3155 112.104 101.428V113.261H106.928Z" fill="#231F20"/>
<path d="M115.274 91.0753V85.8987H120.556V91.0753H115.274ZM115.274 113.261V92.8712H120.556V113.155H115.274V113.261Z" fill="#231F20"/>
<path d="M27.1666 92.8712H32.3432V113.261H27.1666V92.8712Z" fill="#F16522"/>
<path d="M32.2375 88.54C32.2375 89.9134 31.0755 91.0754 29.7021 91.0754C28.3287 91.0754 27.1666 89.9134 27.1666 88.54C27.1666 87.1666 28.3287 86.0045 29.7021 86.0045C31.0755 86.0045 32.2375 87.061 32.2375 88.54Z" fill="#F16522"/>
<path d="M60.4444 69.5239C60.6557 68.9957 60.7614 68.3618 60.7614 67.7279C60.867 64.453 58.7541 61.178 55.1622 60.2272C52.2042 59.0651 48.6123 58.4313 43.964 58.22C40.3721 58.1143 37.3084 58.3256 34.7729 58.6425C34.8786 62.8683 38.6818 66.3546 43.647 66.8828C43.647 66.9884 43.647 67.0941 43.647 67.0941C43.5414 70.369 46.0769 73.2214 49.6688 74.1722C49.5631 74.3835 49.5631 74.7004 49.5631 75.0174C49.4575 77.2359 50.7252 79.2431 52.8381 80.4052C52.8381 80.4052 53.7889 80.9334 54.5284 81.1447C55.4792 81.4616 56.7469 81.5673 57.0638 81.5673C61.2896 81.6729 64.8815 78.9262 64.9871 75.4399C65.0928 72.9045 63.1912 70.5803 60.4444 69.5239ZM51.2534 71.0029C49.1405 70.8972 47.4502 69.3126 47.5559 67.411C47.6615 65.5094 49.4575 63.9247 51.5703 64.0304C53.6832 64.136 55.3735 65.7207 55.2679 67.6223C55.2679 69.5239 53.4719 71.0029 51.2534 71.0029Z" fill="#F16522"/>
<path d="M50.8309 70.4746C49.2462 70.369 47.9785 69.2069 48.0842 67.7279C48.1898 66.2489 49.4575 65.1924 51.0422 65.1924C52.6268 65.1924 53.8946 66.4602 53.7889 67.9392C53.7889 69.4182 52.4156 70.5803 50.8309 70.4746ZM51.0422 65.7206C49.7745 65.7206 48.6124 66.5658 48.6124 67.8335C48.5067 68.9956 49.5632 70.0521 50.9365 70.0521C52.2043 70.0521 53.3664 69.1013 53.3664 67.9392C53.3664 66.7771 52.3099 65.7206 51.0422 65.7206Z" fill="#F16522"/>
<path d="M52.3098 68.1505C52.3098 68.9956 51.4647 69.6295 50.6195 69.6295C49.6687 69.6295 48.9292 68.89 49.0348 68.0448C49.0348 67.1997 49.88 66.5658 50.7251 66.5658C51.5703 66.6715 52.3098 67.411 52.3098 68.1505Z" fill="#F16522"/>
<path d="M48.0841 75.1231C44.7035 73.8554 42.485 71.1086 42.1681 68.045C37.2028 66.9885 33.6109 63.291 33.3996 59.0652C33.3996 59.1709 33.3996 59.1709 33.3996 59.2765C33.3996 59.1709 33.3996 59.0652 33.3996 59.0652C28.3287 60.016 25.7932 61.495 25.7932 61.6007C22.5183 62.974 21.1449 66.4603 22.307 71.3199C23.4691 76.0739 26.8497 79.4545 30.019 79.1376C39.3157 77.6586 44.8092 78.2924 49.6688 79.5601C48.5067 78.1868 47.9785 76.7078 48.0841 75.1231ZM28.7513 77.3416C26.4271 77.7642 23.6804 74.9118 22.7296 71.1086C21.7788 67.1998 22.9408 63.8192 25.265 63.3966C27.5892 62.974 30.3359 65.8264 31.2867 69.6296C32.1319 73.4328 31.0754 76.919 28.7513 77.3416Z" fill="#F16522"/>
<path d="M133.233 65.932C129.43 62.0232 123.936 58.7482 117.598 57.4805C117.175 59.699 116.541 61.9175 115.591 64.1361C114.217 67.5167 112.21 70.4747 109.78 73.1158C115.908 70.686 118.549 63.7135 133.233 65.932Z" fill="#F16522"/>
<path d="M116.541 41C112.633 53.2547 104.921 55.8958 98.7932 59.2764C99.744 59.4877 100.589 60.0159 101.117 60.7554C102.385 60.0159 103.653 59.2764 104.498 58.7482C107.773 56.6353 111.048 53.8886 113.372 49.6628C112.316 53.2547 108.196 57.903 105.237 60.1216C104.181 60.9667 102.913 61.8119 101.646 62.657C101.646 63.5022 101.329 64.3473 100.8 65.0868C104.181 63.1852 107.562 60.3329 109.886 56.5297C107.984 60.7554 105.026 63.6078 102.702 65.4038C103.125 65.6151 103.547 65.8263 103.864 66.1433C105.871 64.7699 107.35 62.7627 108.512 60.9667C107.245 63.7135 105.66 65.7207 104.498 66.8828C104.921 67.8336 104.921 68.89 104.392 70.0521C104.392 70.1577 104.287 70.2634 104.287 70.2634C105.554 70.686 106.505 71.4255 107.033 72.4819C107.245 73.0101 107.456 73.5384 107.456 74.0666C118.232 64.5586 118.443 50.2967 116.541 41Z" fill="#F16522"/>
<path d="M103.336 67.1997C102.702 66.2489 101.434 65.932 99.9554 66.1433C99.4272 66.5658 98.8989 67.0941 98.2651 67.411C97.5256 67.8336 96.5748 68.1505 95.7296 68.2561C96.6804 68.5731 97.4199 69.1013 97.8425 69.8408C97.9481 69.7352 98.1594 69.6295 98.2651 69.5239C99.1102 68.9957 100.061 68.89 100.272 69.2069C100.484 69.5239 99.9554 70.2634 99.1102 70.7916C98.8989 70.8973 98.582 71.0029 98.3707 71.1085C98.4764 71.7424 98.3707 72.4819 98.0538 73.2214C98.8989 73.1158 99.8497 72.7988 100.801 72.2706C103.23 71.0029 104.392 68.6787 103.336 67.1997Z" fill="#F16522"/>
<path d="M100.167 61.3893C99.1102 59.8047 96.3634 59.5934 93.9336 60.9667C92.9828 61.495 92.2433 62.2345 91.7151 62.8683C92.9828 63.1853 93.9336 63.9248 94.5675 64.8756C94.6731 64.7699 94.7788 64.7699 94.8844 64.6643C95.7296 64.1361 96.6804 64.0304 96.8916 64.453C97.1029 64.7699 96.5747 65.5094 95.7296 65.932C95.5183 66.0376 95.307 66.1433 95.0957 66.2489C95.0957 66.6715 95.0957 67.0941 94.9901 67.5167C95.8352 67.411 96.8916 67.0941 97.7368 66.6715C100.061 65.2981 101.223 62.974 100.167 61.3893Z" fill="#F16522"/>
<path d="M105.977 73.2214C105.554 72.3762 104.604 71.7424 103.547 71.5311C103.019 72.1649 102.279 72.7988 101.54 73.2214C100.483 73.8553 99.427 74.1722 98.3706 74.3835C99.0045 74.7004 99.5327 75.2286 99.8496 75.7568C100.061 75.6512 100.272 75.5456 100.483 75.4399C101.434 75.123 102.385 75.0173 102.491 75.3343C102.702 75.6512 101.963 76.2851 101.012 76.602C100.8 76.7076 100.589 76.8133 100.272 76.8133C100.483 77.5528 100.378 78.2923 100.061 79.1374C100.906 79.1374 101.751 78.9262 102.702 78.6092C105.343 77.4471 106.822 75.123 105.977 73.2214Z" fill="#F16522"/>
<path d="M93.7223 65.5094C92.8771 63.7134 89.8134 63.1852 87.0667 64.453C86.4328 64.7699 85.799 65.0868 85.2708 65.5094C86.7498 66.0376 87.7006 66.9884 88.0175 68.1505C88.1231 68.0449 88.3344 68.0449 88.5457 67.9392C89.4965 67.5166 90.4473 67.411 90.6586 67.7279C90.8699 68.0449 90.1304 68.6787 89.1796 69.1013C88.8627 69.2069 88.5457 69.3126 88.2288 69.4182C88.1231 70.1577 87.8062 70.8972 87.278 71.6368C88.2288 71.6368 89.2852 71.4255 90.3417 71.0029C92.9828 69.7352 94.5674 67.3053 93.7223 65.5094Z" fill="#F16522"/>
<path d="M99.0045 76.602C98.6876 75.8625 97.9481 75.3343 97.1029 75.0173C96.2578 75.8625 95.307 76.602 94.0393 77.0246C93.4054 77.3415 92.6659 77.4471 91.9264 77.5528C92.2433 77.9754 92.5603 78.3979 92.6659 78.8205C92.7715 78.7149 92.9828 78.7149 93.0885 78.6092C94.1449 78.1867 94.9901 78.1867 95.2014 78.5036C95.307 78.8205 94.6731 79.3487 93.6167 79.7713C93.4054 79.877 93.0885 79.877 92.8772 79.9826C92.8772 80.8278 92.6659 81.6729 92.2433 82.4124C93.2998 82.5181 94.4618 82.3068 95.6239 81.8842C98.3707 80.8278 99.8497 78.3979 99.0045 76.602Z" fill="#F16522"/>
<path d="M97.2086 70.7916C96.786 69.8408 95.6239 69.2069 94.2506 68.9956C93.511 70.0521 92.2433 71.1085 90.7643 71.7424C90.3417 71.9537 89.9192 72.0593 89.4966 72.165C89.8135 72.4819 90.0248 72.9045 90.2361 73.327C90.2361 73.4327 90.3417 73.5383 90.3417 73.644C90.553 73.5383 90.87 73.4327 91.0812 73.327C92.1377 72.9045 93.0885 72.7988 93.1941 73.1158C93.2998 73.4327 92.5603 73.9609 91.6095 74.3835C91.1869 74.5948 90.7643 74.7004 90.4474 74.7004C90.3417 75.3343 90.1304 75.9681 89.8135 76.4964C90.9756 76.7076 92.349 76.4964 93.7223 75.9681C96.3634 75.0173 98.0537 72.6932 97.2086 70.7916Z" fill="#F16522"/>
<path d="M66.0436 78.8206C65.7267 78.8206 65.5154 78.7149 65.1985 78.7149C64.9872 78.9262 64.8816 79.1375 64.6703 79.3488C64.8816 79.3488 65.0928 79.4544 65.3041 79.4544C66.6775 79.7714 67.6283 80.4052 67.5227 80.8278C67.417 81.2504 66.2549 81.2504 64.8816 80.9335C64.3533 80.8278 63.8251 80.6165 63.5082 80.4052C62.7687 80.8278 62.0292 81.2504 61.0784 81.4617C61.9235 82.835 63.6138 83.8915 65.8324 84.3141C66.2549 84.4197 66.5719 84.4197 66.9944 84.4197C67.1001 84.4197 67.1001 84.4197 67.2057 84.4197C67.5227 84.4197 67.8396 84.4197 68.1565 84.4197C68.2622 84.4197 68.2622 84.4197 68.3678 84.4197C68.6847 84.4197 69.1073 84.3141 69.4243 84.2084C69.5299 84.2084 69.6355 84.2084 69.7412 84.1028C69.9525 83.9971 70.2694 83.9971 70.4807 83.8915C70.5863 83.8915 70.692 83.7858 70.7976 83.7858C71.0089 83.6802 71.1146 83.5746 71.3258 83.4689C71.4315 83.3633 71.5371 83.3633 71.6428 83.2576C71.7484 83.152 71.9597 83.0463 72.0654 82.9407C72.171 82.835 72.2766 82.835 72.2766 82.7294C72.3823 82.6238 72.4879 82.4125 72.5936 82.3068C72.6992 82.2012 72.6992 82.2012 72.8049 82.0955C72.9105 81.8843 73.0161 81.5673 73.1218 81.356C73.4387 80.0883 72.9105 78.9262 71.8541 77.8698C70.692 78.6093 69.1073 79.0319 67.2057 79.0319C66.6775 78.9262 66.3606 78.9262 66.0436 78.8206Z" fill="#F16522"/>
<path d="M70.5863 77.3417C70.6921 77.3417 70.6921 77.2359 70.7979 77.2359C70.7979 77.2359 70.6921 77.2359 70.5863 77.3417Z" fill="#F16522"/>
<path d="M80.3055 78.5036C79.249 79.4544 77.6644 80.1939 75.9741 80.5109C75.3402 80.6165 74.7064 80.6165 74.0725 80.6165C74.0725 80.8278 74.0725 80.9335 74.0725 81.1447C74.3894 81.1447 74.812 81.0391 75.2346 81.0391C76.6079 81.0391 77.77 81.4617 77.6644 81.7786C77.6644 82.2012 76.5023 82.5181 75.1289 82.4125C74.6007 82.4125 74.0725 82.3068 73.6499 82.2012C73.333 82.835 72.8048 83.4689 72.1709 83.8915C72.2765 83.8915 72.3822 83.9971 72.4878 83.9971C72.4878 83.9971 72.4878 83.9971 72.5935 83.9971C72.9104 84.1028 73.2273 84.2084 73.5443 84.3141H73.6499C73.9668 84.4197 74.2838 84.5254 74.7064 84.5254H74.812C75.1289 84.5254 75.5515 84.631 75.8684 84.631C75.9741 84.631 76.1854 84.631 76.291 84.631C79.7773 84.631 82.6297 82.9407 82.6297 80.8278C82.6297 80.6165 82.6297 80.2996 82.524 80.0883C82.4184 79.877 82.3127 79.6657 82.2071 79.4544C82.1014 79.2432 81.8901 79.0319 81.6789 78.8206C81.6789 78.8206 81.6789 78.8206 81.5732 78.7149C81.3619 78.5036 81.1506 78.398 80.9393 78.1867C80.9393 78.1867 80.8337 78.1867 80.8337 78.0811C80.7281 78.0811 80.6224 77.9754 80.5168 77.8698C80.4111 78.398 80.4111 78.5036 80.3055 78.5036Z" fill="#F16522"/>
<path d="M91.8207 79.877C91.7151 78.6093 90.7643 77.6585 89.3909 76.919C89.3909 77.0246 89.2853 77.0246 89.2853 77.1303C88.3345 78.1867 86.9611 79.1375 85.3765 79.6657C84.7426 79.877 84.1087 79.9827 83.4749 80.0883C83.5805 80.4052 83.6862 80.8278 83.6862 81.1447C83.8974 81.1447 84.0031 81.0391 84.2144 81.0391C85.5877 80.9334 86.6442 81.1447 86.7498 81.4617C86.7498 81.8842 85.799 82.3068 84.4257 82.4125C84.0031 82.4125 83.6862 82.4125 83.3692 82.4125C83.0523 83.0463 82.6297 83.5745 81.9958 84.1028C83.1579 84.5253 84.5313 84.7366 85.9047 84.631C89.4966 84.4197 92.1377 82.3068 91.8207 79.877Z" fill="#F16522"/>
<path d="M80.7281 74.9117C80.7281 74.7004 80.6224 74.4891 80.5168 74.2778C80.5168 74.1722 80.4111 74.1722 80.4111 74.0665C80.3055 73.9609 80.1999 73.7496 80.0942 73.644C79.9886 73.5383 79.9886 73.5383 79.8829 73.4327C79.7773 73.327 79.6716 73.2214 79.4603 73.1158C79.3547 73.0101 79.3547 73.0101 79.2491 73.0101C79.0378 72.9045 78.9321 72.7988 78.7208 72.6932C78.7208 72.6932 78.6152 72.5875 78.5096 72.5875C78.4039 72.5875 78.2983 72.4819 78.087 72.4819C76.9249 73.327 75.3402 73.8553 73.4386 73.9609C73.5443 74.3835 73.5443 74.7004 73.4386 75.123C73.4386 75.2286 73.333 75.3343 73.333 75.4399C73.4386 75.4399 73.6499 75.4399 73.7556 75.4399C75.0233 75.4399 75.9741 75.7569 75.9741 76.1794V76.2851C75.7628 76.602 74.9177 76.8133 73.7556 76.8133C73.4386 76.8133 73.2274 76.8133 73.0161 76.7076C72.9104 76.7076 72.8048 76.7076 72.8048 76.7076C72.8048 76.7076 72.6991 76.8133 72.6991 76.9189C72.5935 77.0246 72.4878 77.1302 72.3822 77.2359C72.4878 77.3415 72.4878 77.3415 72.5935 77.3415C72.6991 77.5528 72.9104 77.6584 73.0161 77.8697C73.4386 78.398 73.7556 79.0318 73.8612 79.6657C74.0725 79.6657 74.1781 79.6657 74.3894 79.6657C74.4951 79.6657 74.6007 79.6657 74.7064 79.6657C75.0233 79.6657 75.3402 79.6657 75.7628 79.56C77.2418 79.3487 78.6152 78.7149 79.4603 77.8697C79.7773 77.6584 79.9886 77.3415 80.1999 77.0246C80.7281 76.3907 80.9394 75.6512 80.7281 74.9117Z" fill="#F16522"/>
<path d="M89.0741 73.7497C88.7571 72.7989 87.912 72.2706 86.8555 71.8481C85.7991 73.0102 84.1088 73.961 81.9959 74.4892C81.8903 74.4892 81.7846 74.4892 81.679 74.4892C81.679 74.5948 81.7846 74.5948 81.7846 74.7005C81.8903 75.123 81.8903 75.44 81.7846 75.8625C81.8903 75.8625 82.1016 75.7569 82.2072 75.7569C83.3693 75.5456 84.3201 75.6513 84.4257 75.9682C84.5314 76.2851 83.5806 76.8133 82.5241 77.0246C82.1016 77.1303 81.679 77.1303 81.362 77.1303C81.2564 77.2359 81.2564 77.3416 81.1508 77.4472C81.8903 77.8698 82.5241 78.398 82.9467 79.0319C83.5806 79.0319 84.3201 78.9262 85.0596 78.7149C88.0176 77.7641 89.8136 75.5456 89.0741 73.7497Z" fill="#F16522"/>
<path d="M78.8265 68.7844C78.8265 68.7844 78.7209 68.7844 78.8265 68.7844C78.7209 68.5731 78.6153 68.3618 78.5096 68.1505C78.5096 68.1505 78.5096 68.1505 78.5096 68.0449C78.404 67.8336 78.1927 67.7279 78.087 67.5167L77.9814 67.411C77.7701 67.3054 77.5588 67.0941 77.3475 66.9884C77.3475 66.9884 77.2419 66.9884 77.2419 66.8828C77.0306 66.7772 76.7137 66.5659 76.5024 66.4602H76.3967C76.0798 66.3546 75.8685 66.2489 75.5516 66.1433H75.4459C75.129 66.0376 74.8121 66.0376 74.4951 65.932H74.3895C74.0726 65.932 73.65 65.8264 73.2274 65.8264C73.0161 65.8264 72.9105 65.8264 72.6992 65.8264C71.6428 65.8264 70.692 65.932 69.8468 66.1433C70.4807 67.0941 70.692 68.0449 70.5863 68.9957C70.9032 68.9957 71.3258 68.9957 71.7484 68.9957C72.9105 69.1013 73.8613 69.5239 73.7556 69.8408C73.7556 70.2634 72.6992 70.369 71.5371 70.2634C71.0089 70.1578 70.5863 70.0521 70.1637 69.9465V70.0521C71.0089 70.4747 71.854 70.8973 72.3823 71.5311C72.5935 71.7424 72.8048 72.0594 73.0161 72.3763C73.1218 72.4819 73.2274 72.6932 73.3331 72.7989C74.1782 72.6932 74.9177 72.5876 75.5516 72.3763C75.7629 72.2706 75.9742 72.2706 76.1854 72.165C76.3967 72.0594 76.608 71.9537 76.8193 71.8481H76.925H76.8193C77.2419 71.6368 77.6645 71.3198 77.9814 71.1086C78.087 71.0029 78.1927 70.8973 78.2983 70.7916C78.404 70.686 78.404 70.5803 78.5096 70.4747C78.6153 70.2634 78.8265 69.9465 78.8265 69.7352C78.8265 69.6295 78.9322 69.4183 78.9322 69.207C78.9322 69.207 78.8265 68.9957 78.8265 68.7844Z" fill="#F16522"/>
<path d="M86.9612 68.3618C86.8555 68.1505 86.7499 67.9392 86.6442 67.728C86.6442 67.6223 86.5386 67.6223 86.5386 67.5167C86.4329 67.411 86.3273 67.1997 86.116 67.0941C86.0104 67.0941 86.0104 66.9885 85.9047 66.9885C85.6934 66.7772 85.4821 66.6715 85.2708 66.5659H85.1652C84.9539 66.4602 84.7426 66.3546 84.4257 66.2489C84.3201 66.2489 84.2144 66.2489 84.2144 66.1433C84.0031 66.0377 83.6862 66.0377 83.4749 65.932C83.3693 65.932 83.3693 65.932 83.2636 65.932C82.9467 65.8264 82.6297 65.8264 82.2072 65.8264C81.8902 65.8264 81.679 65.8264 81.362 65.8264C81.2564 65.8264 81.0451 65.8264 80.9394 65.8264C80.5169 65.8264 80.0943 65.932 79.6717 66.0377C79.2491 66.1433 78.7209 66.2489 78.2983 66.4602C79.3548 67.1997 79.883 68.2562 79.883 69.3126V69.4183C79.9886 69.4183 80.0943 69.4183 80.1999 69.3126C81.362 69.1013 82.4185 69.3126 82.4185 69.6296C82.5241 69.9465 81.5733 70.4747 80.4112 70.686C80.0943 70.686 79.7774 70.7916 79.4604 70.7916C79.3548 71.0029 79.1435 71.3199 78.9322 71.5311C79.883 71.9537 80.7282 72.5876 81.1507 73.4327C81.2564 73.4327 81.4677 73.4327 81.5733 73.3271C85.1652 72.6932 87.4894 70.4747 86.9612 68.3618Z" fill="#F16522"/>
<path d="M66.5729 71.7424C66.3613 71.8482 66.1497 71.8482 65.8323 71.954C66.1497 71.8482 66.3613 71.7424 66.5729 71.7424Z" fill="#F16522"/>
<path d="M67.5234 71.3199C67.3118 71.4257 67.1002 71.5314 66.9944 71.5314C67.1002 71.5314 67.3118 71.4257 67.5234 71.3199Z" fill="#F16522"/>
<path d="M68.2628 70.7916C68.157 70.8974 67.9454 71.0032 67.8396 71.109C67.9454 71.109 68.0512 71.0032 68.2628 70.7916Z" fill="#F16522"/>
<path d="M66.3606 75.7569C66.3606 76.4964 66.0436 77.2359 65.7267 77.8697C65.8323 77.8697 66.0436 77.9754 66.1493 77.9754C66.4662 77.9754 66.8888 78.081 67.2057 78.081C67.417 78.081 67.5226 78.081 67.7339 78.081C67.9452 78.081 68.1565 78.081 68.3678 78.081C68.4734 78.081 68.6847 78.081 68.7904 77.9754C69.0017 77.9754 69.2129 77.9754 69.3186 77.8697C69.4242 77.8697 69.6355 77.7641 69.7412 77.7641C69.9524 77.6585 70.0581 77.6585 70.2694 77.5528C70.375 77.5528 70.4807 77.4472 70.692 77.4472C70.7976 77.4472 70.7976 77.3415 70.9032 77.3415C71.0089 77.3415 71.0089 77.2359 71.1145 77.2359C71.2202 77.1302 71.3258 77.1302 71.4315 77.0246C71.5371 76.9189 71.6428 76.8133 71.7484 76.7077C71.854 76.602 71.854 76.602 71.9597 76.4964C72.0653 76.3907 72.171 76.2851 72.2766 76.0738C72.2766 75.9682 72.3823 75.9682 72.3823 75.8625C72.4879 75.6512 72.5935 75.4399 72.5935 75.123C72.8048 73.5383 71.5371 72.0593 69.5299 71.2142C68.6847 72.165 67.417 72.7988 65.938 73.0101C66.1493 73.3271 66.2549 73.644 66.3606 73.9609C66.6775 73.9609 67.1001 73.9609 67.5226 74.0666C68.6847 74.2778 69.5299 74.8061 69.5299 75.2286C69.4242 75.6512 68.3678 75.7569 67.2057 75.4399C66.9944 75.4399 66.7831 75.3343 66.6775 75.2286C66.6775 75.3343 66.6775 75.3343 66.6775 75.4399C66.4662 75.5456 66.3606 75.6512 66.3606 75.7569Z" fill="#F16522"/>
<path d="M64.142 70.7916C64.5646 71.2142 64.9871 71.5311 65.3041 71.9537C65.4097 71.9537 65.5154 71.9537 65.621 71.9537C65.7266 71.9537 65.8323 71.9537 65.9379 71.848C66.1492 71.848 66.3605 71.7424 66.6774 71.6368C66.7831 71.6368 66.8887 71.5311 66.9944 71.5311C67.2057 71.4255 67.4169 71.3198 67.5226 71.3198C67.6282 71.2142 67.7339 71.2142 67.8395 71.1085C68.0508 71.0029 68.1565 70.8973 68.2621 70.7916C68.2621 70.7916 68.2621 70.7916 68.3677 70.686L68.4734 70.5803C68.579 70.4747 68.7903 70.2634 68.896 70.1577C68.896 70.0521 69.0016 70.0521 69.0016 69.9465C69.0016 69.9465 69.0016 69.9465 69.0016 69.8408C69.1073 69.6295 69.2129 69.4182 69.3185 69.2069C69.8468 66.9884 67.6282 64.6643 64.142 63.8191C63.7194 63.7135 63.2968 63.6078 62.8743 63.6078C62.4517 63.6078 62.1347 63.6078 61.7122 63.6078C61.6065 63.6078 61.6065 63.6078 61.5009 63.6078C61.2896 63.6078 61.1839 63.6078 60.9727 63.7135C61.7122 64.6643 62.1347 65.8263 62.2404 67.0941C62.663 67.0941 63.1912 67.1997 63.7194 67.3054C65.0928 67.6223 66.1492 68.2562 66.0436 68.5731C65.9379 68.9957 64.6702 69.1013 63.2968 68.7844C62.8743 68.6787 62.5573 68.5731 62.1347 68.4674C62.0291 68.7844 62.0291 69.2069 61.9235 69.5239C62.346 69.7352 62.7686 69.8408 63.0855 70.0521C63.4025 70.2634 63.825 70.4747 64.142 70.7916Z" fill="#F16522"/>
</svg>
