<svg width="155" height="155" viewBox="0 0 155 155" fill="none" xmlns="http://www.w3.org/2000/svg">
<path d="M79.1816 120.566H77.0548C76.7003 120.566 76.464 120.446 76.3458 120.326C76.1095 120.086 75.9914 119.966 75.9914 119.727C75.9914 119.487 76.1095 119.247 76.2277 119.127C76.3458 119.007 76.7003 118.888 76.9366 118.888H79.0634C79.4179 118.888 79.6542 119.007 79.7723 119.127C79.8905 119.247 80.0086 119.487 80.0086 119.727C80.0086 119.966 79.8905 120.206 79.7723 120.326C79.7723 120.446 79.4179 120.566 79.1816 120.566ZM72.8012 123.682C72.8012 124.041 72.9193 124.401 73.0375 124.64C73.2738 124.88 73.5101 125 73.7464 125C74.1009 125 74.3372 124.88 74.4553 124.64C74.6916 124.401 74.6916 124.161 74.6916 123.682V115.772C74.6916 115.412 74.5735 115.052 74.4553 114.813C74.219 114.573 73.9827 114.453 73.7464 114.453C73.5101 114.453 73.1556 114.573 73.0375 114.813C72.8012 115.052 72.8012 115.292 72.8012 115.772V123.682ZM64.4121 115.772C64.4121 115.412 64.2939 115.052 64.1758 114.813C63.9395 114.573 63.7032 114.453 63.4669 114.453C63.1124 114.453 62.8761 114.573 62.7579 114.813C62.5216 115.052 62.5216 115.292 62.5216 115.772V123.682C62.5216 124.041 62.6398 124.401 62.7579 124.64C62.9942 124.88 63.2305 125 63.4669 125C63.7032 125 64.0576 124.88 64.1758 124.64C64.4121 124.401 64.4121 124.161 64.4121 123.682V120.326H68.7839V123.682C68.7839 124.041 68.902 124.401 69.0202 124.64C69.2565 124.88 69.4928 125 69.7291 125C70.0836 125 70.3199 124.88 70.438 124.64C70.6744 124.401 70.6744 124.161 70.6744 123.682V115.772C70.6744 115.412 70.5562 115.052 70.438 114.813C70.2017 114.573 69.9654 114.453 69.7291 114.453C69.3746 114.453 69.1383 114.573 69.0202 114.813C68.7839 115.052 68.7839 115.292 68.7839 115.772V118.648H64.4121V115.772ZM60.3948 121.524C60.3948 121.285 60.2767 121.045 60.1585 120.925C60.0403 120.805 59.804 120.685 59.5677 120.685C59.3314 120.685 59.0951 120.805 58.9769 120.925C58.8588 121.045 58.7406 121.285 58.6225 121.524C58.3862 122.124 58.1499 122.483 57.6772 122.843C57.3228 123.082 56.732 123.322 56.2594 123.322C55.6686 123.322 55.3141 123.202 54.8415 122.963C54.487 122.723 54.1326 122.363 53.8963 121.764C53.6599 121.285 53.5418 120.566 53.5418 119.846C53.5418 118.648 53.7781 117.809 54.2507 117.09C54.7233 116.491 55.4323 116.131 56.2594 116.131C56.732 116.131 57.2046 116.251 57.5591 116.491C57.9135 116.73 58.268 117.09 58.5043 117.569C58.6225 117.929 58.8588 118.049 58.9769 118.169C59.0951 118.288 59.3314 118.408 59.5677 118.408C59.804 118.408 60.0403 118.288 60.1585 118.169C60.2767 118.049 60.3948 117.809 60.3948 117.569C60.3948 117.09 60.2767 116.73 59.9222 116.251C59.5677 115.772 59.0951 115.412 58.5043 115.052C57.9135 114.693 57.2046 114.573 56.3775 114.573C55.6686 114.573 55.0778 114.693 54.487 114.933C53.8963 115.172 53.4236 115.532 52.951 116.011C52.4784 116.491 52.1239 116.97 52.0058 117.689C51.7695 118.288 51.6513 119.007 51.6513 119.846C51.6513 120.326 51.6513 120.805 51.7695 121.285C51.8876 121.764 52.0058 122.124 52.2421 122.483C52.4784 122.843 52.5965 123.202 52.951 123.562C53.1873 123.921 53.5418 124.161 53.8963 124.401C54.2507 124.64 54.6052 124.76 55.0778 124.88C55.5504 125 56.0231 125 56.4957 125C57.2046 125 57.7954 124.88 58.268 124.64C58.7406 124.401 59.2133 124.161 59.5677 123.801C59.9222 123.442 60.1585 123.082 60.2767 122.723C60.2767 122.243 60.3948 121.884 60.3948 121.524ZM47.5159 123.682C47.5159 124.041 47.634 124.401 47.7522 124.64C47.9885 124.76 48.2248 124.88 48.4611 124.88C48.8156 124.88 49.0519 124.76 49.17 124.521C49.4063 124.281 49.4063 124.041 49.4063 123.562V115.652C49.4063 115.292 49.2882 114.933 49.17 114.693C48.9337 114.453 48.6974 114.333 48.4611 114.333C48.1066 114.333 47.8703 114.453 47.7522 114.693C47.634 114.933 47.5159 115.292 47.5159 115.772V123.682ZM39.0086 115.772C39.0086 115.412 38.8905 115.052 38.7723 114.813C38.536 114.573 38.2997 114.453 38.0634 114.453C37.7089 114.453 37.4726 114.573 37.3545 114.813C37.1182 114.933 37 115.292 37 115.772V123.202C37 123.562 37 123.801 37 123.921C37 124.041 37 124.281 37.1182 124.401C37.2363 124.521 37.3545 124.64 37.4726 124.76C37.7089 124.88 37.8271 124.88 37.9452 124.88C38.2997 124.88 38.536 124.76 38.6542 124.521C38.8905 124.281 38.8905 124.041 38.8905 123.562V121.524L40.5447 119.966L42.9078 123.682C43.0259 123.802 43.1441 124.041 43.2622 124.281C43.3804 124.521 43.4986 124.64 43.7349 124.76C43.9712 124.76 44.2075 124.88 44.562 124.88C44.9164 124.88 45.1527 124.76 45.2709 124.64C45.389 124.521 45.5072 124.281 45.5072 124.041C45.5072 123.802 45.5072 123.682 45.389 123.442C45.2709 123.202 45.1527 122.963 44.9164 122.723L42.0807 118.648L44.562 116.251C44.9164 116.011 45.0346 115.652 45.0346 115.412C45.0346 115.172 44.9164 114.933 44.7983 114.813C44.562 114.693 44.4438 114.573 44.0893 114.573C43.853 114.573 43.7349 114.573 43.4986 114.693C43.3804 114.813 43.2622 114.933 43.0259 115.172L39.1268 119.367V115.772H39.0086ZM117.11 123.682C117.11 124.041 117.228 124.401 117.346 124.64C117.582 124.88 117.818 125 118.055 125C118.409 125 118.646 124.88 118.764 124.64C119 124.401 119 124.161 119 123.682V115.772C119 115.412 118.882 115.052 118.764 114.813C118.527 114.573 118.291 114.453 118.055 114.453C117.818 114.453 117.464 114.573 117.346 114.813C117.11 115.052 117.11 115.292 117.11 115.772V123.682ZM108.72 115.772C108.72 115.412 108.602 115.052 108.484 114.813C108.248 114.573 108.012 114.453 107.775 114.453C107.421 114.453 107.184 114.573 107.066 114.813C106.83 114.933 106.712 115.292 106.712 115.772V123.682C106.712 124.041 106.83 124.401 106.948 124.64C107.184 124.88 107.421 125 107.657 125C108.012 125 108.248 124.88 108.366 124.64C108.602 124.401 108.602 124.161 108.602 123.682V120.326H112.974V123.682C112.974 124.041 113.092 124.401 113.21 124.64C113.447 124.88 113.683 125 113.919 125C114.274 125 114.51 124.88 114.628 124.64C114.865 124.401 114.865 124.161 114.865 123.682V115.772C114.865 115.412 114.746 115.052 114.628 114.813C114.392 114.573 114.156 114.453 113.919 114.453C113.565 114.453 113.329 114.573 113.21 114.813C112.974 115.052 112.974 115.292 112.974 115.772V118.648H108.602V115.772H108.72ZM104.703 121.524C104.703 121.285 104.585 121.045 104.467 120.925C104.349 120.805 104.112 120.685 103.876 120.685C103.64 120.685 103.403 120.805 103.285 120.925C103.167 121.045 103.049 121.285 102.931 121.524C102.695 122.124 102.458 122.483 101.986 122.843C101.631 123.082 101.04 123.322 100.568 123.322C99.9769 123.322 99.6225 123.202 99.1499 122.963C98.7954 122.723 98.4409 122.363 98.2046 121.764C97.9683 121.285 97.8501 120.566 97.8501 119.846C97.8501 118.648 98.0865 117.809 98.5591 117.09C99.0317 116.491 99.7406 116.131 100.568 116.131C101.04 116.131 101.513 116.251 101.867 116.491C102.222 116.73 102.576 117.09 102.813 117.569C102.931 117.929 103.167 118.049 103.285 118.169C103.403 118.288 103.64 118.408 103.876 118.408C104.112 118.408 104.349 118.288 104.467 118.169C104.585 118.049 104.703 117.809 104.703 117.569C104.703 117.09 104.585 116.73 104.231 116.251C103.876 115.772 103.403 115.412 102.813 115.052C102.222 114.693 101.513 114.573 100.686 114.573C99.9769 114.573 99.3862 114.693 98.7954 114.933C98.2046 115.172 97.732 115.532 97.2594 116.011C96.7867 116.491 96.4323 116.97 96.3141 117.689C96.0778 118.288 95.9597 119.007 95.9597 119.846C95.9597 120.326 95.9597 120.805 96.0778 121.285C96.196 121.764 96.3141 122.124 96.5504 122.483C96.7867 122.843 96.9049 123.202 97.2594 123.562C97.4957 123.921 97.8501 124.161 98.2046 124.401C98.5591 124.64 98.9135 124.76 99.3862 124.88C99.6225 124.88 100.095 124.88 100.568 124.88C101.277 124.88 101.867 124.76 102.34 124.521C102.813 124.281 103.285 124.041 103.64 123.682C103.994 123.322 104.231 122.963 104.349 122.603C104.585 122.243 104.703 121.884 104.703 121.524ZM91.8242 123.682C91.8242 124.041 91.9424 124.401 92.0605 124.64C92.2968 124.88 92.5331 125 92.7695 125C93.1239 125 93.3602 124.88 93.4784 124.64C93.7147 124.401 93.7147 124.161 93.7147 123.682V115.772C93.7147 115.412 93.5965 115.052 93.4784 114.813C93.2421 114.573 93.0058 114.453 92.7695 114.453C92.5331 114.453 92.2968 114.573 92.0605 114.813C91.8242 115.052 91.8242 115.292 91.8242 115.772V123.682ZM83.317 115.772C83.317 115.412 83.1988 115.052 83.0807 114.813C82.8444 114.573 82.6081 114.453 82.3718 114.453C82.0173 114.453 81.781 114.573 81.6628 114.813C81.4265 115.052 81.4265 115.292 81.4265 115.772V123.202C81.4265 123.562 81.4265 123.801 81.4265 123.921C81.4265 124.041 81.4265 124.281 81.5447 124.401C81.6628 124.521 81.781 124.64 81.8991 124.76C81.8991 124.88 82.1354 124.88 82.2536 124.88C82.6081 124.88 82.8444 124.76 82.9625 124.521C83.1988 124.281 83.1988 124.041 83.1988 123.562V121.524L84.853 119.966L87.2161 123.682C87.3343 123.802 87.4524 124.041 87.5706 124.281C87.6888 124.521 87.8069 124.64 88.0432 124.76C88.1614 124.88 88.3977 125 88.7522 125C89.1066 125 89.3429 124.88 89.4611 124.76C89.5793 124.64 89.6974 124.401 89.6974 124.161C89.6974 123.921 89.6974 123.802 89.5793 123.562C89.4611 123.322 89.3429 123.082 89.1066 122.843L86.2709 118.768L88.7522 116.371C89.1066 116.131 89.2248 115.772 89.2248 115.532C89.2248 115.292 89.1066 115.052 88.9885 114.933C88.7522 114.813 88.634 114.693 88.2795 114.693C88.0432 114.693 87.9251 114.693 87.6888 114.813C87.5706 114.933 87.4524 115.052 87.2161 115.292L83.317 119.487V115.772ZM96.3141 53.6891C91.9424 48.5356 85.562 44.7004 77.7637 44.7004C77.0548 44.7004 76.2277 44.7004 75.5187 44.8202C67.8386 45.6592 60.3948 50.8127 56.6138 59.2022L56.9683 59.4419L56.6138 59.3221C55.4323 62.3184 54.7233 65.4345 54.7233 68.7903C54.7233 72.985 55.9049 77.2996 58.7406 81.9738C59.0951 82.0936 59.3314 82.2135 59.6859 82.3333C59.9222 82.4532 60.0403 82.4532 60.1585 82.573C56.8501 77.6592 55.5504 73.2247 55.5504 68.9101C55.5504 65.794 56.2594 62.6779 57.3228 59.8015C60.9856 51.6517 68.1931 46.7378 75.5187 46.0187C76.2277 45.8989 76.9366 45.8989 77.6455 45.8989C85.2075 45.8989 91.3516 49.6142 95.6052 54.5281C99.3862 59.0824 100.686 64.3558 100.686 69.03C100.686 71.6667 100.213 74.0637 99.6225 75.9813C97.2594 83.5318 90.17 89.4045 84.1441 91.0824L84.2622 91.5618L84.1441 91.0824C82.7262 91.5618 80.9539 91.8015 78.8271 91.8015C73.9827 91.8015 67.9568 90.2435 62.9942 85.5693L62.2853 86.0487C67.366 90.9625 73.8646 92.6404 78.8271 92.6404C80.9539 92.6404 82.9625 92.4008 84.3804 91.8015C90.7608 90.0037 97.8501 84.0112 100.45 76.221C101.159 74.1835 101.631 71.5468 101.631 68.7903C101.513 63.8764 100.213 58.3633 96.3141 53.6891ZM67.366 83.412H75.9914V80.5356H67.366V83.412ZM71.7378 62.6779C71.9741 62.9176 72.2104 63.0375 72.3285 63.1573C72.4467 63.2772 72.4467 63.2772 72.4467 63.2772C72.4467 63.397 72.3285 63.6367 72.0922 63.8764C71.9741 63.9963 71.8559 64.1161 71.7378 64.1161H71.6196C71.2651 64.236 71.147 64.7154 71.2651 65.0749C71.3833 65.3146 71.6196 65.4345 71.8559 65.4345C71.9741 65.4345 72.0922 65.4345 72.2104 65.3146C72.2104 65.3146 72.5648 65.0749 72.9193 64.8352C73.2738 64.4757 73.7464 63.9963 73.7464 63.1573V63.0375C73.6282 62.4382 73.2738 62.0787 73.0375 61.839C72.5648 61.3596 71.8559 61 71.3833 60.6405C71.147 60.4008 70.9107 60.2809 70.7925 60.1611C70.7925 60.0412 70.6744 60.0412 70.6744 60.0412C70.6744 60.0412 70.6744 60.0412 70.6744 59.9213C70.7925 59.6816 71.3833 59.0824 71.9741 58.603C72.2104 58.3633 72.5648 58.1236 72.8012 57.8839C72.9193 57.764 73.0375 57.6442 73.1556 57.5243C73.2738 57.4045 73.3919 57.1648 73.3919 56.9251C73.3919 56.3258 73.0375 55.8464 72.5648 55.6067C72.2104 55.367 71.7378 55.1273 71.2651 54.7678C70.9107 54.5281 70.5562 54.6479 70.3199 55.0075C70.0836 55.367 70.2017 55.7266 70.5562 55.9663C71.0288 56.206 71.3833 56.4457 71.6196 56.6854C71.7378 56.8052 71.7378 56.8052 71.8559 56.8052C71.7378 56.9251 71.6196 57.0449 71.3833 57.1648C71.0288 57.5243 70.438 57.8839 70.0836 58.3633C69.611 58.8427 69.2565 59.3221 69.1383 60.0412C69.1383 60.6405 69.4928 61.1199 69.8473 61.3596C70.5562 61.839 71.2651 62.1985 71.7378 62.6779ZM67.6023 62.0787C67.8386 62.3184 68.0749 62.4382 68.1931 62.5581C68.3112 62.6779 68.3112 62.6779 68.3112 62.6779C68.3112 62.7978 68.1931 63.0375 67.9568 63.2772C67.8386 63.397 67.7205 63.5169 67.6023 63.5169H67.4841C67.1297 63.7566 67.0115 64.1161 67.1297 64.4757C67.2478 64.7154 67.4841 64.8352 67.7205 64.8352C67.8386 64.8352 67.9568 64.8352 68.0749 64.7154C68.0749 64.7154 68.4294 64.4757 68.7839 64.236C69.1383 63.8764 69.611 63.397 69.611 62.5581V62.4382C69.4928 61.839 69.1383 61.4794 68.902 61.2397C68.4294 60.7603 67.7205 60.4008 67.2478 60.0412C67.0115 59.8015 66.7752 59.6817 66.6571 59.5618C66.6571 59.4419 66.5389 59.4419 66.5389 59.4419C66.5389 59.4419 66.5389 59.4419 66.5389 59.3221C66.6571 59.0824 67.2478 58.4831 67.8386 58.0037C68.0749 57.764 68.4294 57.5243 68.6657 57.2846C68.7839 57.1648 68.902 57.0449 69.0202 56.9251C69.1383 56.8052 69.2565 56.5655 69.2565 56.3258C69.2565 55.7266 68.902 55.2472 68.5476 55.0075C68.1931 54.7678 67.7205 54.5281 67.2478 54.1685C66.8934 53.9288 66.5389 54.0487 66.3026 54.4082C66.0663 54.7678 66.1844 55.1273 66.5389 55.367C67.0115 55.6067 67.366 55.8464 67.6023 56.0861C67.7205 56.206 67.7205 56.206 67.8386 56.206C67.7205 56.3258 67.6023 56.4457 67.366 56.5655C67.0115 56.9251 66.4207 57.2846 66.0663 57.764C65.5937 58.2434 65.2392 58.7228 65.121 59.4419C65.121 60.0412 65.4755 60.5206 65.83 60.7603C66.5389 61.3596 67.1297 61.7191 67.6023 62.0787ZM75.6369 62.0787C75.8732 62.3184 76.1095 62.5581 76.1095 62.6779C76.1095 62.7978 76.2277 62.7978 76.2277 62.7978C76.2277 62.9176 75.9914 63.1573 75.755 63.397C75.6369 63.5169 75.5187 63.5169 75.4006 63.6367H75.2824C74.928 63.7566 74.6916 64.1161 74.8098 64.4757C74.928 64.7154 75.1643 64.9551 75.4006 64.9551C75.5187 64.9551 75.6369 64.9551 75.755 64.9551C75.755 64.9551 76.1095 64.8352 76.5821 64.5955C76.9366 64.3558 77.5274 63.8764 77.6455 63.0375V62.9176C77.6455 62.3184 77.4092 61.9588 77.0548 61.5993C76.5821 61.1199 75.9914 60.6405 75.6369 60.1611C75.4006 59.9214 75.2824 59.6817 75.1643 59.5618C75.1643 59.4419 75.0461 59.4419 75.0461 59.4419C75.0461 59.4419 75.0461 59.4419 75.0461 59.3221C75.1643 59.0824 75.8732 58.603 76.5821 58.2434C76.9366 58.0037 77.1729 57.8839 77.5274 57.6442C77.6455 57.5243 77.7637 57.4045 77.8818 57.2846C78 57.1648 78.1182 57.0449 78.2363 56.6854C78.3545 56.0861 78 55.6067 77.6455 55.2472C77.2911 54.8876 76.9366 54.6479 76.5821 54.2884C76.2277 54.0487 75.8732 54.0487 75.6369 54.4082C75.4006 54.7678 75.4006 55.1273 75.755 55.367C76.2277 55.7266 76.5821 55.9663 76.8184 56.206C76.9366 56.3258 76.9366 56.3258 76.9366 56.4457C76.8184 56.5655 76.7003 56.6854 76.464 56.8052C75.9914 57.0449 75.5187 57.4045 74.928 57.764C74.4553 58.1236 73.9827 58.4831 73.7464 59.3221C73.6282 59.9213 73.9827 60.4008 74.219 60.7603C74.5735 61.1199 75.1643 61.7191 75.6369 62.0787ZM84.3804 83.412H89.9337V81.015H84.3804V83.412ZM76.5821 83.412H83.6715V80.7753H76.5821V83.412ZM92.7695 70.588C92.7695 70.9476 92.6513 71.3071 92.6513 71.6667C92.0605 74.3034 90.6427 76.7004 88.7522 78.4981C88.5159 78.7378 88.1614 78.9775 87.8069 79.2172C87.6888 79.3371 85.2075 80.7753 83.9078 81.1348C83.6715 81.2547 83.317 81.2547 83.0807 81.2547C84.1441 81.6142 85.2075 81.7341 86.389 81.7341C87.4524 81.7341 88.5159 81.6142 89.4611 81.2547C90.5245 80.8951 91.5879 80.4157 92.5331 79.8165C92.6513 79.8165 92.8876 79.6966 92.8876 79.5768C93.1239 79.3371 93.4784 79.0974 93.7147 78.8577C95.487 77.2996 96.7867 75.1423 97.2594 72.7453C97.3775 72.0262 97.4957 71.1873 97.4957 70.4682H92.7695V70.588ZM85.7983 69.1498C85.7983 69.6292 85.6801 70.1086 85.562 70.588C84.9712 73.3446 83.5533 75.8614 81.5447 77.779C81.4265 77.8989 81.3084 78.0187 81.1902 78.0187C80.9539 78.2584 80.5994 78.4981 80.3631 78.7378C80.3631 78.7378 80.3631 78.7378 80.245 78.7378C80.245 78.7378 79.8905 79.0974 79.6542 79.0974C79.4179 79.2172 79.1816 79.3371 78.9452 79.4569C78.9452 79.4569 78.9452 79.4569 78.8271 79.4569C77.8818 80.0562 76.9366 80.5356 75.8732 80.7753C75.755 80.7753 75.755 80.7753 75.6369 80.7753C76.9366 81.2547 78.2363 81.4944 79.6542 81.4944C80.5994 81.4944 81.4265 81.3745 82.2536 81.1348C82.4899 81.1348 82.8444 81.015 83.0807 81.015C84.2622 80.6554 85.4438 80.0562 86.5072 79.3371C86.7435 79.3371 87.5706 78.4981 87.8069 78.2584C89.6974 76.4607 91.1153 74.1835 91.7061 71.427C91.8242 71.0674 91.8242 70.7079 91.8242 70.2285C91.8242 69.7491 91.9424 69.2697 91.9424 68.7903H85.7983V69.1498ZM71.6196 79.0974C71.9741 78.9775 72.2104 78.7378 72.2104 78.2584C72.2104 77.779 71.8559 77.4195 71.3833 77.4195C70.7925 77.4195 70.3199 77.4195 69.7291 77.2996C69.611 77.2996 69.4928 77.2996 69.2565 77.2996C65.4755 76.7004 62.8761 74.4232 62.049 70.4682C61.9308 69.9888 61.4582 69.7491 61.1037 69.7491C60.6311 69.8689 60.3948 70.3483 60.513 70.7079C61.5764 76.1011 65.7118 79.0974 71.3833 79.0974C71.5014 79.2172 71.5014 79.2172 71.6196 79.0974C71.6196 79.2172 71.6196 79.2172 71.6196 79.0974ZM58.0317 67.7116H85.2075C85.2075 68.191 85.2075 68.6704 85.0893 69.1498C85.0893 69.6292 84.9712 70.1086 84.853 70.588C84.2622 73.3446 82.8444 75.8614 80.8357 77.779C80.7176 77.8989 80.5994 78.0187 80.4813 78.0187C80.245 78.2584 79.8905 78.4981 79.6542 78.7378C79.6542 78.7378 79.6542 78.7378 79.536 78.7378C79.536 78.7378 79.0634 79.0974 78.9452 79.0974C78.7089 79.2172 78.2363 79.4569 78.2363 79.4569H78.1182C78.1182 79.4569 76.2277 80.5356 75.1643 80.7753C75.0461 80.7753 75.0461 80.7753 74.928 80.7753C73.7464 81.1348 72.5648 81.2547 71.3833 81.2547C64.0576 81.4944 58.0317 75.382 58.0317 67.7116ZM95.8415 41.2247C95.8415 41.3446 95.8415 41.4644 95.7233 41.7041C95.6052 41.824 95.6052 41.9438 95.487 41.9438C95.3689 41.9438 95.2507 42.0637 95.1326 41.9438C94.8963 41.9438 94.7781 41.824 94.7781 41.824L94.3055 41.4644L94.8963 40.3858L95.487 40.7453C95.7233 40.8652 95.8415 40.985 95.8415 41.2247ZM50.4697 53.3296C50.5879 53.4494 50.5879 53.5693 50.4697 53.6891C50.4697 53.9288 50.3516 54.0487 50.3516 54.0487L50.1153 54.6479L49.0519 54.0487L49.2882 53.4494C49.4063 53.2097 49.5245 53.0899 49.6427 52.97C49.7608 52.97 49.879 52.97 50.1153 53.0899C50.3516 53.2097 50.4697 53.2097 50.4697 53.3296ZM70.2017 97.794C70.3199 98.1536 70.3199 98.5131 70.0836 99.1124C69.8473 99.7116 69.611 100.191 69.3746 100.311C69.1383 100.551 68.7839 100.551 68.4294 100.431C68.0749 100.311 67.8386 100.071 67.7205 99.8315C67.7205 99.4719 67.7205 99.1124 67.9568 98.5131C68.1931 97.9139 68.3112 97.5543 68.6657 97.3146C68.902 97.0749 69.2565 97.0749 69.4928 97.1948C69.8473 97.3146 70.0836 97.4345 70.2017 97.794ZM108.602 61.3596L108.484 60.7603L109.666 60.5206L109.784 61.1199C109.902 61.3596 109.784 61.5993 109.784 61.7191C109.666 61.839 109.548 61.9588 109.429 61.9588C109.311 61.9588 109.193 61.9588 109.075 61.9588C108.957 61.9588 108.839 61.839 108.839 61.7191C108.602 61.5993 108.602 61.4794 108.602 61.3596ZM89.3429 97.9139C89.5793 98.5131 89.5793 98.9925 89.5793 99.3521C89.4611 99.7116 89.2248 99.8315 88.9885 99.9513C88.634 100.071 88.3977 100.071 88.0432 99.8315C87.8069 99.5918 87.5706 99.2322 87.3343 98.633C87.098 98.0337 87.098 97.5543 87.2161 97.3146C87.3343 96.9551 87.5706 96.8352 87.8069 96.7154C88.1614 96.5955 88.3977 96.5955 88.7522 96.8352C88.8703 97.0749 89.1066 97.4345 89.3429 97.9139ZM100.568 44.9401C100.804 45.1798 100.922 45.4195 100.804 45.779C100.804 46.1386 100.568 46.4981 100.213 46.8577C99.7406 47.3371 99.3862 47.5768 99.0317 47.6966C98.6772 47.8165 98.4409 47.6966 98.2046 47.4569C97.9683 47.2172 97.8501 46.9775 97.9683 46.618C97.9683 46.2584 98.2046 45.8989 98.6772 45.5393C99.1499 45.0599 99.5043 44.8202 99.7406 44.8202C100.095 44.5805 100.331 44.7004 100.568 44.9401ZM114.274 76.8202C111.911 87.4869 105.885 93.7191 105.885 93.7191C105.885 93.7191 95.9597 106.423 78.5908 106.423C61.8127 106.423 52.8329 96.7154 49.5245 92.8802L47.7522 94.0787C47.7522 94.0787 47.9885 89.0449 48.2248 86.6479C48.4611 84.2509 49.17 79.3371 49.17 79.3371C49.17 79.3371 51.8876 80.6554 55.0778 81.9738C58.268 83.1723 61.5764 84.3708 61.5764 84.3708L59.804 85.5693L59.9222 85.6891C67.0115 93.5993 77.5274 93.7191 77.5274 93.7191C77.5274 93.7191 85.2075 94.3184 92.415 88.9251C99.6225 83.5318 101.159 76.9401 101.159 76.9401C101.159 76.9401 105.885 65.0749 97.732 53.9288C89.4611 42.9026 77.7637 43.7416 77.7637 43.7416C77.7637 43.7416 66.8934 43.0225 58.6225 53.2097C54.9597 57.764 52.951 64.236 53.4236 69.6292C53.5418 76.1011 56.732 81.015 56.732 81.015C56.732 81.015 52.4784 79.2172 48.1066 77.1798C47.1614 79.0974 46.4524 88.206 46.4524 88.206C46.3343 87.9663 43.7349 84.0112 42.317 79.5768C41.0173 75.2622 40.781 70.1086 40.781 69.7491C40.781 69.1498 39.9539 55.1273 50.1153 43.6217C60.3948 32.3558 73.8646 30.1985 81.8991 31.1573C89.9337 32.1161 100.686 36.191 107.539 46.0187C114.51 55.7266 116.637 66.1536 114.274 76.8202ZM50.7061 72.2659L50.4697 68.191L49.17 68.3109L49.2882 70.8277L48.1066 70.9476L47.9885 68.5506L46.8069 68.6704L46.9251 70.9476L45.9798 71.0674L45.7435 68.5506L44.4438 68.6704L44.6801 72.6255L50.7061 72.2659ZM50.9424 62.6779L47.7522 63.9963L45.0346 62.1985L44.9164 63.7566L46.6888 64.8352L44.7983 65.4345L44.562 67.1124L47.5159 65.9139L50.3516 67.9513L50.5879 66.2734L48.8156 65.0749L50.8242 64.3558L50.9424 62.6779ZM51.5331 60.7603L49.5245 60.1611L49.7608 59.4419C49.879 58.8427 49.879 58.3633 49.6427 58.0037C49.4063 57.6442 49.0519 57.4045 48.4611 57.1648C47.8703 57.0449 47.3977 56.9251 47.0432 57.1648C46.6888 57.2846 46.4524 57.6442 46.2161 58.1236L45.5072 60.5206L51.1787 62.3184L51.5331 60.7603ZM54.7233 53.3296L52.8329 53.2097C52.7147 53.2097 52.5965 53.2097 52.3602 53.2097C52.1239 53.2097 52.0058 53.2097 52.0058 53.3296C51.8876 53.3296 51.7695 53.4494 51.6513 53.5693C51.6513 53.3296 51.6513 53.2097 51.6513 52.97C51.6513 52.7303 51.5331 52.4906 51.2968 52.2509C51.1787 52.0112 50.9424 51.8914 50.5879 51.6517C50.2334 51.5318 49.879 51.412 49.6427 51.412C49.2882 51.412 49.0519 51.5318 48.9337 51.6517C48.6974 51.7715 48.5793 52.1311 48.3429 52.4906L47.2795 54.6479L52.4784 57.4045L53.1873 56.0861L51.1787 55.1273L51.2968 55.0075C51.415 54.8876 51.415 54.7678 51.5331 54.7678C51.6513 54.7678 51.7695 54.7678 52.0058 54.7678L54.0144 54.8876L54.7233 53.3296ZM57.4409 49.7341L56.3775 48.8951L54.8415 50.9326L53.8963 50.2135L55.3141 48.4157L54.3689 47.6966L52.951 49.4944L52.2421 48.8951L53.7781 46.9775L52.8329 46.1386L50.4697 49.2547L55.196 52.8502L57.4409 49.7341ZM60.2767 45.8989C60.1585 45.5393 60.0403 45.1798 59.804 44.9401C59.5677 44.7004 59.3314 44.5805 59.0951 44.4607C58.8588 44.3408 58.5043 44.3408 58.1499 44.3408C57.7954 44.4607 57.3228 44.5805 56.732 44.9401C56.4957 45.0599 56.3775 45.1798 56.2594 45.0599C56.1412 45.0599 56.0231 45.0599 56.0231 44.9401C55.9049 44.8202 55.9049 44.7004 55.9049 44.5805C55.9049 44.4607 56.0231 44.3408 56.1412 44.221C56.2594 44.1011 56.4957 43.9813 56.6138 43.9813C56.732 43.9813 56.9683 44.1011 57.2046 44.221L58.1499 43.1423C57.6772 42.7828 57.2046 42.5431 56.8501 42.5431C56.3775 42.5431 56.0231 42.7828 55.5504 43.1423C55.196 43.5019 54.9597 43.8614 54.8415 44.1011C54.7233 44.4607 54.7233 44.7004 54.8415 45.0599C54.9597 45.2996 55.0778 45.6592 55.3141 45.8989C55.6686 46.2584 56.0231 46.3783 56.3775 46.4981C56.732 46.4981 57.3228 46.3783 57.9135 46.1386C58.268 45.8989 58.5043 45.8989 58.7406 45.8989C58.8588 45.8989 59.0951 46.0187 59.0951 46.1386C59.2133 46.2584 59.2133 46.3783 59.2133 46.618C59.2133 46.7378 59.0951 46.9775 58.9769 47.0974C58.7406 47.3371 58.5043 47.3371 58.268 47.2172C58.1499 47.2172 57.9135 47.0974 57.6772 46.8577L56.732 47.9363C57.2046 48.2959 57.6772 48.6554 58.1499 48.6554C58.6225 48.7753 59.2133 48.5356 59.804 47.9363C60.1585 47.5768 60.3948 47.3371 60.513 46.9775C60.2767 46.618 60.2767 46.2584 60.2767 45.8989ZM64.2939 43.1423C64.2939 42.7828 64.1758 42.4232 63.9395 42.0637C63.8213 41.824 63.585 41.5843 63.3487 41.4644C63.1124 41.3446 62.7579 41.2247 62.5216 41.2247C62.1671 41.2247 61.6945 41.3446 61.1037 41.5843C60.8674 41.7041 60.6311 41.7041 60.6311 41.7041C60.513 41.7041 60.513 41.5843 60.3948 41.5843C60.2767 41.4644 60.2767 41.3446 60.2767 41.2247C60.2767 41.1049 60.3948 40.985 60.513 40.8652C60.6311 40.7453 60.8674 40.7453 60.9856 40.7453C61.1037 40.7453 61.3401 40.8652 61.4582 41.1049L62.5216 40.2659C62.1671 39.7865 61.6945 39.5468 61.3401 39.427C60.8674 39.3071 60.513 39.5468 59.9222 39.7865C59.4496 40.0262 59.2133 40.3858 59.0951 40.6255C58.9769 40.8652 58.8588 41.2247 58.8588 41.4644C58.8588 41.824 58.9769 42.0637 59.0951 42.3034C59.3314 42.6629 59.6859 42.9026 60.0403 43.0225C60.3948 43.1423 60.9856 43.0225 61.5764 42.9026C61.9308 42.7828 62.2853 42.7828 62.4035 42.7828C62.5216 42.7828 62.6398 42.9026 62.7579 43.0225C62.9942 43.2622 62.9942 43.382 62.9942 43.5019C62.9942 43.6217 62.8761 43.8614 62.6398 43.9813C62.4035 44.1011 62.1671 44.1011 61.9308 43.9813C61.8127 43.8614 61.5764 43.7416 61.4582 43.5019L60.3948 44.3408C60.7493 44.8202 61.2219 45.1798 61.5764 45.2996C62.049 45.4195 62.6398 45.2996 63.3487 44.8202C63.7032 44.5805 64.0576 44.3408 64.1758 43.9813C64.2939 43.8614 64.2939 43.5019 64.2939 43.1423ZM79.6542 37.3895C79.6542 36.6704 79.4179 36.191 79.0634 35.7116C78.5908 35.2322 78.2363 34.9925 77.6455 34.9925C77.1729 34.9925 76.7003 35.2322 76.3458 35.7116C75.9914 36.191 75.755 36.7903 75.755 37.3895C75.755 38.1086 75.9914 38.588 76.3458 39.0674C76.8184 39.6667 77.1729 39.9064 77.7637 39.7865C78.2363 39.7865 78.7089 39.5468 79.0634 39.0674C79.4179 38.588 79.6542 38.1086 79.6542 37.3895ZM63.2305 99.8315L66.1844 94.6779L64.7666 93.839L63.7032 95.6367L62.1671 94.6779L63.2305 92.8802L61.8127 92.0412L58.8588 97.1948L60.2767 98.0337L61.4582 95.8764L62.9942 96.8352L61.8127 98.9925L63.2305 99.8315ZM71.6196 97.1948C71.2651 96.5955 70.7925 96.1161 69.8473 95.8764C69.0202 95.6367 68.3112 95.6367 67.7205 96.1161C67.1297 96.4757 66.6571 97.1948 66.4207 98.1536C66.1844 98.8727 66.1844 99.4719 66.3026 99.9513C66.4207 100.431 66.6571 100.91 66.8934 101.27C67.2478 101.629 67.6023 101.869 68.1931 101.989C68.7839 102.109 69.2565 102.228 69.7291 102.109C70.2017 101.989 70.5562 101.749 70.9107 101.39C71.2651 101.03 71.5014 100.551 71.7378 99.8315C71.9741 98.633 71.9741 97.794 71.6196 97.1948ZM78.1182 97.3146L73.1556 96.8352L73.0375 98.2734L74.6916 98.3933L74.3372 102.948L75.9914 103.067L76.3458 98.5131L78 98.633L78.1182 97.3146ZM84.0259 98.5131C83.9078 97.9139 83.7896 97.5543 83.4352 97.1948C83.0807 96.9551 82.6081 96.8352 82.0173 96.8352L79.2997 97.1948L80.0086 103.187L81.6628 102.948L81.4265 100.67L82.3718 100.551C83.0807 100.431 83.5533 100.191 83.7896 99.8315C83.9078 99.5918 84.0259 99.1124 84.0259 98.5131ZM90.879 97.4345C90.5245 96.4757 90.0519 95.8764 89.4611 95.5169C88.8703 95.1573 88.0432 95.1573 87.2161 95.397C86.389 95.6367 85.7983 96.1161 85.562 96.8352C85.3256 97.5543 85.3256 98.2734 85.562 99.2322C85.7983 99.9513 86.1527 100.431 86.5072 100.79C86.8617 101.15 87.3343 101.39 87.6888 101.39C88.1614 101.509 88.634 101.39 89.2248 101.15C89.8156 100.91 90.17 100.67 90.5245 100.311C90.7608 99.9513 90.9971 99.4719 90.9971 98.9925C91.2334 98.633 91.1153 98.1536 90.879 97.4345ZM96.4323 97.6742L94.0692 93.839L95.487 93L94.7781 91.6817L90.5245 94.3184L91.2334 95.6367L92.6513 94.7978L95.0144 98.633L96.4323 97.6742ZM110.375 58.7228L104.703 60.1611L105.058 61.5993L107.421 61V61.1199C107.421 61.2397 107.421 61.3596 107.421 61.4794C107.421 61.5993 107.303 61.7191 107.066 61.839L105.53 63.0375L105.885 64.7154L107.421 63.6367C107.539 63.6367 107.657 63.5169 107.775 63.397C107.893 63.2772 108.012 63.1573 108.012 63.0375C108.012 62.9176 108.13 62.7978 108.13 62.5581C108.248 62.7978 108.366 62.9176 108.484 63.0375C108.72 63.1573 108.839 63.2772 109.193 63.397C109.429 63.397 109.784 63.397 110.02 63.397C110.375 63.2772 110.729 63.1573 110.847 62.9176C111.084 62.6779 111.202 62.4382 111.202 62.1985C111.202 61.9588 111.202 61.5993 111.084 61.1199L110.375 58.7228ZM96.5504 42.9026C96.7867 42.7828 97.0231 42.5431 97.1412 42.3034C97.3775 41.9438 97.4957 41.7041 97.4957 41.3446C97.4957 40.985 97.4957 40.7453 97.2594 40.6255C97.1412 40.3858 96.7867 40.1461 96.4323 39.9064L94.3055 38.588L91.1153 43.6217L92.2968 44.4607L93.5965 42.4232L93.7147 42.5431C93.8329 42.6629 93.951 42.6629 93.951 42.9026C93.951 43.0225 93.951 43.1423 93.951 43.382L93.7147 45.2996L95.1326 46.1386L95.487 44.3408C95.487 44.221 95.487 44.1011 95.487 43.8614C95.487 43.6217 95.487 43.5019 95.487 43.5019C95.487 43.382 95.3689 43.2622 95.2507 43.1423C95.487 43.2622 95.6052 43.2622 95.8415 43.2622C96.0778 43.1423 96.3141 43.0225 96.5504 42.9026ZM99.8588 48.8951C100.331 48.6554 100.804 48.2959 101.277 47.8165C101.986 47.0974 102.34 46.3783 102.34 45.779C102.34 45.0599 102.104 44.4607 101.631 43.9813C101.04 43.382 100.45 43.2622 99.7406 43.2622C99.0317 43.382 98.3228 43.7416 97.732 44.4607C97.2594 44.9401 96.9049 45.4195 96.7867 45.8989C96.6686 46.3783 96.5504 46.8577 96.6686 47.2172C96.7867 47.5768 97.0231 48.0562 97.3775 48.4157C97.732 48.7753 98.2046 49.015 98.5591 49.015C99.0317 49.1348 99.3862 49.015 99.8588 48.8951ZM101.277 53.0899L104.939 50.4532L105.767 51.6517L106.948 50.8127L104.349 47.0974L103.167 47.9363L103.994 49.1348L100.331 51.7715L101.277 53.0899ZM102.931 55.8464L103.876 55.6067L104.585 57.1648L103.758 57.764L104.349 59.2022L108.957 55.0075L108.248 53.5693L102.104 54.4082L102.931 55.8464ZM108.012 81.4944C107.775 80.8951 107.303 80.5356 106.712 80.2959C106.121 80.0562 105.53 79.9363 104.939 80.0562C104.349 80.176 103.994 80.5356 103.758 81.015C103.522 81.4944 103.522 81.9738 103.758 82.573C103.994 83.1723 104.467 83.5318 105.058 83.7715C105.648 84.0112 106.239 84.1311 106.83 84.0112C107.421 83.8914 107.775 83.5318 108.012 83.0524C108.248 82.4532 108.248 81.9738 108.012 81.4944ZM111.793 69.8689L111.674 68.191L109.784 67.3521L111.793 66.2734L111.674 64.5955L108.366 66.633L105.885 66.7528V68.191L108.366 68.0712L111.793 69.8689ZM48.4611 58.8427C48.5793 58.9625 48.5793 59.2022 48.4611 59.4419L48.3429 59.8015L47.0432 59.4419L47.1614 58.9625C47.2795 58.7228 47.3977 58.4831 47.5159 58.4831C47.634 58.4831 47.8703 58.4831 47.9885 58.4831C48.2248 58.603 48.3429 58.603 48.4611 58.8427ZM82.3718 98.7528C82.3718 98.9925 82.3718 99.1124 82.2536 99.2322C82.1354 99.3521 81.8991 99.4719 81.6628 99.4719H81.3084L81.1902 98.1536H81.6628C82.0173 98.1536 82.1354 98.1536 82.2536 98.2734C82.2536 98.3933 82.3718 98.5131 82.3718 98.7528ZM105.648 56.3258L105.176 55.367L107.303 54.8876L105.648 56.3258ZM78 29C56.4957 29 39.0086 46.7378 39.0086 68.6704C39.0086 77.2996 41.7262 85.2097 46.2161 91.6817L46.3343 90.3633C42.317 84.1311 39.8357 76.7004 39.8357 68.6704C39.8357 47.2172 56.9683 29.839 78 29.839C99.1499 29.839 116.164 47.2172 116.164 68.6704C116.164 90.1236 99.1499 107.502 78 107.502C66.6571 107.502 56.6138 102.468 49.5245 94.5581L48.8156 95.0375C56.0231 103.187 66.4208 108.341 78 108.341C99.6225 108.341 117.11 90.603 117.11 68.6704C117.11 46.7378 99.6225 29 78 29Z" fill="#EC1C24"/>
</svg>
