<svg width="155" height="155" viewBox="0 0 155 155" fill="none" xmlns="http://www.w3.org/2000/svg">
<path d="M137.771 81.8244C141.031 80.9467 143.163 77.8119 143.163 74.1755C143.163 69.0345 138.649 65.7743 131.376 65.7743C128.116 65.7743 123.226 65.8997 116.58 66.1505V97.6238C123.351 97.8746 128.367 98 131.878 98C139.527 98 144.292 94.6144 144.292 89.0972C144.166 85.7116 141.658 82.8276 137.771 81.8244ZM126.235 73.047H128.241C129.245 72.9216 129.746 72.9216 130.248 72.9216C132.881 72.9216 134.26 73.7994 134.26 75.6802C134.26 77.6865 132.755 78.9404 130.624 78.9404H126.361L126.235 73.047ZM130.624 90.7273C128.868 90.7273 127.364 90.6019 126.11 90.6019V84.7085H131C133.257 84.7085 134.762 85.837 134.762 87.4671C134.762 89.4733 133.382 90.7273 130.624 90.7273Z" fill="#323031"/>
<path d="M30.9373 81.9498L41.3448 65.8997H30.6865L20.6552 81.5737V65.8997H11V98H20.6552V82.2006L30.6865 98H41.3448L30.9373 81.9498Z" fill="#323031"/>
<path d="M59.2759 65.8997C56.768 65.8997 52.2539 66.0251 45.9843 66.2759V98H55.6395V90.4765H59.2759C68.3041 90.4765 73.8213 85.9624 73.8213 78.3135C73.9467 70.4138 68.4295 65.8997 59.2759 65.8997ZM60.1536 81.3229C58.3981 81.3229 56.8934 81.1975 55.6395 81.1975V75.3041H60.5298C62.7868 75.3041 64.2915 76.4326 64.2915 78.0627C64.2915 80.3198 62.6614 81.3229 60.1536 81.3229Z" fill="#323031"/>
<path d="M36.8307 81.9498L41.3448 88.9718V74.9279L36.8307 81.9498Z" fill="#323031"/>
<path d="M110.937 73.7994C111.313 75.3041 111.439 76.8088 111.439 78.5643C111.313 79.9436 111.188 81.1975 110.812 82.4514V82.5768C110.812 82.7022 110.686 82.7022 110.686 82.8276C110.686 82.8276 110.686 82.953 110.561 82.953C110.436 83.3292 110.31 83.7053 110.185 84.0815V84.2069C110.06 84.3323 110.06 84.4577 110.06 84.5831C107.677 89.7241 102.034 93.2351 95.2633 93.6113H95.1379C94.8871 93.6113 94.3855 93.6113 94.1348 93.6113C94.0094 93.6113 94.0094 93.6113 93.884 93.6113H93.7586C87.6144 93.6113 81.9717 90.9781 78.8369 86.5893C78.5862 86.3386 78.4608 85.837 78.21 85.5862C80.467 92.6082 86.9874 97.7492 94.8871 97.7492C104.542 97.7492 112.317 90.1003 112.317 80.5705C112.442 78.3135 111.815 75.931 110.937 73.7994Z" fill="#323031"/>
<path d="M109.182 73.1724C108.68 71.4169 107.803 69.9122 106.549 68.5329V68.6583C105.796 67.5298 104.919 66.5266 103.915 65.3981C101.658 62.6395 103.288 58.627 105.295 58H105.169C102.787 58 100.655 58.7524 99.1505 59.8809C97.7712 60.884 96.5173 62.2633 96.5173 64.395C96.5173 65.7743 96.8934 66.7774 97.5204 67.7806C97.7712 68.2821 98.2727 68.7837 98.6489 69.2853C100.028 70.6646 100.906 72.4201 100.906 74.4263C100.906 78.3135 97.6458 81.5737 93.6332 81.5737C93.6332 81.5737 93.6333 81.5737 93.5079 81.5737C93.0063 81.5737 92.5047 81.4483 92.0031 81.4483C91.8778 81.4483 91.627 81.3229 91.5016 81.3229C91.1254 81.1975 90.7492 81.0721 90.4985 80.9467C88.116 79.8182 86.3605 77.3103 86.3605 74.5517C86.3605 73.4232 86.6113 72.2947 87.1129 71.4169C87.489 70.2884 88.2414 69.1599 89.7461 67.906C90.2477 67.4044 90.8746 66.9028 91.7524 66.4013C85.859 66.4013 77.9593 69.9122 77.9593 79.442C77.9593 79.6928 77.9593 79.9436 78.0847 80.069C78.0847 80.3197 78.0847 80.5705 78.21 80.6959C78.4608 82.4514 78.9624 84.3323 80.2163 86.2132C82.9749 90.1003 87.9906 92.6081 93.884 92.6081C94.0094 92.6081 94.0094 92.6081 94.1348 92.6081C94.511 92.6081 94.8872 92.6081 95.2633 92.6081C101.533 92.232 106.674 88.8464 108.68 84.3323C108.806 84.2069 108.806 84.0815 108.806 83.9561C108.931 83.7053 109.056 83.3291 109.056 83.0784C109.056 82.953 109.182 82.953 109.182 82.8276C109.182 82.7022 109.307 82.7022 109.307 82.4514C109.558 81.3229 109.809 80.069 109.809 78.815C110.06 76.8088 109.683 74.9279 109.182 73.1724Z" fill="#D83F20"/>
<path d="M108.179 83.8307C108.179 83.7053 108.304 83.7053 108.304 83.7053C108.179 83.8307 108.179 84.0815 108.179 84.0815C108.053 84.0815 108.179 83.9561 108.179 83.8307Z" fill="#F05A2B"/>
</svg>
