<svg width="155" height="155" viewBox="0 0 155 155" fill="none" xmlns="http://www.w3.org/2000/svg">
<path d="M86.0103 85.5634C86.0103 85.4573 86.0103 85.4573 86.0103 85.5634C86.0103 85.3512 85.9042 85.3512 85.9042 85.3512C84.9493 85.0329 84.2067 84.1842 83.9945 83.2293C83.6762 81.6378 84.631 80.1524 86.2225 79.7281C86.5408 79.622 86.8591 79.7281 87.1774 79.7281C87.2834 79.7281 87.2834 79.7281 87.3895 79.622C87.3895 79.5159 87.3895 79.4098 87.3895 79.4098C87.0713 79.0915 86.8591 78.7732 86.6469 78.3488C86.6469 78.2427 86.4347 78.1366 86.3286 78.2427L82.403 80.4707C82.403 80.4707 82.2969 80.4707 82.2969 80.5768C81.9786 81.1073 81.8725 81.6378 81.8725 82.1683C81.9786 83.4415 82.7213 84.6085 83.8884 85.2451C84.1005 85.3512 84.3127 85.7756 84.1006 85.9878C83.2518 87.261 83.9945 88.4281 85.1615 89.0646C85.2676 89.0646 85.2676 89.0646 85.3737 89.0646L87.8139 87.6854C87.92 87.5793 87.92 87.3671 87.8139 87.3671C86.9652 87.1549 86.2225 86.5183 86.0103 85.5634Z" fill="#BE2026"/>
<path d="M95.6651 82.4866C95.559 82.0622 95.559 81.7439 95.559 81.3195C95.1346 80.4707 94.3919 79.8341 93.6493 79.4097C92.6944 78.8793 91.5273 78.7732 90.5725 78.9854C90.042 79.0915 89.5115 79.3036 89.0871 79.6219C88.7688 79.8341 88.5566 80.1524 88.3444 80.4707L88.2383 80.5768C87.8139 81.1073 87.3896 81.0012 86.9652 80.8951C86.753 80.8951 86.6469 80.789 86.4347 80.8951C86.0103 81.0012 85.5859 81.2134 85.3737 81.6378C85.1615 82.0622 85.0554 82.4866 85.1615 82.911C85.2676 83.4415 85.5859 83.8659 86.0103 84.078C86.1164 84.078 86.2225 84.1841 86.3286 84.1841C86.4347 84.1841 86.5408 84.2902 86.6469 84.2902C86.8591 84.3963 87.0713 84.6085 87.0713 84.9268C87.1774 85.3512 87.3896 85.7756 87.7078 85.9878C88.0261 86.2 88.3444 86.3061 88.7688 86.2C89.0871 86.0939 89.4054 85.9878 89.5115 85.6695C89.5115 85.6695 89.6176 85.5634 89.6176 85.4573C89.7237 85.2451 89.8298 85.0329 89.9359 84.9268C90.1481 84.8207 90.4664 84.8207 90.6785 84.9268C90.7846 84.9268 90.7846 84.9268 90.8907 84.9268C91.4212 84.9268 91.9517 84.7146 92.27 84.2902C92.5883 83.8659 92.6944 83.3354 92.5883 82.8049C92.4822 82.3805 92.27 81.9561 91.8456 81.7439C91.4212 81.5317 90.9968 81.4256 90.5725 81.5317C90.042 81.6378 89.6176 82.0622 89.5115 82.4866C89.4054 82.6988 89.5115 83.0171 89.7237 83.2293C89.9359 83.4415 89.9359 83.8659 89.7237 84.078C89.6176 84.1841 89.5115 84.2902 89.2993 84.2902C89.0871 84.2902 88.981 84.1841 88.8749 84.078C88.3444 83.5476 88.1322 82.911 88.3444 82.1683C88.5566 81.3195 89.4054 80.5768 90.2542 80.3646C91.8456 80.0463 93.331 81.0012 93.7554 82.5927C93.7554 82.8049 93.8614 83.0171 93.8614 83.2293C94.1797 83.3354 94.498 83.4415 94.7102 83.6537L95.7712 83.0171C95.7712 82.911 95.7712 82.6988 95.6651 82.4866Z" fill="#BE2026"/>
<path d="M91.6334 75.9085C91.5273 75.9085 91.3151 76.1207 91.103 76.2268C90.7847 76.5451 90.6786 77.0756 90.7847 77.5V77.6061C90.9969 77.6061 91.2091 77.6061 91.4212 77.6061C92.3761 77.6061 93.331 77.8183 94.1798 78.2427C94.6041 78.4549 95.0285 78.7732 95.4529 79.1976C95.6651 79.4098 95.8773 79.3037 95.9834 79.0915C96.1956 78.561 96.4078 78.1366 96.7261 77.7122L96.8322 77.6061L93.2249 75.4841C93.1188 75.378 92.9066 75.4841 92.8005 75.5902C92.6944 75.6963 92.5883 75.8024 92.3761 75.8024C92.27 75.8024 92.1639 75.8024 92.0578 75.8024C91.8456 75.9085 91.7395 75.9085 91.6334 75.9085Z" fill="#BE2026"/>
<path d="M97.3627 81.3195C97.5748 80.4707 98.3175 79.4098 99.3785 79.0915L98.1053 78.3488C97.9992 78.2427 97.787 78.3488 97.6809 78.4549C96.9383 79.5159 96.62 80.8951 96.8322 82.1683C96.8322 82.2744 96.8322 82.3805 96.9383 82.4866L97.1505 82.3805C97.1505 82.0622 97.2566 81.6378 97.3627 81.3195Z" fill="#BE2026"/>
<path d="M79.2201 84.6085C79.4323 85.7756 80.2811 86.3061 81.3421 86.7305C81.6604 86.8366 81.8726 87.1549 81.7665 87.4732C81.3421 88.5342 81.5543 89.9134 82.1908 90.8683C82.2969 90.9744 82.5091 91.0805 82.6152 90.9744L83.8884 90.2317C84.1006 90.1256 84.1006 89.9134 83.9945 89.7012C82.9335 88.7463 82.403 87.4732 82.9335 86.2C82.9335 86.0939 82.9335 85.9878 82.8274 85.8817C81.6604 84.9268 80.9177 83.6537 80.9177 82.1683C80.9177 82.1683 80.9177 82.1683 80.9177 82.0622C80.9177 81.85 80.7055 81.6378 80.4933 81.7439L79.7506 82.1683L79.6445 82.2744C79.114 82.911 79.0079 83.7598 79.2201 84.6085Z" fill="#BE2026"/>
<path d="M81.2362 91.2927C80.4935 90.2317 80.2813 88.9585 80.4935 87.6854C80.4935 87.5793 80.4935 87.4732 80.3874 87.4732C79.2204 86.9427 78.3716 86.0939 78.1594 84.7146C78.1594 84.5024 78.0533 84.5024 78.0533 84.5024V88.5341C78.0533 88.5341 78.0533 88.5341 78.0533 88.6402C78.3716 89.489 78.9021 90.4439 79.3265 91.0805C79.5387 91.5049 79.8569 91.8232 80.1752 92.1415C80.2813 92.2476 80.3874 92.2476 80.4935 92.1415L81.2362 91.7171C81.2362 91.611 81.3423 91.3988 81.2362 91.2927Z" fill="#BE2026"/>
<path d="M78.3713 91.8232C78.2653 91.611 78.0531 91.3988 77.947 91.1866V93.4146L79.114 92.7781C78.9018 92.5659 78.6896 92.2476 78.3713 91.8232Z" fill="#BE2026"/>
<path d="M87.7078 77.8183C87.8139 78.1366 87.92 78.3488 88.1322 78.561C88.2383 78.6671 88.3444 78.6671 88.3444 78.561C88.7688 78.2427 89.1932 78.0305 89.6176 77.9244C89.7237 77.9244 89.7237 77.9244 89.8298 77.8183V77.7122C89.7237 77.2878 89.7237 76.9695 89.8298 76.5451C89.8298 76.3329 89.7237 76.2268 89.5115 76.3329L87.7078 77.3939C87.6018 77.3939 87.6017 77.5 87.6017 77.6061C87.7078 77.7122 87.7078 77.7122 87.7078 77.8183Z" fill="#BE2026"/>
<path d="M99.0602 80.3646C98.9541 80.5768 98.6358 81.0012 98.7419 81.6378L100.97 80.2585L100.015 79.7281C99.5907 79.7281 99.2724 80.1524 99.0602 80.3646Z" fill="#BE2026"/>
<path d="M88.1322 53.4159C88.8749 53.8402 89.6176 54.2646 91.1029 54.2646C92.5883 54.2646 93.4371 53.8402 94.0736 53.4159C94.7102 52.9915 95.3468 52.6732 96.62 52.6732C97.8931 52.6732 98.4236 52.9915 99.1663 53.4159C99.2724 53.522 99.3785 53.522 99.4846 53.628L100.439 53.0976C100.121 52.9915 99.909 52.7793 99.5907 52.6732C98.848 52.2488 98.1053 51.8244 96.62 51.8244C95.1346 51.8244 94.2858 52.2488 93.6493 52.6732C93.0127 53.0976 92.3761 53.4159 91.1029 53.4159C89.8298 53.4159 89.2993 53.0976 88.5566 52.6732C87.8139 52.2488 87.0713 51.8244 85.5859 51.8244C84.9493 51.8244 84.4189 51.9305 83.9945 52.0366L85.2676 52.7793C85.3737 52.7793 85.4798 52.7793 85.5859 52.7793C86.8591 52.6732 87.3896 53.0976 88.1322 53.4159Z" fill="#BE2026"/>
<path d="M96.62 54.9012C96.8321 54.9012 97.0443 54.9012 97.2565 54.9012L98.5297 54.1585C98.1053 53.9463 97.4687 53.8402 96.7261 53.8402C95.2407 53.8402 94.3919 54.2646 93.7554 54.689C93.1188 55.1134 92.4822 55.4317 91.209 55.4317C90.7847 55.4317 90.4664 55.4317 90.1481 55.3256L91.9517 56.3866C93.0127 56.2805 93.6493 55.8561 94.1797 55.5378C94.8163 55.2195 95.3468 54.9012 96.62 54.9012Z" fill="#BE2026"/>
<path d="M83.1462 46.8378C83.7828 46.4134 84.4194 46.0951 85.6925 46.0951C86.9657 46.0951 87.4962 46.4134 88.2388 46.8378C88.9815 47.2622 89.7242 47.6866 91.2095 47.6866C92.6949 47.6866 93.4376 47.2622 94.1803 46.8378L93.2254 46.3073C92.6949 46.5195 92.1644 46.7317 91.2095 46.7317C89.9364 46.7317 89.4059 46.4134 88.6632 45.989C87.9206 45.5646 87.1779 45.1402 85.6925 45.1402C84.2072 45.1402 83.3584 45.5646 82.7218 45.989C82.0852 46.4134 81.4487 46.7317 80.1755 46.7317C79.4328 46.7317 78.9024 46.6256 78.478 46.4134V47.4744C78.9024 47.5805 79.4328 47.6866 80.1755 47.6866C81.6609 47.7927 82.4035 47.2622 83.1462 46.8378Z" fill="#BE2026"/>
<path d="M82.934 40.472L81.9792 39.9415C81.5548 40.1537 81.0243 40.2598 80.1755 40.2598C79.4328 40.2598 78.9024 40.1537 78.478 39.9415V41.0024C78.9024 41.1085 79.4328 41.2146 80.1755 41.2146C81.4487 41.2146 82.1914 40.7902 82.934 40.472Z" fill="#BE2026"/>
<path d="M80.3877 38.9866L78.478 37.8195V38.6683C78.9024 38.7744 79.4328 38.8805 80.1755 38.8805C80.1755 38.9866 80.2816 38.9866 80.3877 38.9866Z" fill="#BE2026"/>
<path d="M85.5859 48.3232C86.8591 48.3232 87.3896 48.6415 88.1322 49.0658C88.8749 49.4902 89.6176 49.9146 91.1029 49.9146C92.5883 49.9146 93.4371 49.4902 94.0737 49.0658C94.7102 48.6415 95.3468 48.3232 96.5139 48.3232L95.1346 47.4744C94.498 47.6866 93.9676 47.8988 93.5432 48.2171C92.9066 48.6415 92.27 48.9598 90.9969 48.9598C89.7237 48.9598 89.1932 48.6415 88.4505 48.2171C87.7079 47.7927 86.9652 47.3683 85.4798 47.3683C83.9945 47.3683 83.1457 47.7927 82.5091 48.2171C81.8725 48.6415 81.236 48.9598 79.9628 48.9598C79.2201 48.9598 78.6896 48.8537 78.2653 48.6415V48.7476L80.2811 49.9146C81.5543 49.8085 82.2969 49.3841 82.9335 49.0658C83.7823 48.6415 84.3128 48.3232 85.5859 48.3232Z" fill="#BE2026"/>
<path d="M83.1462 42.4878C83.7828 42.1695 84.3133 41.8512 85.2682 41.7451L83.995 41.0024C83.4645 41.2146 83.0401 41.4268 82.7218 41.639C82.0853 42.0634 81.4487 42.3817 80.1755 42.3817C79.4328 42.3817 78.9024 42.2756 78.478 42.0634V43.1244C78.9024 43.2305 79.4328 43.3366 80.1755 43.3366C81.6609 43.3366 82.4035 42.9122 83.1462 42.4878Z" fill="#BE2026"/>
<path d="M85.5859 50.5512C86.8591 50.5512 87.3895 50.8695 88.1322 51.2939C88.8749 51.7183 89.6176 52.1427 91.1029 52.1427C92.5883 52.1427 93.4371 51.7183 94.0736 51.2939C94.7102 50.8695 95.3468 50.5512 96.6199 50.5512C97.8931 50.5512 98.4236 50.8695 99.1663 51.2939C99.8028 51.7183 100.652 52.1427 102.137 52.1427L102.667 51.8244L101.5 51.1878C100.758 51.0817 100.227 50.7634 99.6967 50.4451C98.9541 50.0207 98.2114 49.5963 96.726 49.5963C95.2407 49.5963 94.3919 50.0207 93.7553 50.4451C93.1188 50.8695 92.4822 51.1878 91.209 51.1878C89.9359 51.1878 89.4054 50.8695 88.6627 50.4451C87.92 50.0207 87.1774 49.5963 85.692 49.5963C84.2066 49.5963 83.3579 50.0207 82.7213 50.4451C82.5091 50.5512 82.2969 50.6573 82.0847 50.7634L83.0396 51.2939L83.1457 51.1878C83.7823 50.8695 84.3127 50.5512 85.5859 50.5512Z" fill="#BE2026"/>
<path d="M83.1464 44.7159C83.783 44.2915 84.4196 43.9732 85.6928 43.9732C86.9659 43.9732 87.4964 44.2915 88.2391 44.7159C88.9818 45.1402 89.7244 45.5646 91.2098 45.5646C91.422 45.5646 91.6342 45.5646 91.8464 45.5646L89.9366 44.5037C89.5122 44.3976 89.0879 44.1854 88.7696 43.9732C88.0269 43.5488 87.2842 43.1244 85.7989 43.1244C84.3135 43.1244 83.4647 43.5488 82.8282 43.9732C82.1916 44.3976 81.555 44.7159 80.2818 44.7159C79.5392 44.7159 79.0087 44.6098 78.5843 44.3976V45.4585C79.0087 45.5646 79.5392 45.6707 80.2818 45.6707C81.6611 45.5646 82.4038 45.1402 83.1464 44.7159Z" fill="#BE2026"/>
<path d="M77.9469 49.9146L64.3666 57.7659V73.4683L77.9469 81.3195L91.5273 73.4683V57.6598L77.9469 49.9146ZM90.7846 58.1902V72.9378L77.9469 80.3646L65.1093 72.9378V58.1902L77.9469 50.7634L90.7846 58.1902Z" fill="#BE2026"/>
<path d="M69.9897 85.5634C69.9897 85.4573 69.9897 85.4573 69.9897 85.5634C69.9897 85.3512 70.0958 85.3512 70.0958 85.3512C71.0507 85.0329 71.7934 84.1842 72.0056 83.2293C72.3238 81.6378 71.369 80.1524 69.7775 79.7281C69.4592 79.622 69.1409 79.7281 68.8227 79.7281C68.7166 79.7281 68.7166 79.7281 68.6105 79.622C68.6105 79.5159 68.6105 79.4098 68.6105 79.4098C68.9288 79.0915 69.1409 78.7732 69.3531 78.3488C69.3531 78.2427 69.5653 78.1366 69.6714 78.2427L73.597 80.4707C73.597 80.4707 73.7031 80.4707 73.7031 80.5768C74.0214 81.1073 74.1275 81.6378 74.1275 82.1683C74.0214 83.4415 73.2787 84.6085 72.1117 85.2451C71.8995 85.3512 71.6873 85.7756 71.8995 85.9878C72.7482 87.261 72.0056 88.4281 70.8385 89.0646C70.7324 89.0646 70.7324 89.0646 70.6263 89.0646L68.1861 87.6854C68.08 87.5793 68.08 87.3671 68.1861 87.3671C69.0349 87.1549 69.7775 86.5183 69.9897 85.5634Z" fill="#BE2026"/>
<path d="M60.3349 82.4866C60.441 82.0622 60.441 81.7439 60.441 81.3195C60.8654 80.4707 61.6081 79.8341 62.3508 79.4097C63.3056 78.8793 64.4727 78.7732 65.4276 78.9854C65.958 79.0915 66.4885 79.3036 66.9129 79.6219C67.2312 79.8341 67.4434 80.1524 67.6556 80.4707L67.7617 80.5768C68.1861 81.1073 68.6104 81.0012 69.0348 80.8951C69.247 80.8951 69.3531 80.789 69.5653 80.8951C69.9897 81.0012 70.4141 81.2134 70.6263 81.6378C70.8385 82.0622 70.9446 82.4866 70.8385 82.911C70.7324 83.4415 70.4141 83.8659 69.9897 84.078C69.8836 84.078 69.7775 84.1841 69.6714 84.1841C69.5653 84.1841 69.4592 84.2902 69.3531 84.2902C69.1409 84.3963 68.9287 84.6085 68.9287 84.9268C68.8226 85.3512 68.6104 85.7756 68.2922 85.9878C67.9739 86.2 67.6556 86.3061 67.2312 86.2C66.9129 86.0939 66.5946 85.9878 66.4885 85.6695C66.4885 85.6695 66.3824 85.5634 66.3824 85.4573C66.2763 85.2451 66.1702 85.0329 66.0641 84.9268C65.8519 84.8207 65.5336 84.8207 65.3215 84.9268C65.2154 84.9268 65.2154 84.9268 65.1093 84.9268C64.5788 84.9268 64.0483 84.7146 63.73 84.2902C63.4117 83.8659 63.3056 83.3354 63.4117 82.8049C63.5178 82.3805 63.73 81.9561 64.1544 81.7439C64.5788 81.5317 65.0032 81.4256 65.4276 81.5317C65.958 81.6378 66.3824 82.0622 66.4885 82.4866C66.5946 82.6988 66.4885 83.0171 66.2763 83.2293C66.0641 83.4415 66.0641 83.8659 66.2763 84.078C66.3824 84.1841 66.4885 84.2902 66.7007 84.2902C66.9129 84.2902 67.019 84.1841 67.1251 84.078C67.6556 83.5476 67.8678 82.911 67.6556 82.1683C67.4434 81.3195 66.5946 80.5768 65.7458 80.3646C64.1544 80.0463 62.669 81.0012 62.2447 82.5927C62.2447 82.8049 62.1386 83.0171 62.1386 83.2293C61.8203 83.3354 61.502 83.4415 61.2898 83.6537L60.2288 83.0171C60.2288 82.911 60.2288 82.6988 60.3349 82.4866Z" fill="#BE2026"/>
<path d="M64.3666 75.9085C64.4727 75.9085 64.6849 76.1207 64.8971 76.2268C65.2154 76.5451 65.3215 77.0756 65.2154 77.5V77.6061C65.0032 77.6061 64.791 77.6061 64.5788 77.6061C63.6239 77.6061 62.6691 77.8183 61.8203 78.2427C61.3959 78.4549 60.9715 78.7732 60.5471 79.1976C60.3349 79.4098 60.1227 79.3037 60.0166 79.0915C59.8045 78.561 59.5923 78.1366 59.274 77.7122L59.1679 77.6061L62.7751 75.4841C62.8812 75.378 63.0934 75.4841 63.1995 75.5902C63.3056 75.6963 63.4117 75.8024 63.6239 75.8024C63.73 75.8024 63.8361 75.8024 63.9422 75.8024C64.1544 75.9085 64.2605 75.9085 64.3666 75.9085Z" fill="#BE2026"/>
<path d="M58.6374 81.3195C58.4252 80.4707 57.6825 79.4098 56.6216 79.0915L57.8947 78.3488C58.0008 78.2427 58.213 78.3488 58.3191 78.4549C59.0618 79.5159 59.3801 80.8951 59.1679 82.1683C59.1679 82.2744 59.1679 82.3805 59.0618 82.4866L58.8496 82.3805C58.8496 82.0622 58.7435 81.6378 58.6374 81.3195Z" fill="#BE2026"/>
<path d="M76.7799 84.6085C76.5677 85.7756 75.7189 86.3061 74.658 86.7305C74.3397 86.8366 74.1275 87.1549 74.2336 87.4732C74.658 88.5342 74.4458 89.9134 73.8092 90.8683C73.7031 90.9744 73.4909 91.0805 73.3848 90.9744L72.1116 90.2317C71.8994 90.1256 71.8994 89.9134 72.0055 89.7012C73.0665 88.7463 73.597 87.4732 73.0665 86.2C73.0665 86.0939 73.0665 85.9878 73.1726 85.8817C74.3397 84.9268 75.0823 83.6537 75.0823 82.1683C75.0823 82.1683 75.0823 82.1683 75.0823 82.0622C75.0823 81.85 75.2945 81.6378 75.5067 81.7439L76.2494 82.1683L76.3555 82.2744C76.886 82.911 76.9921 83.7598 76.7799 84.6085Z" fill="#BE2026"/>
<path d="M74.7641 91.2927C75.5067 90.2317 75.7189 88.9585 75.5067 87.6854C75.5067 87.5793 75.5068 87.4732 75.6128 87.4732C76.7799 86.9427 77.6287 86.0939 77.8409 84.7146C77.8409 84.5024 77.947 84.5024 77.947 84.5024V88.5341C77.947 88.5341 77.947 88.5341 77.947 88.6402C77.6287 89.489 77.0982 90.4439 76.6738 91.0805C76.4616 91.5049 76.1433 91.8232 75.825 92.1415C75.7189 92.2476 75.6128 92.2476 75.5067 92.1415L74.7641 91.7171C74.7641 91.611 74.658 91.3988 74.7641 91.2927Z" fill="#BE2026"/>
<path d="M77.6287 91.8232C77.7348 91.611 77.947 91.3988 78.0531 91.1866V93.4146L76.7799 92.7781C77.0982 92.5659 77.3104 92.2476 77.6287 91.8232Z" fill="#BE2026"/>
<path d="M68.2922 77.8183C68.1861 78.1366 68.08 78.3488 67.8678 78.561C67.7617 78.6671 67.6556 78.6671 67.6556 78.561C67.2312 78.2427 66.8068 78.0305 66.3825 77.9244C66.2764 77.9244 66.2764 77.9244 66.1703 77.8183V77.7122C66.2764 77.2878 66.2764 76.9695 66.1703 76.5451C66.1703 76.3329 66.2764 76.2268 66.4885 76.3329L68.2922 77.3939C68.2922 77.5 68.2922 77.5 68.2922 77.6061C68.2922 77.7122 68.2922 77.7122 68.2922 77.8183Z" fill="#BE2026"/>
<path d="M56.9398 80.3646C57.0459 80.5768 57.3642 81.0012 57.2581 81.6378L55.0301 80.2585L55.985 79.7281C56.4093 79.7281 56.7276 80.1524 56.9398 80.3646Z" fill="#BE2026"/>
<path d="M54.8182 79.1976C54.4999 78.9854 54.0755 78.8793 53.7572 78.7732V77.6061C54.4999 77.8183 55.2426 78.1366 55.9852 78.561L54.8182 79.1976Z" fill="#BE2026"/>
<path d="M55.8789 59.6756C55.5606 59.8878 55.3484 60.1 55.1362 60.4183C54.7118 59.8878 54.1813 59.5695 53.6508 59.2512V57.9781C54.4996 58.4024 55.2423 58.9329 55.8789 59.6756Z" fill="#BE2026"/>
<path d="M53.6508 60.7366C53.863 60.9488 54.0752 61.0549 54.2874 61.2671C54.0752 61.4793 53.863 61.7976 53.6508 62.0098V60.7366Z" fill="#BE2026"/>
<path d="M57.6828 70.8159C57.3645 71.0281 57.0462 71.1342 56.834 71.3464C55.9852 70.2854 54.9243 69.4366 53.7572 69.0122V67.8451C55.2426 68.3756 56.6218 69.4366 57.6828 70.8159Z" fill="#BE2026"/>
<path d="M59.8047 69.9671C59.4864 70.0732 59.1681 70.1793 58.8498 70.2854C57.4706 68.3756 55.6669 67.1024 53.7572 66.4658V65.2988C56.0913 65.9354 58.2133 67.5268 59.8047 69.9671Z" fill="#BE2026"/>
<path d="M53.7572 73.15C53.9694 73.2561 54.0755 73.4683 54.2877 73.5744C54.0755 73.7866 53.9694 73.9988 53.7572 74.211V73.15Z" fill="#BE2026"/>
<path d="M53.7572 71.6646V70.3915C54.4999 70.8158 55.2426 71.3463 55.8791 72.089C55.5609 72.3012 55.3487 72.5134 55.1365 72.8317C54.7121 72.3012 54.1816 71.9829 53.7572 71.6646Z" fill="#BE2026"/>
<path d="M60.7593 69.2244C61.2898 68.6939 62.0325 68.2695 62.6691 68.1634V69.4366C62.1386 69.4366 61.502 69.5427 60.9715 69.6488C60.9715 69.4366 60.8654 69.3305 60.7593 69.2244Z" fill="#BE2026"/>
<path d="M62.6695 59.5695C59.5927 59.6756 56.7281 61.3732 54.8184 64.2378C54.5001 64.1317 54.1818 64.0256 53.8635 63.9195C55.8794 60.6305 59.2745 58.5085 62.7756 58.4024L62.6695 59.5695Z" fill="#BE2026"/>
<path d="M58.5315 55.8561C59.062 56.3866 59.4864 56.9171 59.9108 57.5537C59.5925 57.6598 59.2742 57.7659 58.9559 57.8719C57.5767 55.9622 55.773 54.5829 53.7572 53.9463V52.9915L58.5315 55.8561Z" fill="#BE2026"/>
<path d="M57.7889 58.5085C57.4706 58.7207 57.1523 58.8268 56.9401 59.039C55.9852 57.872 54.9243 57.1293 53.7572 56.5988V55.4317C55.2426 55.9622 56.6218 57.0232 57.7889 58.5085Z" fill="#BE2026"/>
<path d="M57.7886 65.9354C59.0618 64.3439 60.8654 63.389 62.7752 63.2829V64.45C61.2898 64.5561 59.6984 65.2988 58.6374 66.5719C58.3191 66.3598 58.0008 66.1476 57.7886 65.9354Z" fill="#BE2026"/>
<path d="M59.3801 67.4207C60.2288 66.4659 61.502 65.8293 62.6691 65.7232V66.8902C61.7142 66.9963 60.6532 67.5268 60.0166 68.2695C59.8045 67.9512 59.5923 67.739 59.3801 67.4207Z" fill="#BE2026"/>
<path d="M62.6691 60.8427V62.0097C60.441 62.1158 58.213 63.2829 56.7276 65.1927C56.4094 64.9805 56.1972 64.8744 55.8789 64.6622C57.6825 62.4341 60.1227 60.9488 62.6691 60.8427Z" fill="#BE2026"/>
<path d="M55.985 77.0756C57.6825 74.7415 60.1227 73.3622 62.7751 73.2561V74.4232C60.5471 74.5293 58.3191 75.8024 56.8337 77.7122C56.5154 77.3939 56.1972 77.2878 55.985 77.0756C55.8789 77.0756 55.985 77.0756 55.985 77.0756Z" fill="#BE2026"/>
<path d="M53.7572 76.2268C55.8791 72.8317 59.1681 70.8158 62.6693 70.7097V71.8768C59.5925 71.9829 56.7279 73.6805 54.8182 76.5451C54.4999 76.439 54.0755 76.3329 53.7572 76.2268Z" fill="#BE2026"/>
<path d="M73.597 43.3366C73.7031 43.1244 74.0214 43.0183 74.2336 42.9122C74.8701 42.8061 75.5067 42.8061 76.2494 42.7C76.0372 41.9573 75.6128 41.8512 74.9762 41.8512C73.7031 41.8512 72.9604 42.2756 72.4299 43.3366C72.1116 43.9732 72.0055 44.3976 72.536 44.928C72.8543 44.3976 73.1726 43.8671 73.597 43.3366Z" fill="#BE2026"/>
<path d="M72.2177 42.3817C72.536 41.8512 72.536 41.4268 72.1116 41.0024L71.8994 41.1085C71.5811 41.639 71.2629 42.0634 70.9446 42.5939C70.8385 42.8061 70.5202 42.9122 70.308 43.0183C69.7775 43.1244 69.1409 43.1244 68.6104 43.1244L68.3983 43.2305C68.6104 43.9732 68.7165 43.9732 69.4592 43.9732C70.7324 44.0793 71.5811 43.5488 72.2177 42.3817Z" fill="#BE2026"/>
<path d="M76.0372 44.6098C76.5677 44.6098 77.0982 44.5037 77.5226 44.3976V43.2305C77.3104 43.4427 77.0982 43.5488 76.7799 43.5488C76.1433 43.5488 75.5067 43.6549 74.8701 43.6549C74.9762 44.3976 75.4006 44.6098 76.0372 44.6098Z" fill="#BE2026"/>
<path d="M76.9921 40.7902C76.6738 41.4268 76.5677 41.8512 77.0982 42.3817C77.2043 42.1695 77.3104 42.0634 77.4165 41.8512V40.1537C77.3104 40.2598 77.0982 40.472 76.9921 40.7902Z" fill="#BE2026"/>
<path d="M75.5067 39.8354C75.4006 40.0476 75.0823 40.1537 74.8702 40.2598C74.3397 40.3659 73.7031 40.3659 73.0665 40.3659L72.8543 40.472C73.0665 41.2146 73.1726 41.2146 73.9153 41.2146C75.1884 41.3207 76.0372 40.7902 76.6738 39.6232C76.9921 39.0927 76.9921 38.6683 76.5677 38.2439L76.3555 38.35C76.2494 38.8805 75.9311 39.411 75.5067 39.8354Z" fill="#BE2026"/>
<path d="M61.8203 56.1744L62.5629 56.5988C62.5629 56.2805 62.4568 56.0683 62.1385 55.75C62.0324 55.8561 61.9263 55.9622 61.8203 56.1744Z" fill="#BE2026"/>
<path d="M62.9873 47.7927C63.3056 47.2622 63.3056 46.8378 62.8812 46.4134L62.563 46.6256C62.3508 46.9439 62.0325 47.3683 61.8203 47.6866C61.502 48.2171 61.1837 48.4293 60.6532 48.4293C60.2288 48.4293 59.8044 48.4293 59.3801 48.5354L59.0618 48.7476C59.274 49.278 59.5923 49.4902 60.2288 49.4902C61.6081 49.4902 62.3508 48.9598 62.9873 47.7927Z" fill="#BE2026"/>
<path d="M58.3191 50.5512C58.6374 50.0207 58.7435 49.5963 58.3191 49.172L58.0008 49.3841C57.6825 49.8085 57.4703 50.2329 57.152 50.6573C56.9398 50.9756 56.7276 51.0817 56.3032 51.0817C55.7728 51.0817 55.3484 51.1878 54.8179 51.1878L54.4996 51.4C54.7118 52.0366 55.1362 52.0366 55.6667 52.1427C56.9398 52.1427 57.7886 51.7183 58.3191 50.5512Z" fill="#BE2026"/>
<path d="M58.5313 51.7183C58.213 52.3549 58.3191 52.6732 58.7435 53.2037C59.0617 52.6732 59.38 52.1427 59.6983 51.7183C59.9105 51.4 60.1227 51.1878 60.6532 51.1878C61.2898 51.1878 61.8203 51.0817 62.4568 51.0817C62.2446 50.2329 62.1385 50.2329 61.2898 50.2329C59.9105 50.0207 59.0617 50.5512 58.5313 51.7183Z" fill="#BE2026"/>
<path d="M69.0348 46.0951C69.1409 45.8829 69.4592 45.7768 69.6714 45.7768C70.308 45.6707 71.0507 45.6707 71.6872 45.5646C71.475 44.822 71.0507 44.7159 70.4141 44.6098C69.1409 44.6098 68.3983 45.0341 67.7617 46.0951C67.4434 46.7317 67.4434 47.1561 67.8678 47.5805C68.2922 47.1561 68.6104 46.6256 69.0348 46.0951Z" fill="#BE2026"/>
<path d="M67.5495 43.6549L67.2312 43.8671C66.9129 44.2915 66.7007 44.6098 66.4885 45.0342C66.1702 45.5646 65.8519 45.7768 65.2154 45.7768C64.791 45.7768 64.3666 45.7768 63.9422 45.8829L63.6239 46.0951C64.0483 46.9439 64.0483 46.9439 65.0032 46.7317C65.1093 46.7317 65.1093 46.7317 65.2154 46.7317C66.9129 47.05 67.2312 45.6707 67.7617 44.7159C67.9739 44.3976 67.7617 44.0793 67.5495 43.6549Z" fill="#BE2026"/>
<path d="M64.3666 48.8537C64.4727 48.6415 64.791 48.4293 65.0032 48.4293C65.6398 48.3232 66.2763 48.3232 66.9129 48.2171C66.7007 47.4744 66.3824 47.3683 65.6398 47.3683C64.3666 47.3683 63.6239 47.7927 63.0934 48.9598C62.669 49.7024 62.669 49.7024 63.1995 50.4451C63.6239 49.9146 63.9422 49.278 64.3666 48.8537Z" fill="#BE2026"/>
<path d="M63.0934 53.4159C61.8203 53.4159 61.0776 53.8402 60.441 55.0073C60.3349 55.1134 60.3349 55.2195 60.2288 55.3256L60.9715 55.75C61.1837 55.4317 61.3959 55.1134 61.6081 54.7951C61.7142 54.5829 62.0325 54.4768 62.2447 54.4768C62.8812 54.3707 63.6239 54.3707 64.2605 54.2646C64.1544 53.6281 63.8361 53.4159 63.0934 53.4159Z" fill="#BE2026"/>
<path d="M57.7886 53.6281C57.4703 52.7793 57.4703 52.7793 56.6215 52.7793C56.4093 52.7793 56.1971 52.7793 55.985 52.7793L57.4703 53.6281C57.5764 53.7342 57.6825 53.6281 57.7886 53.6281Z" fill="#BE2026"/>
<path d="M77.5226 47.8988V47.05C77.3104 47.05 77.0982 47.05 76.886 47.05C76.9921 47.6866 77.0982 47.7927 77.5226 47.8988Z" fill="#BE2026"/>
<path d="M75.6128 46.6256C75.7189 46.4134 76.0372 46.3073 76.2494 46.3073C76.6738 46.2012 77.0982 46.2012 77.5226 46.2012V45.3524C77.3104 45.3524 77.2043 45.2463 76.9921 45.2463C75.7189 45.2463 74.9763 45.6707 74.3397 46.8378C74.0214 47.4744 74.0214 47.8988 74.4458 48.3232C74.8702 47.7927 75.1884 47.1561 75.6128 46.6256Z" fill="#BE2026"/>
<path d="M66.7007 52.9915C66.2763 53.522 65.958 54.1585 65.6397 54.689C65.5336 54.9012 65.2154 55.0073 65.0032 55.1134C64.3666 55.2195 63.73 55.2195 63.0934 55.3256C63.3056 56.1744 63.4117 56.1744 64.2605 56.1744C64.4727 56.1744 64.6849 56.1744 64.8971 56.1744L66.5946 55.1134C66.7007 54.9012 66.8068 54.7951 66.9129 54.5829C67.2312 53.8402 67.2312 53.522 66.7007 52.9915Z" fill="#BE2026"/>
<path d="M75.9311 47.5805C75.7189 47.8988 75.4006 48.3232 75.1884 48.6415C74.8702 49.3841 74.2336 49.7024 73.4909 49.5963C73.0665 49.5963 72.6421 49.7024 72.2177 49.7024C72.4299 50.4451 72.7482 50.5512 73.3848 50.5512C73.597 50.5512 73.7031 50.5512 73.9153 50.5512L75.9311 49.3841C76.0372 49.278 76.1433 49.172 76.1433 48.9598C76.3555 48.4293 76.4616 48.111 75.9311 47.5805Z" fill="#BE2026"/>
<path d="M60.3349 53.8403C60.6532 53.2037 60.7593 52.8854 60.1227 52.3549C59.8045 52.7793 59.4862 53.2037 59.274 53.7342C59.0618 54.0524 58.9557 54.2646 58.6374 54.3707L59.5923 54.9012C59.8045 54.5829 60.1227 54.2646 60.3349 53.8403Z" fill="#BE2026"/>
<path d="M71.475 50.2329C71.3689 50.2329 71.3689 50.2329 71.2628 50.2329C70.9446 50.7634 70.5202 51.1878 70.308 51.7183C70.0958 52.1427 69.7775 52.2488 69.3531 52.2488C68.7165 52.2488 68.186 52.3549 67.5495 52.3549C67.8678 53.3098 67.8678 53.3098 68.8226 53.2037C68.9287 53.2037 68.9287 53.2037 69.0348 53.2037C69.1409 53.2037 69.247 53.2037 69.3531 53.2037L71.1568 52.1427C71.3689 51.8244 71.475 51.5061 71.6872 51.1878C71.8994 51.0817 71.5811 50.6573 71.475 50.2329Z" fill="#BE2026"/>
<path d="M66.3824 52.1427C66.4885 51.9305 66.8068 51.8244 67.019 51.7183C67.6556 51.6122 68.2922 51.6122 68.9287 51.5061C68.7165 50.6573 68.6104 50.6573 67.7617 50.6573C66.4885 50.6573 65.7458 51.0817 65.1093 52.2488C64.791 52.8854 64.791 53.3098 65.2154 53.7341C65.6397 53.2037 65.958 52.6732 66.3824 52.1427Z" fill="#BE2026"/>
<path d="M64.8971 51.0817C65.2154 50.4451 65.2154 50.1268 64.6849 49.5963C64.3666 50.1268 64.0483 50.6573 63.6239 51.1878C63.5178 51.4 63.1995 51.6122 62.8812 51.6122C62.2446 51.7183 61.6081 51.7183 60.8654 51.8244C61.0776 52.461 61.3959 52.6732 62.0324 52.6732C63.5178 52.7793 64.3666 52.2488 64.8971 51.0817Z" fill="#BE2026"/>
<path d="M69.5653 48.4293C69.8836 47.8988 69.9897 47.4744 69.4592 46.9439C69.1409 47.4744 68.7166 48.0049 68.3983 48.5354C68.1861 48.7476 67.9739 48.9598 67.6556 48.9598C67.019 49.0659 66.3824 49.0659 65.7458 49.172C65.8519 50.0207 66.2763 50.0207 66.9129 50.0207C68.1861 50.0207 68.9288 49.5963 69.5653 48.4293Z" fill="#BE2026"/>
<path d="M70.9446 49.3841C71.0507 49.172 71.2629 49.0659 71.4751 49.0659C72.1116 48.9598 72.8543 48.9598 73.4909 48.8537C73.2787 48.2171 73.0665 47.8988 72.3238 48.0049C71.1568 48.111 70.308 48.2171 69.7775 49.3841C69.3531 50.2329 69.247 50.1268 69.7775 51.0817C70.2019 50.4451 70.6263 49.9146 70.9446 49.3841Z" fill="#BE2026"/>
<path d="M74.1275 45.6707C74.4458 45.0342 74.4458 44.7159 73.9153 44.1854C73.4909 44.7159 73.1726 45.3524 72.8543 45.8829C72.7482 46.0951 72.4299 46.2012 72.2177 46.3073C71.5811 46.4134 70.9446 46.4134 70.308 46.4134C70.5202 47.2622 70.6263 47.2622 71.475 47.2622C72.6421 47.3683 73.597 46.9439 74.1275 45.6707Z" fill="#BE2026"/>
<path d="M96.4078 69.9671C96.7261 70.0732 97.0444 70.1793 97.3626 70.2854C98.7419 68.3756 100.546 67.1024 102.455 66.4658V65.2988C100.121 65.9354 97.8931 67.5268 96.4078 69.9671Z" fill="#BE2026"/>
<path d="M96.4078 57.5537C96.7261 57.6598 97.0444 57.7659 97.3626 57.8719C98.7419 55.9622 100.546 54.689 102.455 54.0524V52.8854C102.243 52.9915 102.031 52.9915 101.819 53.0976L99.0602 54.7951C97.9992 55.5378 97.1505 56.4927 96.4078 57.5537Z" fill="#BE2026"/>
<path d="M102.243 78.9854C102.349 78.9854 102.349 78.8793 102.455 78.8793V77.7122C101.713 77.9244 100.97 78.2427 100.333 78.6671L101.5 79.3037C101.819 79.1976 102.031 79.0915 102.243 78.9854Z" fill="#BE2026"/>
<path d="M99.0602 57.5537C98.848 57.7659 98.6358 58.0841 98.4236 58.2963C100.121 59.2512 101.607 60.6305 102.667 62.222V60.5244C101.607 59.4634 100.439 58.4024 99.0602 57.5537Z" fill="#BE2026"/>
<path d="M99.9089 56.811C100.97 57.4476 101.819 58.1902 102.667 59.039V57.5537C102.137 57.0232 101.5 56.4927 100.864 56.0683C100.439 56.2805 100.121 56.4927 99.9089 56.811Z" fill="#BE2026"/>
<path d="M102.561 56.0683V55.2195C102.243 55.3256 102.031 55.4317 101.819 55.5378C102.137 55.6439 102.349 55.8561 102.561 56.0683Z" fill="#BE2026"/>
<path d="M97.3626 74.211C96.9383 73.9988 96.5139 73.7866 96.0895 73.5744C95.3468 73.9988 94.6041 74.4232 93.9676 74.9537L95.0285 75.5902C95.6651 74.9537 96.4078 74.5293 97.3626 74.211Z" fill="#BE2026"/>
<path d="M95.0285 73.2561H94.9224C94.3919 73.15 93.9675 73.0439 93.4371 73.0439H93.331V74.211C93.8614 73.8927 94.3919 73.5744 94.9224 73.3622L95.0285 73.2561Z" fill="#BE2026"/>
<path d="M100.546 77.2878C100.333 76.9695 100.121 76.6512 99.8028 76.3329C99.1663 76.6512 98.5297 76.9695 97.9992 77.3939L99.1663 78.0305C99.5907 77.7122 100.015 77.5 100.546 77.2878Z" fill="#BE2026"/>
<path d="M99.1663 75.5902C98.848 75.2719 98.5297 75.0598 98.2114 74.8476C97.3626 75.1659 96.62 75.6963 95.8773 76.1207L96.9382 76.7573C97.5748 76.2268 98.3175 75.9085 99.1663 75.5902Z" fill="#BE2026"/>
<path d="M99.8029 69.2244C100.864 69.7549 101.819 70.4976 102.561 71.3463V69.9671C101.925 69.4366 101.288 69.0122 100.652 68.5878C100.333 68.6939 100.015 68.9061 99.8029 69.2244Z" fill="#BE2026"/>
<path d="M98.848 70.0732C98.6358 70.2854 98.4236 70.6037 98.2114 70.9219C99.909 71.7707 101.394 73.0439 102.561 74.6354V73.0439C101.5 71.7707 100.333 70.7098 98.848 70.0732Z" fill="#BE2026"/>
<path d="M101.607 67.9512C101.925 68.1634 102.243 68.3756 102.561 68.5878V67.6329L102.349 67.739C102.137 67.6329 101.925 67.739 101.607 67.9512Z" fill="#BE2026"/>
<path d="M99.1663 63.0707C98.9541 62.7524 98.6358 62.5402 98.3175 62.2219C96.4078 63.0707 94.8163 64.3439 93.4371 65.8293V67.739C94.7102 65.6171 96.7261 64.0256 99.1663 63.0707Z" fill="#BE2026"/>
<path d="M95.0285 69.5427C96.3017 67.4207 98.2114 65.7232 100.546 64.7683C100.333 64.45 100.121 64.1317 99.909 63.9195C97.3627 65.0866 95.2407 66.8902 93.9676 69.2244C94.2858 69.3305 94.7102 69.4366 95.0285 69.5427Z" fill="#BE2026"/>
<path d="M93.4371 60.5244L93.331 61.5854C93.8614 61.2671 94.2858 60.9488 94.8163 60.7366C94.3919 60.6305 93.9675 60.6305 93.4371 60.5244Z" fill="#BE2026"/>
<path d="M97.2566 61.6915C96.9383 61.3732 96.5139 61.2671 96.0895 61.0549C95.1346 61.4793 94.2858 62.1159 93.4371 62.7524V64.2378C94.498 63.1768 95.7712 62.328 97.2566 61.6915Z" fill="#BE2026"/>
<path d="M101.394 64.2378C101.713 64.1317 102.031 64.0256 102.349 63.9195C100.333 60.6305 96.9383 58.5085 93.4371 58.4024V59.5695C96.62 59.6756 99.4846 61.3732 101.394 64.2378Z" fill="#BE2026"/>
<path d="M93.4371 71.8768C96.5139 71.9829 99.3785 73.6805 101.288 76.5451V76.6512C101.606 76.5451 102.243 76.3329 102.243 76.3329C100.121 73.0439 96.8322 70.9219 93.331 70.8158L93.4371 71.8768Z" fill="#BE2026"/>
<path d="M77.8408 34L50.3618 49.9146V81.6378L77.8408 97.5524L105.32 81.6378V49.9146L77.8408 34ZM78.053 95.4305L52.3777 80.5768V50.8695L78.053 36.122L103.728 50.9756V80.6829L78.053 95.4305Z" fill="#BE2026"/>
<path d="M75.0828 56.3866V55.75H77.8413C77.7352 55.4317 77.6291 55.2195 77.523 54.9012L78.2657 54.7951C78.2657 55.0073 78.3718 55.2195 78.4779 55.5378C78.4779 55.6439 78.584 55.75 78.584 55.8561H80.9181V56.4927H79.9633C79.7511 57.5537 79.3267 58.4024 78.584 59.039C79.2206 59.4634 79.9633 59.7817 80.9181 59.9939C80.812 60.2061 80.5998 60.4183 80.4937 60.6305C79.4328 60.3122 78.584 59.8878 77.9474 59.5695C77.4169 59.8878 76.6743 60.3122 75.5072 60.7366C75.4011 60.5244 75.295 60.3122 75.0828 60.1C76.0377 59.8878 76.8865 59.4634 77.4169 59.1451C76.7804 58.5085 76.356 57.6598 76.0377 56.5988H75.0828V56.3866ZM77.9474 58.5085C78.584 57.978 78.9023 57.2354 79.1145 56.3866H76.7804C76.9926 57.2354 77.4169 57.978 77.9474 58.5085Z" fill="#BE2026"/>
<path d="M75.5067 64.2378V63.7073H80.3872V64.2378H79.7506V64.7683H80.7055V65.2988H79.7506V65.8293H80.3872V66.3598H78.1591V66.8902H80.7055V67.4207H78.1591V68.1634H77.5226V67.4207H74.9762V66.8902H77.5226V66.3598H75.2945V65.8293H75.9311V65.2988H74.8701V64.7683H75.9311V64.2378H75.5067ZM78.7957 63.4951V63.1768H77.3104V63.4951H76.6738V63.1768H75.2945V62.6463H76.6738V62.222H77.3104V62.6463H78.7957V62.222H79.4323V62.6463H80.8116V63.1768H79.4323V63.4951H78.7957ZM76.7799 64.2378V64.7683H77.6287V64.2378H76.7799ZM76.7799 65.2988V65.8293H77.6287V65.2988H76.7799ZM78.2652 64.2378V64.7683H79.114V64.2378H78.2652ZM78.2652 65.2988V65.8293H79.114V65.2988H78.2652Z" fill="#BE2026"/>
<path d="M75.5072 75.4842C75.295 75.272 75.1889 75.1659 75.0828 75.0598C75.295 74.6354 75.4011 74.3171 75.5072 73.8927C75.6133 73.5744 75.6133 72.9378 75.6133 72.3012V70.1793H78.0535L77.8413 69.7549H78.584C78.584 69.7549 78.584 69.861 78.6901 70.0732C78.6901 70.1793 78.6901 70.2854 78.6901 70.2854H80.9181V70.8159H76.0377V72.4073C76.0377 73.2561 76.0377 73.7866 75.9316 74.3171C75.8255 74.5293 75.7194 75.0598 75.5072 75.4842ZM76.1438 75.1659V74.7415H76.6743V74.4232H76.356V74.1049H76.6743V73.7866H76.356V73.4683H77.4169V73.7866H77.0987V74.1049H77.4169V74.4232H77.0987V74.7415H77.4169C77.4169 74.8476 77.4169 74.9537 77.4169 75.0598C77.3108 75.0598 77.0987 75.0598 76.7804 75.0598C76.4621 75.1659 76.2499 75.1659 76.1438 75.1659ZM76.2499 71.3463V70.922H78.1596V71.3463H77.9474V75.4842H77.523V73.2561H76.1438V72.8317H76.4621V71.2402H76.2499V71.3463ZM76.8865 71.3463V71.6646H77.523V71.3463H76.8865ZM76.8865 71.9829V72.3012H77.523V71.9829H76.8865ZM76.8865 72.5134V72.8317H77.523V72.5134H76.8865ZM78.3718 75.1659L77.9474 75.0598C78.0535 74.7415 78.1596 74.5293 78.2657 74.211L78.584 74.3171C78.584 74.4232 78.4779 74.6354 78.3718 74.8476C78.3718 74.9537 78.3718 75.0598 78.3718 75.1659ZM78.1596 73.8927V73.4683H80.9181V73.8927H79.645C79.7511 74.1049 79.8572 74.211 79.9633 74.4232L79.5389 74.6354C79.4328 74.3171 79.3267 74.1049 79.2206 73.9988L79.4328 73.8927H78.1596ZM79.3267 70.8159H79.7511V71.1342H80.9181V71.5585H79.7511V71.8768H80.812V73.15H78.3718V71.8768H79.4328V71.5585H78.3718V71.1342H79.4328V70.8159H79.3267ZM78.6901 72.3012V72.8317H79.0084V72.3012H78.6901ZM80.5998 75.0598C80.4937 74.8476 80.4937 74.7415 80.3876 74.6354C80.3876 74.6354 80.3876 74.7415 80.3876 74.8476C80.3876 74.9537 80.3876 74.9537 80.3876 75.0598C80.2815 75.272 80.1755 75.3781 79.8572 75.3781H79.3267C79.0084 75.3781 78.7962 75.272 78.7962 74.8476V74.1049H79.2206V74.7415C79.2206 74.8476 79.3267 74.9537 79.4328 74.9537H79.645C79.8572 74.9537 79.8572 74.9537 79.9633 74.7415C79.9633 74.6354 80.0694 74.5293 80.0694 74.4232C80.1754 74.5293 80.2815 74.5293 80.4937 74.5293L80.3876 74.211L80.7059 74.1049C80.7059 74.211 80.812 74.3171 80.9181 74.4232C81.0242 74.6354 81.1303 74.7415 81.1303 74.8476L80.5998 75.0598ZM79.3267 72.3012V72.8317H79.645V72.3012H79.3267ZM80.3876 72.3012H79.9633V72.8317H80.2816V72.3012H80.3876Z" fill="#BE2026"/>
<path d="M105.638 103.706V121H110.837V114.74H116.142V121H121.447V103.706H105.638ZM116.142 109.966H110.837V108.374H116.142V109.966Z" fill="#0D0D0D"/>
<path d="M134.496 121V114.74H139.801V121H145V103.706H139.801V109.966H134.496V103.706H129.298V121H134.496Z" fill="#0D0D0D"/>
<path d="M63.5178 114.422L70.5202 120.682H74.0214V103.388H68.8227V109.648L61.8203 103.388H58.3191V120.682H63.5178V114.422Z" fill="#0D0D0D"/>
<path d="M22.034 103.388L18.8511 106.571L15.6683 103.388H11V120.682H15.7743V110.496L18.8511 113.679L22.034 110.496V120.682H26.8084V103.388H22.034Z" fill="#0D0D0D"/>
<path d="M93.0127 121L89.8298 117.817L86.6469 121H81.9786V103.706H86.6469V113.891L89.8298 110.709L93.0127 113.891V103.706H97.6809V121H93.0127Z" fill="#0D0D0D"/>
<path d="M34.6595 103.388V120.682H39.8583V114.422H45.1631V120.682H50.4679V103.388H34.6595ZM45.1631 109.648H39.8583V108.056H45.1631V109.648Z" fill="#0D0D0D"/>
</svg>
