<svg width="155" height="155" viewBox="0 0 155 155" fill="none" xmlns="http://www.w3.org/2000/svg">
<path fill-rule="evenodd" clip-rule="evenodd" d="M40.4286 36H108.688C112.195 36 115 38.9286 115 42.4429V111.557C115 115.071 112.078 118 108.688 118H40.4286C36.9221 118 34 115.071 34 111.557V42.4429C34 38.9286 36.9221 36 40.4286 36ZM65.5584 61.8886C65.3247 62.0057 65.0909 62.1229 64.974 62.1229C65.0909 62.1229 65.3247 62.0057 65.5584 61.8886ZM64.3896 63.5286C64.3896 63.5286 64.5065 63.5286 64.3896 63.5286V63.5286ZM62.6364 65.52C62.2857 65.6371 62.6364 65.52 62.6364 65.52V65.52ZM64.039 63.7629C63.8052 63.88 63.8052 63.88 63.8052 63.88C63.6883 63.88 63.8052 63.88 64.039 63.7629ZM64.039 63.7629C64.1558 63.7629 64.2727 63.6457 64.3896 63.5286C64.2727 63.6457 64.1558 63.6457 64.039 63.7629ZM66.3766 60.3657C66.1429 60.4829 65.9091 60.6 65.9091 60.6C65.9091 60.6 66.1429 60.4829 66.3766 60.3657ZM52.9351 46.4257L53.1688 46.7771L53.8701 47.48L52.9351 46.4257ZM56.5584 45.6057V45.7229L57.1429 46.5429L56.5584 45.6057ZM57.7273 47.5971L56.4416 45.6057L56.7922 47.3629L57.7273 47.5971ZM62.987 74.8914C62.6364 75.0086 61.2338 75.1257 61.2338 75.1257C62.0519 76.2971 62.987 75.36 63.1039 75.2429C63.3377 75.0086 63.3377 74.7743 62.987 74.8914ZM58.5455 55.0943L59.9481 53.8057L52.9351 46.5429L58.5455 55.0943ZM78.7662 67.98C78.2987 67.6286 77.8312 67.3943 77.2467 67.2771C77.5974 66.9257 77.7143 66.34 77.5974 65.8714C77.4805 64.8171 76.4286 64.1143 75.3766 64.2314C74.9091 64.3486 74.4416 64.5829 74.0909 65.0514C73.7403 65.52 73.6234 65.9886 73.7403 66.4571C73.7403 66.9257 74.0909 67.3943 74.4416 67.7457C73.039 68.5657 72.2208 70.0886 72.4545 71.8457C72.8052 74.0714 74.7922 75.5943 76.8961 75.2429C79 74.8914 80.5195 72.9 80.1688 70.6743C80.1688 69.5029 79.5844 68.5657 78.7662 67.98ZM62.987 74.8914C62.6364 75.0086 61.2338 75.1257 61.2338 75.1257C62.0519 76.2971 62.987 75.36 63.1039 75.2429C63.3377 75.0086 63.3377 74.7743 62.987 74.8914ZM86.7143 58.7257C86.7143 58.8429 86.7143 58.8429 86.8312 58.96C86.9481 59.0771 86.4805 60.0143 86.3636 60.2486C86.2467 60.4829 86.2468 60.6 86.4805 60.6C86.7143 60.6 86.948 60.4829 86.948 60.4829C86.948 60.4829 87.1818 60.4829 86.948 60.6C86.7143 60.7171 86.4805 60.7171 86.2467 60.8343C86.013 60.9514 85.3117 61.7714 86.013 62.5914C86.7143 63.4114 87.5325 64.3486 87.8831 64.4657C88.1169 64.7 88.5844 64.7 88.8182 64.8171C89.0519 64.9343 89.1688 66.2229 88.5844 66.6914C88 67.16 87.7662 67.0429 87.6493 67.16C87.5325 67.2771 87.4156 67.5114 87.4156 67.5114C87.4156 67.5114 87.5325 67.6286 87.5325 67.7457C87.5325 67.8629 87.5325 68.2143 87.6493 68.3314C87.6493 68.4486 87.8831 68.6829 88 68.8C88.1169 68.9171 88.3506 68.9171 88.3506 69.2686C88.3506 69.62 88.1169 69.8543 88 69.9714C87.8831 70.0886 87.7662 70.0886 88 70.3229C88.1169 70.44 88.7013 70.9086 88.5844 71.26C88.4675 71.6114 88.3506 71.7286 88.1169 71.9629C87.8831 72.1971 88 72.1971 87.8831 72.1971C87.7662 72.3143 87.8831 72.3143 87.8831 72.5486C88 72.7829 89.1688 74.1886 87.6493 75.0086C87.0649 75.2429 86.7143 75.4771 86.4805 75.36C86.1299 75.2429 86.013 75.36 85.7792 75.36C85.5455 75.4771 84.6104 75.5943 83.3247 75.36C82.039 75.1257 80.5195 74.54 79.8182 75.0086C79.1169 75.4771 78.1818 76.6486 77.4805 77.2343C76.7792 77.9371 76.5455 78.2886 76.4286 78.5229C76.3117 78.7571 75.026 81.1 75.026 81.3343C74.9091 81.5686 75.1429 81.6857 75.2597 82.0371C75.2597 82.5057 75.1429 82.6229 74.9091 83.0914C74.6753 83.56 74.5584 83.56 74.3247 83.0914C74.0909 82.6229 70.4675 75.1257 64.6234 74.7743C64.2727 74.7743 64.039 74.7743 63.9221 75.1257C63.8052 75.4771 63.2208 76.2971 62.0519 76.2971C61 76.18 59.8312 75.1257 60.2987 73.2514C60.7662 71.3771 62.8701 70.6743 63.8052 70.5571C64.1558 70.5571 64.1558 70.3229 63.8052 70.0886C63.4545 69.8543 61.4675 68.4486 61.1169 67.0429L62.6364 65.52C61.5844 65.9886 60.5325 66.4571 59.7143 66.8086C59.5974 66.8086 59.4805 66.6914 59.3636 66.5743C61.7013 65.7543 64.5065 63.5286 64.5065 63.5286C62.0519 64.7 60.0649 65.4029 58.5455 65.6371C58.4286 65.52 58.4286 65.4029 58.4286 65.2857C61.9351 64.8171 66.3766 61.5371 66.3766 61.5371C62.2857 63.5286 59.7143 63.9971 58.1948 63.9971C58.1948 63.7629 58.1948 63.5286 58.1948 63.2943C62.2857 63.7629 68.013 59.5457 68.013 59.5457C62.5195 62.1229 59.8312 62.1229 58.7792 61.8886C58.7792 61.8886 58.3117 60.4829 58.1948 58.4914C58.1948 57.6714 58.0779 56.5 58.3117 55.3286L52.4675 46.0743L56.6753 47.3629L56.2078 45.2543L63.3377 49.3543L65.6753 50.0571C67.0779 48.7686 69.2987 47.3629 72.2208 46.66C74.4416 46.0743 76.1948 46.4257 77.8312 47.2457C76.4286 48.0657 75.3766 48.7686 75.3766 48.7686L82.3896 45.6057C82.3896 45.6057 82.7403 45.4886 82.8571 45.4886C82.974 45.4886 83.2078 45.4886 83.3247 45.84C83.3247 45.9571 84.4935 48.3 85.1948 49.7057C77.3636 53.3371 71.6364 56.1486 71.6364 56.1486C71.6364 56.1486 77.5974 53.5714 85.4286 50.0571C85.5455 50.2914 85.6623 50.5257 85.7792 50.6429C77.948 54.2743 72.1039 57.0857 72.1039 57.0857C72.1039 57.2029 78.0649 54.5086 85.8961 50.9943C86.013 51.2286 86.1299 51.4629 86.2467 51.58C78.4156 55.0943 72.5714 57.9057 72.5714 58.0229C72.5714 58.14 78.5325 55.4457 86.3636 51.9314C86.4805 52.1657 86.5974 52.4 86.7143 52.6343C78.8831 56.2657 73.039 59.0771 73.039 59.1943C73.039 59.3114 79 56.6171 86.8312 53.1029C88 55.4457 88.9351 57.4371 88.9351 57.5543C89.1688 57.7886 87.7662 58.3743 86.7143 58.7257ZM56.9091 47.3629L57.8442 47.5971L56.5584 45.6057L56.9091 47.3629ZM59.5974 54.04L52.9351 46.5429L58.5455 55.0943L59.5974 54.04ZM63.1039 71.3771C62.6364 71.3771 61.4675 71.6114 60.8831 73.1343C60.7662 73.3686 60.7662 73.4857 60.7662 73.8371C60.7662 74.3057 60.7662 74.4229 60.8831 74.54C61 74.6571 61.1169 74.54 61.1169 74.3057C61.1169 73.9543 61.1169 73.6029 61.3506 73.4857C61.4675 73.2514 61.4675 73.3686 61.7013 73.4857C61.9351 73.4857 62.6364 73.4857 62.987 73.1343C63.3377 72.6657 63.9221 71.6114 63.1039 71.3771ZM80.2857 70.5571C80.1688 69.5029 79.5844 68.5657 78.7662 67.8629C78.2987 67.5114 77.8312 67.2771 77.2467 67.16C77.5974 66.8086 77.7143 66.2229 77.5974 65.7543C77.4805 64.7 76.4286 63.9971 75.3766 64.1143C74.9091 64.2314 74.4416 64.4657 74.0909 64.9343C73.7403 65.4029 73.6234 65.8714 73.7403 66.34C73.7403 66.8086 74.0909 67.2771 74.4416 67.6286C73.039 68.4486 72.2208 69.9714 72.4545 71.7286C72.8052 73.9543 74.7922 75.4771 76.8961 75.1257C79.1169 74.7743 80.5195 72.7829 80.2857 70.5571ZM62.987 74.8914C62.6364 75.0086 61.2338 75.1257 61.2338 75.1257C62.0519 76.2971 62.987 75.36 63.1039 75.2429C63.3377 75.0086 63.3377 74.7743 62.987 74.8914ZM68.013 59.5457C68.013 59.5457 67.8961 59.5457 67.8961 59.6629C68.013 59.6629 68.013 59.5457 68.013 59.5457ZM67.0779 60.0143C67.3117 59.8971 67.4286 59.78 67.6623 59.78C67.4286 59.8971 67.1948 60.0143 67.0779 60.0143ZM75.7273 67.2771C76.3117 67.2771 76.7792 66.8086 76.7792 66.2229C76.7792 65.6371 76.3117 65.1686 75.7273 65.1686C75.1429 65.1686 74.6753 65.6371 74.6753 66.2229C74.6753 66.8086 75.1429 67.2771 75.7273 67.2771ZM76.3117 69.9714C75.6104 70.0886 75.2597 70.6743 75.2597 71.3771C75.3766 72.08 75.961 72.5486 76.6623 72.4314C77.013 72.4314 77.2468 72.1971 77.4805 71.9629C77.7143 71.7286 77.7143 71.3771 77.7143 71.0257C77.4805 70.3229 76.8961 69.8543 76.3117 69.9714ZM76.8961 74.0714C75.3766 74.3057 73.8571 73.2514 73.6234 71.6114C73.3896 69.9714 74.4416 68.5657 76.0779 68.3314C76.7792 68.2143 77.5974 68.4486 78.1818 68.9171C78.7662 69.3857 79.2338 70.0886 79.3506 70.7914C79.4675 72.3143 78.4156 73.8371 76.8961 74.0714ZM78.1818 70.9086C78.0649 69.8543 77.1299 69.1514 76.1948 69.3857C75.1429 69.5029 74.5584 70.44 74.6753 71.4943C74.7922 72.5486 75.7273 73.2514 76.7792 73.0171C77.2467 72.9 77.7143 72.6657 77.948 72.3143C78.1818 71.8457 78.2987 71.3771 78.1818 70.9086ZM87.5325 53.9229L70.3506 62.4743L88.1169 55.0943L87.5325 53.9229ZM84.2597 47.2457L67.5455 56.2657L84.8442 48.4171L84.2597 47.2457ZM62.2857 101.834C62.2857 100.78 61.9351 99.96 61.1169 99.2571C60.7662 98.9057 60.0649 98.4371 59.2468 97.9686C58.4286 97.5 57.8442 97.1486 57.4935 96.7971C57.1429 96.4457 57.026 96.0943 57.026 95.5086V93.5171C57.026 93.0486 57.1429 92.58 57.4935 92.2286C57.8442 91.8771 58.1948 91.76 58.6623 91.76C59.1299 91.76 59.4805 91.8771 59.8312 92.2286C60.1818 92.58 60.2987 92.9314 60.2987 93.5171V95.04H59.4805V95.7429H62.1688V93.6343C62.1688 92.6971 61.8182 91.76 61.1169 91.0571C60.4156 90.3543 59.5974 90.0029 58.6623 90.0029C57.7273 90.0029 56.9091 90.3543 56.2078 91.0571C55.5065 91.76 55.1558 92.58 55.1558 93.6343V95.6257C55.1558 96.5629 55.5065 97.3829 56.0909 98.0857C56.4416 98.5543 57.2597 99.0229 58.3117 99.6086C59.013 99.96 59.4805 100.311 59.7143 100.429C60.1818 100.897 60.4156 101.366 60.4156 101.834V105.231C60.4156 105.7 60.2987 106.051 59.9481 106.52C59.5974 106.871 59.2468 106.989 58.7792 106.989C58.3117 106.989 57.8442 106.871 57.6104 106.52C57.2597 106.169 57.1429 105.817 57.1429 105.231V104.177H58.1948V102.303H57.6104V103.474H55.3896V105.114C55.3896 106.051 55.7403 106.989 56.4416 107.691C57.1429 108.394 57.961 108.746 58.8961 108.746C59.8312 108.746 60.6493 108.394 61.3506 107.691C62.0519 106.989 62.4026 106.169 62.4026 105.114V101.834H62.2857ZM73.5065 108.746C72.8052 108.746 72.1039 108.511 71.6364 107.926C71.1688 107.457 70.8182 106.754 70.8182 106.051V99.7257H66.1429V106.051C66.1429 106.754 65.9091 107.457 65.3247 107.926C64.8571 108.394 64.1558 108.746 63.4545 108.746H62.5195V105.7H63.2208V106.989H63.5714C63.8052 106.989 64.039 106.871 64.1558 106.754C64.2727 106.637 64.3896 106.403 64.3896 106.169V92.6971C64.3896 92.4629 64.2727 92.2286 64.1558 92.1114C64.039 91.9943 63.8052 91.8771 63.5714 91.8771H63.2208V93.1657H62.6364V90.0029H63.5714C64.2727 90.0029 64.8571 90.2371 65.4416 90.8229C65.9091 91.2914 66.2597 91.9943 66.2597 92.6971V97.9686H70.9351V92.6971C70.9351 91.9943 71.1688 91.2914 71.7532 90.8229C72.2208 90.3543 72.9221 90.0029 73.6234 90.0029H74.5584V93.0486H73.974V91.76H73.6234C73.3896 91.76 73.1558 91.8771 73.039 91.9943C72.9221 92.1114 72.8052 92.3457 72.8052 92.58V106.051C72.8052 106.286 72.9221 106.52 73.039 106.637C73.1558 106.871 73.3896 106.871 73.6234 106.871H73.974V105.583H74.5584V108.629H73.5065V108.746ZM78.5325 108.16H77.5974V90.0029H74.9091V90.5886H75.8442V108.746H78.5325V108.16ZM92.5584 108.746C91.8571 108.746 91.2727 108.511 90.6883 107.926C90.1039 107.457 89.8701 106.754 89.8701 106.051V93.1657C89.8701 92.8143 89.7532 92.4629 89.5195 92.1114C89.2857 91.8771 88.9351 91.6429 88.4675 91.6429C88.1169 91.6429 87.7662 91.76 87.5325 92.1114C87.2987 92.3457 87.1818 92.6971 87.1818 93.1657V104.763H88.3506V105.349H84.1429V104.763H85.3117V93.1657C85.3117 92.8143 85.1948 92.4629 84.8442 92.1114C84.6104 91.8771 84.2597 91.6429 83.7922 91.6429C83.4416 91.6429 83.0909 91.76 82.8571 92.1114C82.6234 92.3457 82.3896 92.6971 82.3896 93.1657V106.051C82.3896 106.754 82.1558 107.457 81.6883 107.926C81.2208 108.394 80.5195 108.746 79.8182 108.746H79V106.871H79.8182C80.0519 106.871 80.2857 106.754 80.4026 106.637C80.5195 106.52 80.6364 106.286 80.6364 106.051V93.1657C80.6364 92.2286 80.987 91.5257 81.5714 90.8229C82.1558 90.2371 82.974 89.8857 83.7922 89.8857C84.7273 89.8857 85.4286 90.2371 86.1299 90.8229C86.7143 90.12 87.5325 89.8857 88.3506 89.8857C89.1688 89.8857 89.987 90.2371 90.5714 90.8229C91.1558 91.4086 91.5065 92.2286 91.5065 93.1657V105.934C91.5065 106.169 91.6234 106.403 91.7403 106.52C91.8571 106.637 92.0909 106.754 92.3247 106.754H93.1429V108.629H92.5584V108.746ZM54.9221 108.746H54.1039C53.4026 108.746 52.8182 108.511 52.2338 107.926C51.7662 107.457 51.4156 106.754 51.4156 106.051V99.7257H46.7403V106.051C46.7403 106.754 46.5065 107.457 46.039 107.926C45.5714 108.394 44.8701 108.746 44.1688 108.746H43.3506V106.871H44.1688C44.4026 106.871 44.5195 106.754 44.7532 106.637C44.8701 106.52 44.987 106.286 44.987 106.051V91.76H45.6883C46.5065 90.5886 47.6753 89.8857 49.0779 89.8857C50.4805 89.8857 51.6493 90.4714 52.4675 91.76H53.1688V106.051C53.1688 106.52 53.4026 106.754 53.7532 106.871C53.8701 106.871 54.2208 106.871 54.8052 106.871V108.746H54.9221ZM51.5325 97.9686V94.1029C51.5325 93.5171 51.2987 92.9314 50.8312 92.58C50.3636 92.1114 49.7792 91.8771 49.1948 91.8771C48.6104 91.8771 48.026 92.1114 47.5584 92.58C47.0909 93.0486 46.8571 93.6343 46.8571 94.22V97.9686H51.5325ZM105.532 108.746H104.714C104.013 108.746 103.429 108.511 102.844 107.926C102.377 107.457 102.143 106.754 102.143 106.051V99.7257H97.4675V106.051C97.4675 106.754 97.2338 107.457 96.7662 107.926C96.2987 108.511 95.7143 108.746 94.8961 108.746H94.0779V106.871H94.8961C95.1299 106.871 95.3636 106.754 95.4805 106.637C95.5974 106.403 95.7143 106.286 95.7143 106.051V91.76H96.4156C97.2338 90.5886 98.4026 89.8857 99.8052 89.8857C101.208 89.8857 102.377 90.4714 103.195 91.76H103.896V106.051C103.896 106.52 104.13 106.754 104.481 106.871C104.597 106.871 104.948 106.871 105.532 106.871V108.746ZM102.143 97.8514V93.9857C102.143 93.4 101.909 92.8143 101.442 92.4629C100.974 91.9943 100.39 91.76 99.8052 91.76C99.2208 91.76 98.6364 91.9943 98.1688 92.4629C97.7013 92.9314 97.4675 93.5171 97.4675 94.1029V97.8514H102.143Z" fill="#B4202A"/>
</svg>
