<svg width="155" height="155" viewBox="0 0 155 155" fill="none" xmlns="http://www.w3.org/2000/svg">
<path d="M55.1145 78.9781L54.0339 83.5239H56.1952L55.1145 78.9781ZM55.1145 78.9781L54.0339 83.5239H56.1952L55.1145 78.9781ZM55.1145 78.9781L54.0339 83.5239H56.1952L55.1145 78.9781ZM55.1145 78.9781L54.0339 83.5239H56.1952L55.1145 78.9781ZM55.1145 78.9781L54.0339 83.5239H56.1952L55.1145 78.9781ZM95.5627 63.2606C95.254 62.8753 94.7908 62.7212 94.2505 62.7212C93.7102 62.7212 93.247 62.8753 92.9382 63.2606C92.6295 63.6458 92.4751 64.1081 92.4751 64.7244C92.4751 65.3408 92.6295 65.8031 92.9382 66.1883C93.247 66.5736 93.7102 66.7277 94.2505 66.7277C94.7908 66.7277 95.254 66.5736 95.5627 66.1883C95.8715 65.8031 96.0259 65.3408 96.0259 64.7244C96.0259 64.1081 95.8715 63.6458 95.5627 63.2606ZM95.5627 63.2606C95.254 62.8753 94.7908 62.7212 94.2505 62.7212C93.7102 62.7212 93.247 62.8753 92.9382 63.2606C92.6295 63.6458 92.4751 64.1081 92.4751 64.7244C92.4751 65.3408 92.6295 65.8031 92.9382 66.1883C93.247 66.5736 93.7102 66.7277 94.2505 66.7277C94.7908 66.7277 95.254 66.5736 95.5627 66.1883C95.8715 65.8031 96.0259 65.3408 96.0259 64.7244C96.0259 64.1081 95.8715 63.6458 95.5627 63.2606ZM55.1145 78.9781L54.0339 83.5239H56.1952L55.1145 78.9781ZM55.1145 78.9781L54.0339 83.5239H56.1952L55.1145 78.9781ZM84.6788 62.336H83.8297V63.8769H84.6016C85.0647 63.8769 85.4507 63.5687 85.4507 63.0294C85.4507 62.5671 85.1419 62.336 84.6788 62.336ZM84.756 65.4949H83.8297V66.9588C84.1384 66.9588 84.4472 66.9588 84.756 66.9588C85.2191 66.9588 85.6051 66.6506 85.6051 66.1113C85.6051 65.8031 85.2963 65.4949 84.756 65.4949ZM95.5627 63.2606C95.254 62.8753 94.7908 62.7212 94.2505 62.7212C93.7102 62.7212 93.247 62.8753 92.9382 63.2606C92.6295 63.6458 92.4751 64.1081 92.4751 64.7244C92.4751 65.3408 92.6295 65.8031 92.9382 66.1883C93.247 66.5736 93.7102 66.7277 94.2505 66.7277C94.7908 66.7277 95.254 66.5736 95.5627 66.1883C95.8715 65.8031 96.0259 65.3408 96.0259 64.7244C96.0259 64.1081 95.8715 63.6458 95.5627 63.2606ZM95.5627 63.2606C95.254 62.8753 94.7908 62.7212 94.2505 62.7212C93.7102 62.7212 93.247 62.8753 92.9382 63.2606C92.6295 63.6458 92.4751 64.1081 92.4751 64.7244C92.4751 65.3408 92.6295 65.8031 92.9382 66.1883C93.247 66.5736 93.7102 66.7277 94.2505 66.7277C94.7908 66.7277 95.254 66.5736 95.5627 66.1883C95.8715 65.8031 96.0259 65.3408 96.0259 64.7244C96.0259 64.1081 95.8715 63.6458 95.5627 63.2606ZM84.756 65.4949H83.8297V66.9588C84.1384 66.9588 84.4472 66.9588 84.756 66.9588C85.2191 66.9588 85.6051 66.6506 85.6051 66.1113C85.6051 65.8031 85.2963 65.4949 84.756 65.4949ZM84.6788 62.336H83.8297V63.8769H84.6016C85.0647 63.8769 85.4507 63.5687 85.4507 63.0294C85.4507 62.5671 85.1419 62.336 84.6788 62.336ZM55.1145 78.9781L54.0339 83.5239H56.1952L55.1145 78.9781ZM55.1145 78.9781L54.0339 83.5239H56.1952L55.1145 78.9781ZM62.0618 63.2606C61.753 62.8753 61.2898 62.7212 60.7495 62.7212C60.2092 62.7212 59.746 62.8753 59.4372 63.2606C59.1285 63.6458 58.9741 64.1081 58.9741 64.7244C58.9741 65.3408 59.1285 65.8031 59.4372 66.1883C59.746 66.5736 60.2092 66.7277 60.7495 66.7277C61.2898 66.7277 61.753 66.5736 62.0618 66.1883C62.3705 65.8031 62.5249 65.3408 62.5249 64.7244C62.5249 64.1081 62.3705 63.6458 62.0618 63.2606ZM84.6788 62.336H83.8297V63.8769H84.6016C85.0647 63.8769 85.4507 63.5687 85.4507 63.0294C85.4507 62.5671 85.1419 62.336 84.6788 62.336ZM84.756 65.4949H83.8297V66.9588C84.1384 66.9588 84.4472 66.9588 84.756 66.9588C85.2191 66.9588 85.6051 66.6506 85.6051 66.1113C85.6051 65.8031 85.2963 65.4949 84.756 65.4949ZM95.5627 63.2606C95.254 62.8753 94.7908 62.7212 94.2505 62.7212C93.7102 62.7212 93.247 62.8753 92.9382 63.2606C92.6295 63.6458 92.4751 64.1081 92.4751 64.7244C92.4751 65.3408 92.6295 65.8031 92.9382 66.1883C93.247 66.5736 93.7102 66.7277 94.2505 66.7277C94.7908 66.7277 95.254 66.5736 95.5627 66.1883C95.8715 65.8031 96.0259 65.3408 96.0259 64.7244C96.0259 64.1081 95.8715 63.6458 95.5627 63.2606ZM95.5627 63.2606C95.254 62.8753 94.7908 62.7212 94.2505 62.7212C93.7102 62.7212 93.247 62.8753 92.9382 63.2606C92.6295 63.6458 92.4751 64.1081 92.4751 64.7244C92.4751 65.3408 92.6295 65.8031 92.9382 66.1883C93.247 66.5736 93.7102 66.7277 94.2505 66.7277C94.7908 66.7277 95.254 66.5736 95.5627 66.1883C95.8715 65.8031 96.0259 65.3408 96.0259 64.7244C96.0259 64.1081 95.8715 63.6458 95.5627 63.2606ZM84.756 65.4949H83.8297V66.9588C84.1384 66.9588 84.4472 66.9588 84.756 66.9588C85.2191 66.9588 85.6051 66.6506 85.6051 66.1113C85.6051 65.8031 85.2963 65.4949 84.756 65.4949ZM84.6788 62.336H83.8297V63.8769H84.6016C85.0647 63.8769 85.4507 63.5687 85.4507 63.0294C85.4507 62.5671 85.1419 62.336 84.6788 62.336ZM62.0618 63.2606C61.753 62.8753 61.2898 62.7212 60.7495 62.7212C60.2092 62.7212 59.746 62.8753 59.4372 63.2606C59.1285 63.6458 58.9741 64.1081 58.9741 64.7244C58.9741 65.3408 59.1285 65.8031 59.4372 66.1883C59.746 66.5736 60.2092 66.7277 60.7495 66.7277C61.2898 66.7277 61.753 66.5736 62.0618 66.1883C62.3705 65.8031 62.5249 65.3408 62.5249 64.7244C62.5249 64.1081 62.3705 63.6458 62.0618 63.2606ZM55.1145 78.9781L54.0339 83.5239H56.1952L55.1145 78.9781ZM55.1145 78.9781L54.0339 83.5239H56.1952L55.1145 78.9781ZM62.0618 63.2606C61.753 62.8753 61.2898 62.7212 60.7495 62.7212C60.2092 62.7212 59.746 62.8753 59.4372 63.2606C59.1285 63.6458 58.9741 64.1081 58.9741 64.7244C58.9741 65.3408 59.1285 65.8031 59.4372 66.1883C59.746 66.5736 60.2092 66.7277 60.7495 66.7277C61.2898 66.7277 61.753 66.5736 62.0618 66.1883C62.3705 65.8031 62.5249 65.3408 62.5249 64.7244C62.5249 64.1081 62.3705 63.6458 62.0618 63.2606ZM63.6828 95.6973L62.9109 97.7005H64.5319L63.6828 95.6973ZM84.6788 62.336H83.8297V63.8769H84.6016C85.0647 63.8769 85.4507 63.5687 85.4507 63.0294C85.4507 62.5671 85.1419 62.336 84.6788 62.336ZM84.756 65.4949H83.8297V66.9588C84.1384 66.9588 84.4472 66.9588 84.756 66.9588C85.2191 66.9588 85.6051 66.6506 85.6051 66.1113C85.6051 65.8031 85.2963 65.4949 84.756 65.4949ZM95.5627 63.2606C95.254 62.8753 94.7908 62.7212 94.2505 62.7212C93.7102 62.7212 93.247 62.8753 92.9382 63.2606C92.6295 63.6458 92.4751 64.1081 92.4751 64.7244C92.4751 65.3408 92.6295 65.8031 92.9382 66.1883C93.247 66.5736 93.7102 66.7277 94.2505 66.7277C94.7908 66.7277 95.254 66.5736 95.5627 66.1883C95.8715 65.8031 96.0259 65.3408 96.0259 64.7244C96.0259 64.1081 95.8715 63.6458 95.5627 63.2606ZM95.5627 63.2606C95.254 62.8753 94.7908 62.7212 94.2505 62.7212C93.7102 62.7212 93.247 62.8753 92.9382 63.2606C92.6295 63.6458 92.4751 64.1081 92.4751 64.7244C92.4751 65.3408 92.6295 65.8031 92.9382 66.1883C93.247 66.5736 93.7102 66.7277 94.2505 66.7277C94.7908 66.7277 95.254 66.5736 95.5627 66.1883C95.8715 65.8031 96.0259 65.3408 96.0259 64.7244C96.0259 64.1081 95.8715 63.6458 95.5627 63.2606ZM84.756 65.4949H83.8297V66.9588C84.1384 66.9588 84.4472 66.9588 84.756 66.9588C85.2191 66.9588 85.6051 66.6506 85.6051 66.1113C85.6051 65.8031 85.2963 65.4949 84.756 65.4949ZM84.6788 62.336H83.8297V63.8769H84.6016C85.0647 63.8769 85.4507 63.5687 85.4507 63.0294C85.4507 62.5671 85.1419 62.336 84.6788 62.336ZM63.6828 95.6973L62.9109 97.7005H64.5319L63.6828 95.6973ZM62.0618 63.2606C61.753 62.8753 61.2898 62.7212 60.7495 62.7212C60.2092 62.7212 59.746 62.8753 59.4372 63.2606C59.1285 63.6458 58.9741 64.1081 58.9741 64.7244C58.9741 65.3408 59.1285 65.8031 59.4372 66.1883C59.746 66.5736 60.2092 66.7277 60.7495 66.7277C61.2898 66.7277 61.753 66.5736 62.0618 66.1883C62.3705 65.8031 62.5249 65.3408 62.5249 64.7244C62.5249 64.1081 62.3705 63.6458 62.0618 63.2606ZM55.1145 78.9781L54.0339 83.5239H56.1952L55.1145 78.9781ZM55.1145 78.9781L54.0339 83.5239H56.1952L55.1145 78.9781ZM62.0618 63.2606C61.753 62.8753 61.2898 62.7212 60.7495 62.7212C60.2092 62.7212 59.746 62.8753 59.4372 63.2606C59.1285 63.6458 58.9741 64.1081 58.9741 64.7244C58.9741 65.3408 59.1285 65.8031 59.4372 66.1883C59.746 66.5736 60.2092 66.7277 60.7495 66.7277C61.2898 66.7277 61.753 66.5736 62.0618 66.1883C62.3705 65.8031 62.5249 65.3408 62.5249 64.7244C62.5249 64.1081 62.3705 63.6458 62.0618 63.2606ZM63.6828 95.6973L62.9109 97.7005H64.5319L63.6828 95.6973ZM79.8157 95.0039C78.7351 95.0039 78.0403 95.8514 78.0403 96.9301C78.0403 97.9317 78.8122 98.8562 79.8929 98.8562C80.9736 98.8562 81.7455 98.0087 81.7455 96.9301C81.6683 95.9285 80.9736 95.0039 79.8157 95.0039ZM84.6788 62.336H83.8297V63.8769H84.6016C85.0647 63.8769 85.4507 63.5687 85.4507 63.0294C85.4507 62.5671 85.1419 62.336 84.6788 62.336ZM84.756 65.4949H83.8297V66.9588C84.1384 66.9588 84.4472 66.9588 84.756 66.9588C85.2191 66.9588 85.6051 66.6506 85.6051 66.1113C85.6051 65.8031 85.2963 65.4949 84.756 65.4949ZM95.5627 63.2606C95.254 62.8753 94.7908 62.7212 94.2505 62.7212C93.7102 62.7212 93.247 62.8753 92.9382 63.2606C92.6295 63.6458 92.4751 64.1081 92.4751 64.7244C92.4751 65.3408 92.6295 65.8031 92.9382 66.1883C93.247 66.5736 93.7102 66.7277 94.2505 66.7277C94.7908 66.7277 95.254 66.5736 95.5627 66.1883C95.8715 65.8031 96.0259 65.3408 96.0259 64.7244C96.0259 64.1081 95.8715 63.6458 95.5627 63.2606ZM79.8157 95.0039C78.7351 95.0039 78.0403 95.8514 78.0403 96.9301C78.0403 97.9317 78.8122 98.8562 79.8929 98.8562C80.9736 98.8562 81.7455 98.0087 81.7455 96.9301C81.6683 95.9285 80.9736 95.0039 79.8157 95.0039ZM95.5627 63.2606C95.254 62.8753 94.7908 62.7212 94.2505 62.7212C93.7102 62.7212 93.247 62.8753 92.9382 63.2606C92.6295 63.6458 92.4751 64.1081 92.4751 64.7244C92.4751 65.3408 92.6295 65.8031 92.9382 66.1883C93.247 66.5736 93.7102 66.7277 94.2505 66.7277C94.7908 66.7277 95.254 66.5736 95.5627 66.1883C95.8715 65.8031 96.0259 65.3408 96.0259 64.7244C96.0259 64.1081 95.8715 63.6458 95.5627 63.2606ZM84.756 65.4949H83.8297V66.9588C84.1384 66.9588 84.4472 66.9588 84.756 66.9588C85.2191 66.9588 85.6051 66.6506 85.6051 66.1113C85.6051 65.8031 85.2963 65.4949 84.756 65.4949ZM84.6788 62.336H83.8297V63.8769H84.6016C85.0647 63.8769 85.4507 63.5687 85.4507 63.0294C85.4507 62.5671 85.1419 62.336 84.6788 62.336ZM63.6828 95.6973L62.9109 97.7005H64.5319L63.6828 95.6973ZM62.0618 63.2606C61.753 62.8753 61.2898 62.7212 60.7495 62.7212C60.2092 62.7212 59.746 62.8753 59.4372 63.2606C59.1285 63.6458 58.9741 64.1081 58.9741 64.7244C58.9741 65.3408 59.1285 65.8031 59.4372 66.1883C59.746 66.5736 60.2092 66.7277 60.7495 66.7277C61.2898 66.7277 61.753 66.5736 62.0618 66.1883C62.3705 65.8031 62.5249 65.3408 62.5249 64.7244C62.5249 64.1081 62.3705 63.6458 62.0618 63.2606ZM55.1145 78.9781L54.0339 83.5239H56.1952L55.1145 78.9781ZM55.1145 78.9781L54.0339 83.5239H56.1952L55.1145 78.9781ZM62.0618 63.2606C61.753 62.8753 61.2898 62.7212 60.7495 62.7212C60.2092 62.7212 59.746 62.8753 59.4372 63.2606C59.1285 63.6458 58.9741 64.1081 58.9741 64.7244C58.9741 65.3408 59.1285 65.8031 59.4372 66.1883C59.746 66.5736 60.2092 66.7277 60.7495 66.7277C61.2898 66.7277 61.753 66.5736 62.0618 66.1883C62.3705 65.8031 62.5249 65.3408 62.5249 64.7244C62.5249 64.1081 62.3705 63.6458 62.0618 63.2606ZM63.6828 95.6973L62.9109 97.7005H64.5319L63.6828 95.6973ZM79.8157 95.0039C78.7351 95.0039 78.0403 95.8514 78.0403 96.9301C78.0403 97.9317 78.8122 98.8562 79.8929 98.8562C80.9736 98.8562 81.7455 98.0087 81.7455 96.9301C81.6683 95.9285 80.9736 95.0039 79.8157 95.0039ZM84.6788 62.336H83.8297V63.8769H84.6016C85.0647 63.8769 85.4507 63.5687 85.4507 63.0294C85.4507 62.5671 85.1419 62.336 84.6788 62.336ZM84.756 65.4949H83.8297V66.9588C84.1384 66.9588 84.4472 66.9588 84.756 66.9588C85.2191 66.9588 85.6051 66.6506 85.6051 66.1113C85.6051 65.8031 85.2963 65.4949 84.756 65.4949ZM89.0787 95.0039C87.998 95.0039 87.3033 95.8514 87.3033 96.9301C87.3033 97.9317 88.0752 98.8562 89.1559 98.8562C90.2366 98.8562 91.0085 98.0087 91.0085 96.9301C90.9313 95.9285 90.2366 95.0039 89.0787 95.0039ZM95.5627 63.2606C95.254 62.8753 94.7908 62.7212 94.2505 62.7212C93.7102 62.7212 93.247 62.8753 92.9382 63.2606C92.6295 63.6458 92.4751 64.1081 92.4751 64.7244C92.4751 65.3408 92.6295 65.8031 92.9382 66.1883C93.247 66.5736 93.7102 66.7277 94.2505 66.7277C94.7908 66.7277 95.254 66.5736 95.5627 66.1883C95.8715 65.8031 96.0259 65.3408 96.0259 64.7244C96.0259 64.1081 95.8715 63.6458 95.5627 63.2606ZM79.8157 95.0039C78.7351 95.0039 78.0403 95.8514 78.0403 96.9301C78.0403 97.9317 78.8122 98.8562 79.8929 98.8562C80.9736 98.8562 81.7455 98.0087 81.7455 96.9301C81.6683 95.9285 80.9736 95.0039 79.8157 95.0039ZM89.0787 95.0039C87.998 95.0039 87.3033 95.8514 87.3033 96.9301C87.3033 97.9317 88.0752 98.8562 89.1559 98.8562C90.2366 98.8562 91.0085 98.0087 91.0085 96.9301C90.9313 95.9285 90.2366 95.0039 89.0787 95.0039ZM95.5627 63.2606C95.254 62.8753 94.7908 62.7212 94.2505 62.7212C93.7102 62.7212 93.247 62.8753 92.9382 63.2606C92.6295 63.6458 92.4751 64.1081 92.4751 64.7244C92.4751 65.3408 92.6295 65.8031 92.9382 66.1883C93.247 66.5736 93.7102 66.7277 94.2505 66.7277C94.7908 66.7277 95.254 66.5736 95.5627 66.1883C95.8715 65.8031 96.0259 65.3408 96.0259 64.7244C96.0259 64.1081 95.8715 63.6458 95.5627 63.2606ZM84.756 65.4949H83.8297V66.9588C84.1384 66.9588 84.4472 66.9588 84.756 66.9588C85.2191 66.9588 85.6051 66.6506 85.6051 66.1113C85.6051 65.8031 85.2963 65.4949 84.756 65.4949ZM85.4507 63.0294C85.4507 62.6442 85.1419 62.336 84.6016 62.336H83.7525V63.8769H84.5244C85.1419 63.8769 85.4507 63.4917 85.4507 63.0294ZM63.6828 95.6973L62.9109 97.7005H64.5319L63.6828 95.6973ZM62.0618 63.2606C61.753 62.8753 61.2898 62.7212 60.7495 62.7212C60.2092 62.7212 59.746 62.8753 59.4372 63.2606C59.1285 63.6458 58.9741 64.1081 58.9741 64.7244C58.9741 65.3408 59.1285 65.8031 59.4372 66.1883C59.746 66.5736 60.2092 66.7277 60.7495 66.7277C61.2898 66.7277 61.753 66.5736 62.0618 66.1883C62.3705 65.8031 62.5249 65.3408 62.5249 64.7244C62.5249 64.1081 62.3705 63.6458 62.0618 63.2606ZM55.1145 78.9781L54.0339 83.5239H56.1952L55.1145 78.9781ZM77.5 46.9266C45.6972 46.9266 17.5224 52.1658 0 60.1787V99.0874C17.5224 107.1 45.6972 112.339 77.5 112.339C109.303 112.339 137.4 107.1 155 99.0874V60.1787C137.4 52.1658 109.226 46.9266 77.5 46.9266ZM151.681 96.9301L151.295 97.0842C133.541 104.558 105.984 109.026 77.5 109.026C49.0936 109.026 21.4592 104.558 3.70518 97.0842L3.31922 96.9301V62.336L3.70518 62.1819C21.4592 54.7083 49.0164 50.2396 77.5 50.2396C105.906 50.2396 133.541 54.7083 151.295 62.1819L151.681 62.336V96.9301ZM4.63147 63.2606V96.0826C22.2311 103.402 49.4024 107.717 77.4228 107.717C105.443 107.717 132.615 103.325 150.214 96.0826V63.2606C132.692 55.9411 105.52 51.5494 77.5 51.5494C49.4024 51.5494 22.3083 55.9411 4.63147 63.2606ZM57.1215 61.2573C58.0478 60.4098 59.2057 59.9475 60.7495 59.9475C62.2933 59.9475 63.4512 60.4098 64.3775 61.2573C65.3038 62.1819 65.7669 63.2606 65.7669 64.7244C65.7669 66.1883 65.3038 67.344 64.3775 68.1916C63.4512 69.0391 62.2161 69.5014 60.7495 69.5014C59.2057 69.5014 58.0478 69.0391 57.1215 68.1916C56.1952 67.344 55.7321 66.1113 55.7321 64.7244C55.7321 63.2606 56.1952 62.1049 57.1215 61.2573ZM47.627 61.2573C48.6305 60.4098 49.8655 59.9475 51.4866 59.9475C52.5672 59.9475 53.8023 60.1016 55.1917 60.4098L54.7286 63.1835C53.3391 62.9524 52.4128 62.7983 51.7953 62.7983C50.4831 62.7983 49.634 63.5687 49.634 64.7244C49.634 65.8802 50.4831 66.6506 51.7181 66.6506C52.1041 66.6506 53.1076 66.5736 54.6514 66.3424L55.1145 69.0391C53.7251 69.3473 52.5672 69.5784 51.4094 69.5784C49.7883 69.5784 48.5533 69.1161 47.5498 68.2686C46.5463 67.4211 46.0832 66.1883 46.0832 64.8015C46.1604 63.2606 46.7007 62.1049 47.627 61.2573ZM31.2624 90.0729V84.2173C33.4238 84.5255 37.5149 85.373 37.5149 81.7518V77.129H33.6554C33.6554 75.434 33.6554 73.6619 33.6554 71.8898H44.6165V81.983C44.6165 90.3811 38.0553 91.7679 31.2624 90.0729ZM58.511 98.3169C58.511 99.7808 57.3531 100.628 55.5777 100.628C54.2654 100.628 53.1076 100.243 52.1813 99.4726L53.262 98.1628C53.9567 98.7021 54.7286 99.0103 55.5777 99.0103C56.118 99.0103 56.4268 98.8562 56.4268 98.5481C56.4268 98.2399 56.1952 98.0858 55.1917 97.8546C53.6479 97.4694 52.49 97.0842 52.49 95.6203C52.49 94.3105 53.5707 93.3089 55.2689 93.3089C56.504 93.3089 57.4303 93.6171 58.2022 94.2334L57.1987 95.6203C56.504 95.158 55.8093 94.9268 55.1917 94.9268C54.7286 94.9268 54.497 95.158 54.497 95.3891C54.497 95.6973 54.7286 95.8514 55.7321 96.0826C57.5075 96.3907 58.511 96.9301 58.511 98.3169ZM57.9706 88.2238H52.2585L51.4866 90.304H44.1534V89.6106L51.1778 72.0439H59.1285L66.0757 89.6106V90.304H58.7425L57.9706 88.2238ZM65.6125 100.551L65.0722 99.2415H62.2933L61.753 100.551H59.6688L62.7565 93.3859H64.6863L67.7739 100.551H65.6125ZM74.6439 100.551H69.1633V93.3859H71.1703V98.7792H74.6439V100.551ZM83.6753 96.9301C83.6753 99.0103 82.0543 100.628 79.8157 100.628C77.5772 100.628 75.9562 99.0103 75.9562 96.9301C75.9562 94.8498 77.6544 93.2318 79.8157 93.2318C82.0543 93.2318 83.6753 94.8498 83.6753 96.9301ZM77.2684 82.3682H83.9841C82.9034 93.7711 64.9178 93.463 64.9178 81.2895C64.995 69.0391 82.9034 68.8079 83.9841 80.2109H77.2684C76.3421 77.2061 71.9422 77.5142 71.865 81.2895C71.9422 85.1419 76.4193 85.4501 77.2684 82.3682ZM93.0154 96.9301C93.0154 99.0103 91.3944 100.628 89.1559 100.628C86.9173 100.628 85.2963 99.0103 85.2963 96.9301C85.2963 94.8498 86.9173 93.2318 89.1559 93.2318C91.3172 93.2318 93.0154 94.8498 93.0154 96.9301ZM101.584 100.551H99.8083L96.7206 96.6219V100.551H94.7908V93.3859H96.6434L99.5767 97.1612V93.3859H101.506V100.551H101.584ZM103.668 90.4581H95.7171L92.2435 85.2189V90.4581C89.9278 90.4581 87.5349 90.4581 85.2191 90.4581L85.2963 72.4291C87.6121 72.4291 90.005 72.4291 92.3207 72.4291V77.9765L94.4049 74.3553L95.4856 72.4291H102.896V72.6603L97.3381 81.2895L103.668 90.227V90.4581ZM102.433 76.2044L104.826 72.4291H107.759L106.061 76.2044H102.433ZM115.555 72.6603C120.032 72.6603 123.506 74.5865 123.583 78.5929H117.022C117.022 78.0536 116.327 77.7454 115.632 77.7454C115.015 77.7454 114.243 77.9765 114.243 78.6699C114.243 79.2863 114.706 79.5175 115.324 79.5945C118.952 79.9027 123.815 80.365 123.815 85.0648C123.815 89.6106 119.338 90.9975 115.478 90.9975C111.155 90.9975 107.373 88.9942 107.373 84.6026H114.089C114.089 85.4501 114.861 85.6812 115.632 85.6812C116.404 85.6812 117.022 85.4501 117.022 84.8337C117.022 84.2944 116.636 83.9862 115.401 83.8321C111.619 83.5239 107.527 82.8305 107.527 78.2847C107.527 74.6635 111.31 72.6603 115.555 72.6603ZM102.201 60.1016L103.822 63.2606L105.443 60.1016H108.994L105.443 66.6506V69.3473H102.278V66.6506L98.7276 60.1016H102.201ZM90.6225 61.2573C91.5488 60.4098 92.7839 59.9475 94.2505 59.9475C95.7943 59.9475 96.9522 60.4098 97.8785 61.2573C98.8048 62.1819 99.2679 63.2606 99.2679 64.7244C99.2679 66.1883 98.8048 67.344 97.8785 68.1916C96.9522 69.0391 95.7171 69.5014 94.2505 69.5014C92.7067 69.5014 91.5488 69.0391 90.6225 68.1916C89.6962 67.344 89.2331 66.1113 89.2331 64.7244C89.2331 63.2606 89.6962 62.1049 90.6225 61.2573ZM80.6648 60.1016C82.5946 60.0246 84.0613 60.0246 85.0647 60.0246C86.0682 60.0246 86.9173 60.2557 87.5349 60.718C88.1524 61.1803 88.4612 61.7196 88.4612 62.4901C88.4612 63.5687 87.9208 64.4933 86.9945 64.7244C87.998 64.9556 88.6927 65.8802 88.6927 66.8047C88.6927 67.5752 88.384 68.1916 87.6892 68.7309C87.0717 69.1932 86.2226 69.4243 85.1419 69.4243C84.1384 69.4243 82.5946 69.4243 80.5876 69.3473V60.1016H80.6648ZM77.2684 69.3473H74.1036L72.7141 65.1867L71.2475 69.3473H68.0827L65.381 60.1016H68.7774L69.8581 64.2622L71.3247 60.1016H73.872L75.3386 64.2622L76.4193 60.1016H79.8157L77.2684 69.3473ZM94.2505 66.7277C94.7908 66.7277 95.254 66.5736 95.5627 66.1883C95.8715 65.8031 96.0259 65.3408 96.0259 64.7244C96.0259 64.1081 95.8715 63.6458 95.5627 63.2606C95.254 62.8753 94.7908 62.7212 94.2505 62.7212C93.7102 62.7212 93.247 62.8753 92.9382 63.2606C92.6295 63.6458 92.4751 64.1081 92.4751 64.7244C92.4751 65.3408 92.6295 65.8031 92.9382 66.1883C93.3242 66.4965 93.7102 66.7277 94.2505 66.7277ZM89.0787 95.0039C87.998 95.0039 87.3033 95.8514 87.3033 96.9301C87.3033 97.9317 88.0752 98.8562 89.1559 98.8562C90.2366 98.8562 91.0085 98.0087 91.0085 96.9301C90.9313 95.9285 90.2366 95.0039 89.0787 95.0039ZM85.6051 66.1883C85.6051 65.8031 85.2963 65.4949 84.756 65.4949H83.8297V66.9588C84.1384 66.9588 84.4472 66.9588 84.756 66.9588C85.2963 67.0359 85.6051 66.7277 85.6051 66.1883ZM85.4507 63.0294C85.4507 62.6442 85.1419 62.336 84.6016 62.336H83.7525V63.8769H84.5244C85.1419 63.8769 85.4507 63.4917 85.4507 63.0294ZM79.8157 95.0039C78.7351 95.0039 78.0403 95.8514 78.0403 96.9301C78.0403 97.9317 78.8122 98.8562 79.8929 98.8562C80.9736 98.8562 81.7455 98.0087 81.7455 96.9301C81.6683 95.9285 80.9736 95.0039 79.8157 95.0039ZM62.8337 97.7005H64.4547L63.6828 95.6973L62.8337 97.7005ZM60.7495 66.7277C61.2898 66.7277 61.753 66.5736 62.0618 66.1883C62.3705 65.8031 62.5249 65.3408 62.5249 64.7244C62.5249 64.1081 62.3705 63.6458 62.0618 63.2606C61.753 62.8753 61.2898 62.7212 60.7495 62.7212C60.2092 62.7212 59.746 62.8753 59.4372 63.2606C59.1285 63.6458 58.9741 64.1081 58.9741 64.7244C58.9741 65.3408 59.1285 65.8031 59.4372 66.1883C59.8232 66.4965 60.2092 66.7277 60.7495 66.7277ZM54.1111 83.5239H56.2724L55.1917 78.9781L54.1111 83.5239ZM55.1145 78.9781L54.0339 83.5239H56.1952L55.1145 78.9781ZM62.0618 63.2606C61.753 62.8753 61.2898 62.7212 60.7495 62.7212C60.2092 62.7212 59.746 62.8753 59.4372 63.2606C59.1285 63.6458 58.9741 64.1081 58.9741 64.7244C58.9741 65.3408 59.1285 65.8031 59.4372 66.1883C59.746 66.5736 60.2092 66.7277 60.7495 66.7277C61.2898 66.7277 61.753 66.5736 62.0618 66.1883C62.3705 65.8031 62.5249 65.3408 62.5249 64.7244C62.5249 64.1081 62.3705 63.6458 62.0618 63.2606ZM63.6828 95.6973L62.9109 97.7005H64.5319L63.6828 95.6973ZM84.6788 62.336H83.8297V63.8769H84.6016C85.0647 63.8769 85.4507 63.5687 85.4507 63.0294C85.4507 62.5671 85.1419 62.336 84.6788 62.336ZM84.756 65.4949H83.8297V66.9588C84.1384 66.9588 84.4472 66.9588 84.756 66.9588C85.2191 66.9588 85.6051 66.6506 85.6051 66.1113C85.6051 65.8031 85.2963 65.4949 84.756 65.4949ZM95.5627 63.2606C95.254 62.8753 94.7908 62.7212 94.2505 62.7212C93.7102 62.7212 93.247 62.8753 92.9382 63.2606C92.6295 63.6458 92.4751 64.1081 92.4751 64.7244C92.4751 65.3408 92.6295 65.8031 92.9382 66.1883C93.247 66.5736 93.7102 66.7277 94.2505 66.7277C94.7908 66.7277 95.254 66.5736 95.5627 66.1883C95.8715 65.8031 96.0259 65.3408 96.0259 64.7244C96.0259 64.1081 95.8715 63.6458 95.5627 63.2606ZM89.0787 95.0039C87.998 95.0039 87.3033 95.8514 87.3033 96.9301C87.3033 97.9317 88.0752 98.8562 89.1559 98.8562C90.2366 98.8562 91.0085 98.0087 91.0085 96.9301C90.9313 95.9285 90.2366 95.0039 89.0787 95.0039ZM79.8157 95.0039C78.7351 95.0039 78.0403 95.8514 78.0403 96.9301C78.0403 97.9317 78.8122 98.8562 79.8929 98.8562C80.9736 98.8562 81.7455 98.0087 81.7455 96.9301C81.6683 95.9285 80.9736 95.0039 79.8157 95.0039ZM95.5627 63.2606C95.254 62.8753 94.7908 62.7212 94.2505 62.7212C93.7102 62.7212 93.247 62.8753 92.9382 63.2606C92.6295 63.6458 92.4751 64.1081 92.4751 64.7244C92.4751 65.3408 92.6295 65.8031 92.9382 66.1883C93.247 66.5736 93.7102 66.7277 94.2505 66.7277C94.7908 66.7277 95.254 66.5736 95.5627 66.1883C95.8715 65.8031 96.0259 65.3408 96.0259 64.7244C96.0259 64.1081 95.8715 63.6458 95.5627 63.2606ZM89.0787 95.0039C87.998 95.0039 87.3033 95.8514 87.3033 96.9301C87.3033 97.9317 88.0752 98.8562 89.1559 98.8562C90.2366 98.8562 91.0085 98.0087 91.0085 96.9301C90.9313 95.9285 90.2366 95.0039 89.0787 95.0039ZM84.756 65.4949H83.8297V66.9588C84.1384 66.9588 84.4472 66.9588 84.756 66.9588C85.2191 66.9588 85.6051 66.6506 85.6051 66.1113C85.6051 65.8031 85.2963 65.4949 84.756 65.4949ZM84.6788 62.336H83.8297V63.8769H84.6016C85.0647 63.8769 85.4507 63.5687 85.4507 63.0294C85.4507 62.5671 85.1419 62.336 84.6788 62.336ZM79.8157 95.0039C78.7351 95.0039 78.0403 95.8514 78.0403 96.9301C78.0403 97.9317 78.8122 98.8562 79.8929 98.8562C80.9736 98.8562 81.7455 98.0087 81.7455 96.9301C81.6683 95.9285 80.9736 95.0039 79.8157 95.0039ZM63.6828 95.6973L62.9109 97.7005H64.5319L63.6828 95.6973ZM62.0618 63.2606C61.753 62.8753 61.2898 62.7212 60.7495 62.7212C60.2092 62.7212 59.746 62.8753 59.4372 63.2606C59.1285 63.6458 58.9741 64.1081 58.9741 64.7244C58.9741 65.3408 59.1285 65.8031 59.4372 66.1883C59.746 66.5736 60.2092 66.7277 60.7495 66.7277C61.2898 66.7277 61.753 66.5736 62.0618 66.1883C62.3705 65.8031 62.5249 65.3408 62.5249 64.7244C62.5249 64.1081 62.3705 63.6458 62.0618 63.2606ZM55.1145 78.9781L54.0339 83.5239H56.1952L55.1145 78.9781ZM55.1145 78.9781L54.0339 83.5239H56.1952L55.1145 78.9781ZM62.0618 63.2606C61.753 62.8753 61.2898 62.7212 60.7495 62.7212C60.2092 62.7212 59.746 62.8753 59.4372 63.2606C59.1285 63.6458 58.9741 64.1081 58.9741 64.7244C58.9741 65.3408 59.1285 65.8031 59.4372 66.1883C59.746 66.5736 60.2092 66.7277 60.7495 66.7277C61.2898 66.7277 61.753 66.5736 62.0618 66.1883C62.3705 65.8031 62.5249 65.3408 62.5249 64.7244C62.5249 64.1081 62.3705 63.6458 62.0618 63.2606ZM63.6828 95.6973L62.9109 97.7005H64.5319L63.6828 95.6973ZM84.6788 62.336H83.8297V63.8769H84.6016C85.0647 63.8769 85.4507 63.5687 85.4507 63.0294C85.4507 62.5671 85.1419 62.336 84.6788 62.336ZM84.756 65.4949H83.8297V66.9588C84.1384 66.9588 84.4472 66.9588 84.756 66.9588C85.2191 66.9588 85.6051 66.6506 85.6051 66.1113C85.6051 65.8031 85.2963 65.4949 84.756 65.4949ZM95.5627 63.2606C95.254 62.8753 94.7908 62.7212 94.2505 62.7212C93.7102 62.7212 93.247 62.8753 92.9382 63.2606C92.6295 63.6458 92.4751 64.1081 92.4751 64.7244C92.4751 65.3408 92.6295 65.8031 92.9382 66.1883C93.247 66.5736 93.7102 66.7277 94.2505 66.7277C94.7908 66.7277 95.254 66.5736 95.5627 66.1883C95.8715 65.8031 96.0259 65.3408 96.0259 64.7244C96.0259 64.1081 95.8715 63.6458 95.5627 63.2606ZM95.5627 63.2606C95.254 62.8753 94.7908 62.7212 94.2505 62.7212C93.7102 62.7212 93.247 62.8753 92.9382 63.2606C92.6295 63.6458 92.4751 64.1081 92.4751 64.7244C92.4751 65.3408 92.6295 65.8031 92.9382 66.1883C93.247 66.5736 93.7102 66.7277 94.2505 66.7277C94.7908 66.7277 95.254 66.5736 95.5627 66.1883C95.8715 65.8031 96.0259 65.3408 96.0259 64.7244C96.0259 64.1081 95.8715 63.6458 95.5627 63.2606ZM84.756 65.4949H83.8297V66.9588C84.1384 66.9588 84.4472 66.9588 84.756 66.9588C85.2191 66.9588 85.6051 66.6506 85.6051 66.1113C85.6051 65.8031 85.2963 65.4949 84.756 65.4949ZM84.6788 62.336H83.8297V63.8769H84.6016C85.0647 63.8769 85.4507 63.5687 85.4507 63.0294C85.4507 62.5671 85.1419 62.336 84.6788 62.336ZM63.6828 95.6973L62.9109 97.7005H64.5319L63.6828 95.6973ZM62.0618 63.2606C61.753 62.8753 61.2898 62.7212 60.7495 62.7212C60.2092 62.7212 59.746 62.8753 59.4372 63.2606C59.1285 63.6458 58.9741 64.1081 58.9741 64.7244C58.9741 65.3408 59.1285 65.8031 59.4372 66.1883C59.746 66.5736 60.2092 66.7277 60.7495 66.7277C61.2898 66.7277 61.753 66.5736 62.0618 66.1883C62.3705 65.8031 62.5249 65.3408 62.5249 64.7244C62.5249 64.1081 62.3705 63.6458 62.0618 63.2606ZM55.1145 78.9781L54.0339 83.5239H56.1952L55.1145 78.9781ZM55.1145 78.9781L54.0339 83.5239H56.1952L55.1145 78.9781ZM62.0618 63.2606C61.753 62.8753 61.2898 62.7212 60.7495 62.7212C60.2092 62.7212 59.746 62.8753 59.4372 63.2606C59.1285 63.6458 58.9741 64.1081 58.9741 64.7244C58.9741 65.3408 59.1285 65.8031 59.4372 66.1883C59.746 66.5736 60.2092 66.7277 60.7495 66.7277C61.2898 66.7277 61.753 66.5736 62.0618 66.1883C62.3705 65.8031 62.5249 65.3408 62.5249 64.7244C62.5249 64.1081 62.3705 63.6458 62.0618 63.2606ZM84.6788 62.336H83.8297V63.8769H84.6016C85.0647 63.8769 85.4507 63.5687 85.4507 63.0294C85.4507 62.5671 85.1419 62.336 84.6788 62.336ZM84.756 65.4949H83.8297V66.9588C84.1384 66.9588 84.4472 66.9588 84.756 66.9588C85.2191 66.9588 85.6051 66.6506 85.6051 66.1113C85.6051 65.8031 85.2963 65.4949 84.756 65.4949ZM95.5627 63.2606C95.254 62.8753 94.7908 62.7212 94.2505 62.7212C93.7102 62.7212 93.247 62.8753 92.9382 63.2606C92.6295 63.6458 92.4751 64.1081 92.4751 64.7244C92.4751 65.3408 92.6295 65.8031 92.9382 66.1883C93.247 66.5736 93.7102 66.7277 94.2505 66.7277C94.7908 66.7277 95.254 66.5736 95.5627 66.1883C95.8715 65.8031 96.0259 65.3408 96.0259 64.7244C96.0259 64.1081 95.8715 63.6458 95.5627 63.2606ZM95.5627 63.2606C95.254 62.8753 94.7908 62.7212 94.2505 62.7212C93.7102 62.7212 93.247 62.8753 92.9382 63.2606C92.6295 63.6458 92.4751 64.1081 92.4751 64.7244C92.4751 65.3408 92.6295 65.8031 92.9382 66.1883C93.247 66.5736 93.7102 66.7277 94.2505 66.7277C94.7908 66.7277 95.254 66.5736 95.5627 66.1883C95.8715 65.8031 96.0259 65.3408 96.0259 64.7244C96.0259 64.1081 95.8715 63.6458 95.5627 63.2606ZM84.756 65.4949H83.8297V66.9588C84.1384 66.9588 84.4472 66.9588 84.756 66.9588C85.2191 66.9588 85.6051 66.6506 85.6051 66.1113C85.6051 65.8031 85.2963 65.4949 84.756 65.4949ZM84.6788 62.336H83.8297V63.8769H84.6016C85.0647 63.8769 85.4507 63.5687 85.4507 63.0294C85.4507 62.5671 85.1419 62.336 84.6788 62.336ZM62.0618 63.2606C61.753 62.8753 61.2898 62.7212 60.7495 62.7212C60.2092 62.7212 59.746 62.8753 59.4372 63.2606C59.1285 63.6458 58.9741 64.1081 58.9741 64.7244C58.9741 65.3408 59.1285 65.8031 59.4372 66.1883C59.746 66.5736 60.2092 66.7277 60.7495 66.7277C61.2898 66.7277 61.753 66.5736 62.0618 66.1883C62.3705 65.8031 62.5249 65.3408 62.5249 64.7244C62.5249 64.1081 62.3705 63.6458 62.0618 63.2606ZM55.1145 78.9781L54.0339 83.5239H56.1952L55.1145 78.9781ZM55.1145 78.9781L54.0339 83.5239H56.1952L55.1145 78.9781ZM62.0618 63.2606C61.753 62.8753 61.2898 62.7212 60.7495 62.7212C60.2092 62.7212 59.746 62.8753 59.4372 63.2606C59.1285 63.6458 58.9741 64.1081 58.9741 64.7244C58.9741 65.3408 59.1285 65.8031 59.4372 66.1883C59.746 66.5736 60.2092 66.7277 60.7495 66.7277C61.2898 66.7277 61.753 66.5736 62.0618 66.1883C62.3705 65.8031 62.5249 65.3408 62.5249 64.7244C62.5249 64.1081 62.3705 63.6458 62.0618 63.2606ZM84.6788 62.336H83.8297V63.8769H84.6016C85.0647 63.8769 85.4507 63.5687 85.4507 63.0294C85.4507 62.5671 85.1419 62.336 84.6788 62.336ZM84.756 65.4949H83.8297V66.9588C84.1384 66.9588 84.4472 66.9588 84.756 66.9588C85.2191 66.9588 85.6051 66.6506 85.6051 66.1113C85.6051 65.8031 85.2963 65.4949 84.756 65.4949ZM95.5627 63.2606C95.254 62.8753 94.7908 62.7212 94.2505 62.7212C93.7102 62.7212 93.247 62.8753 92.9382 63.2606C92.6295 63.6458 92.4751 64.1081 92.4751 64.7244C92.4751 65.3408 92.6295 65.8031 92.9382 66.1883C93.247 66.5736 93.7102 66.7277 94.2505 66.7277C94.7908 66.7277 95.254 66.5736 95.5627 66.1883C95.8715 65.8031 96.0259 65.3408 96.0259 64.7244C96.0259 64.1081 95.8715 63.6458 95.5627 63.2606ZM95.5627 63.2606C95.254 62.8753 94.7908 62.7212 94.2505 62.7212C93.7102 62.7212 93.247 62.8753 92.9382 63.2606C92.6295 63.6458 92.4751 64.1081 92.4751 64.7244C92.4751 65.3408 92.6295 65.8031 92.9382 66.1883C93.247 66.5736 93.7102 66.7277 94.2505 66.7277C94.7908 66.7277 95.254 66.5736 95.5627 66.1883C95.8715 65.8031 96.0259 65.3408 96.0259 64.7244C96.0259 64.1081 95.8715 63.6458 95.5627 63.2606ZM84.756 65.4949H83.8297V66.9588C84.1384 66.9588 84.4472 66.9588 84.756 66.9588C85.2191 66.9588 85.6051 66.6506 85.6051 66.1113C85.6051 65.8031 85.2963 65.4949 84.756 65.4949ZM84.6788 62.336H83.8297V63.8769H84.6016C85.0647 63.8769 85.4507 63.5687 85.4507 63.0294C85.4507 62.5671 85.1419 62.336 84.6788 62.336ZM62.0618 63.2606C61.753 62.8753 61.2898 62.7212 60.7495 62.7212C60.2092 62.7212 59.746 62.8753 59.4372 63.2606C59.1285 63.6458 58.9741 64.1081 58.9741 64.7244C58.9741 65.3408 59.1285 65.8031 59.4372 66.1883C59.746 66.5736 60.2092 66.7277 60.7495 66.7277C61.2898 66.7277 61.753 66.5736 62.0618 66.1883C62.3705 65.8031 62.5249 65.3408 62.5249 64.7244C62.5249 64.1081 62.3705 63.6458 62.0618 63.2606ZM55.1145 78.9781L54.0339 83.5239H56.1952L55.1145 78.9781ZM55.1145 78.9781L54.0339 83.5239H56.1952L55.1145 78.9781ZM84.6788 62.336H83.8297V63.8769H84.6016C85.0647 63.8769 85.4507 63.5687 85.4507 63.0294C85.4507 62.5671 85.1419 62.336 84.6788 62.336ZM84.756 65.4949H83.8297V66.9588C84.1384 66.9588 84.4472 66.9588 84.756 66.9588C85.2191 66.9588 85.6051 66.6506 85.6051 66.1113C85.6051 65.8031 85.2963 65.4949 84.756 65.4949ZM95.5627 63.2606C95.254 62.8753 94.7908 62.7212 94.2505 62.7212C93.7102 62.7212 93.247 62.8753 92.9382 63.2606C92.6295 63.6458 92.4751 64.1081 92.4751 64.7244C92.4751 65.3408 92.6295 65.8031 92.9382 66.1883C93.247 66.5736 93.7102 66.7277 94.2505 66.7277C94.7908 66.7277 95.254 66.5736 95.5627 66.1883C95.8715 65.8031 96.0259 65.3408 96.0259 64.7244C96.0259 64.1081 95.8715 63.6458 95.5627 63.2606ZM95.5627 63.2606C95.254 62.8753 94.7908 62.7212 94.2505 62.7212C93.7102 62.7212 93.247 62.8753 92.9382 63.2606C92.6295 63.6458 92.4751 64.1081 92.4751 64.7244C92.4751 65.3408 92.6295 65.8031 92.9382 66.1883C93.247 66.5736 93.7102 66.7277 94.2505 66.7277C94.7908 66.7277 95.254 66.5736 95.5627 66.1883C95.8715 65.8031 96.0259 65.3408 96.0259 64.7244C96.0259 64.1081 95.8715 63.6458 95.5627 63.2606ZM84.756 65.4949H83.8297V66.9588C84.1384 66.9588 84.4472 66.9588 84.756 66.9588C85.2191 66.9588 85.6051 66.6506 85.6051 66.1113C85.6051 65.8031 85.2963 65.4949 84.756 65.4949ZM84.6788 62.336H83.8297V63.8769H84.6016C85.0647 63.8769 85.4507 63.5687 85.4507 63.0294C85.4507 62.5671 85.1419 62.336 84.6788 62.336ZM55.1145 78.9781L54.0339 83.5239H56.1952L55.1145 78.9781ZM55.1145 78.9781L54.0339 83.5239H56.1952L55.1145 78.9781ZM55.1145 78.9781L54.0339 83.5239H56.1952L55.1145 78.9781ZM55.1145 78.9781L54.0339 83.5239H56.1952L55.1145 78.9781ZM55.1145 78.9781L54.0339 83.5239H56.1952L55.1145 78.9781Z" fill="black"/>
</svg>
