<svg width="159" height="155" viewBox="0 0 159 155" fill="none" xmlns="http://www.w3.org/2000/svg">
<path d="M111.106 95.0827C111.292 95.4619 111.385 95.8411 111.385 96.1255C111.385 96.2203 111.385 96.2203 111.385 96.3151L111.199 98.3059C111.292 98.4955 111.292 98.6851 111.292 98.9695C111.292 99.1591 111.292 99.2539 111.292 99.2539C111.199 99.2539 111.106 99.3487 111.106 99.4435L110.92 99.5383L110.548 99.2539C110.269 98.9695 110.176 98.7799 110.176 98.5903C110.083 98.4955 109.99 98.2111 109.99 97.9267C109.99 97.8319 109.99 97.7371 109.99 97.7371L110.083 96.1255V96.0307C110.083 95.6515 109.897 95.4619 109.618 95.4619C109.618 95.4619 109.525 95.4619 109.432 95.4619C108.688 95.5567 107.851 96.1255 106.735 97.4527C106.642 97.5475 106.456 97.6423 106.084 97.8319L105.991 97.9267L105.898 97.8319H105.806H105.713C105.713 97.8319 105.713 97.7371 105.62 97.6423C105.527 97.6423 105.434 97.6423 105.434 97.7371C105.434 97.6423 105.341 97.6423 105.248 97.6423C105.155 97.1683 105.062 96.8839 105.062 96.6943V95.7463C105.062 95.6515 105.062 95.6515 105.062 95.6515L105.155 93.6606C105.155 93.5658 105.155 93.471 105.155 93.3762C105.155 93.2814 105.155 93.2814 105.155 93.1866C105.155 93.0918 105.155 93.0918 105.155 92.997C105.155 92.997 105.155 92.9022 105.155 92.7126C105.155 92.523 105.248 91.7646 105.341 90.5322C105.341 90.4374 105.434 90.3426 105.62 90.2478H105.713C105.806 90.2478 105.991 90.3426 106.177 90.5322C106.27 90.627 106.363 90.7218 106.456 90.8166C106.549 91.1958 106.549 91.4802 106.549 91.6698L106.456 92.997V93.3762V93.8503V95.2723C106.549 95.1775 106.828 94.9879 107.107 94.8931C107.107 94.8931 107.386 94.7035 107.758 94.3243C107.944 94.2295 108.037 94.2295 108.223 94.1347C108.688 93.9451 109.06 93.7554 109.525 93.7554C109.711 93.8503 109.804 93.8503 109.804 93.8503C110.269 93.9451 110.641 94.3243 111.106 95.0827ZM117.523 95.5567C117.523 95.7463 117.616 96.0307 117.616 96.2203C117.616 96.5047 117.523 96.6943 117.43 96.8839C117.43 96.8839 117.43 96.9787 117.337 97.0735C117.244 97.2631 117.058 97.4527 116.872 97.7371C116.5 97.9267 116.221 98.2111 115.849 98.4007C115.105 98.6851 114.547 98.7799 114.175 98.7799H113.896H113.803C113.71 98.7799 113.431 98.6851 113.059 98.5903C112.873 98.4955 112.594 98.3059 112.315 98.0215C112.315 97.9267 112.222 97.8319 112.129 97.6423C112.036 97.2631 111.943 96.9787 111.943 96.7891V96.3151V95.6515C111.943 95.6515 111.943 95.5567 112.036 95.3671C112.129 95.1775 112.129 95.0827 112.129 94.9879C112.222 94.7983 112.408 94.6087 112.873 94.3243C112.966 94.3243 113.059 94.2295 113.245 94.2295C113.245 94.2295 113.338 94.1347 113.431 94.1347L113.71 94.0399C113.896 93.9451 114.082 93.945 114.175 93.945H115.105C115.198 93.945 115.291 93.9451 115.477 94.0399C115.663 94.0399 116.128 94.2295 116.779 94.7035V94.7983C116.872 94.8931 117.058 94.9879 117.244 95.0827C117.244 94.8931 117.337 95.0827 117.523 95.5567ZM116.5 95.7463C116.221 95.3671 116.035 95.0827 115.849 95.0827H115.756C115.663 94.9879 115.57 94.8931 115.291 94.8931H115.198H114.64L113.524 95.0827L113.431 95.1775V95.5567C113.431 95.5567 113.431 95.6515 113.431 95.7463C113.431 95.7463 113.431 95.8411 113.338 95.8411C113.338 95.9359 113.338 95.9359 113.431 95.9359C113.338 96.0307 113.338 96.0307 113.245 96.0307C113.245 96.0307 113.245 96.1255 113.152 96.3151C113.059 96.5047 113.059 96.5995 113.059 96.5995C113.059 96.5995 113.059 96.5995 113.059 96.6943C113.152 96.7891 113.338 96.8839 113.524 96.9787C113.71 97.0735 113.896 97.0735 114.082 97.0735C114.454 96.9787 114.64 96.9787 114.733 96.9787L115.477 96.6943C115.849 96.5047 116.128 96.4099 116.221 96.3151C116.407 96.2203 116.407 96.0307 116.407 95.9359V95.7463H116.5ZM122.916 95.1775C122.916 95.0827 122.916 95.0827 122.916 94.9879C122.916 94.8931 122.916 94.8931 122.916 94.8931C122.823 94.7035 122.73 94.5139 122.637 94.4191C122.544 94.3243 122.544 94.3243 122.544 94.3243H122.358C122.358 94.3243 122.358 94.3243 122.265 94.3243H122.172C122.079 94.4191 121.986 94.7035 121.893 94.9879C121.707 95.4619 121.614 95.8411 121.614 95.9359C121.614 96.1255 121.428 96.4099 121.242 96.5995C121.149 96.6943 120.87 96.8839 120.591 97.0735C120.405 97.1683 120.219 97.1683 120.219 97.1683H120.033C120.033 97.1683 119.94 97.0735 119.661 96.9787C119.475 96.6943 119.382 96.5047 119.382 96.3151C119.382 95.9359 119.196 95.6515 118.824 95.4619C118.732 95.4619 118.639 95.5567 118.453 95.6515C118.36 95.9359 118.36 96.1255 118.36 96.2203C118.36 96.4099 118.36 96.5995 118.453 96.9787C119.01 98.1163 119.568 98.6851 120.312 98.6851C120.405 98.6851 120.498 98.6851 120.87 98.5903C121.056 98.4955 121.149 98.4007 121.242 98.4007C121.428 98.3059 121.707 98.2111 121.893 97.9267C121.986 97.8319 122.172 97.5475 122.358 97.2631C122.544 96.8839 122.73 96.5995 122.73 96.4099C122.823 95.9359 122.916 95.5567 122.916 95.3671C122.916 95.3671 122.916 95.3671 122.916 95.1775C122.916 95.2723 122.916 95.1775 122.916 95.1775ZM125.52 95.3671C125.427 95.2723 125.427 95.2723 125.334 95.2723C125.334 95.2723 125.334 95.2723 125.334 95.1775L125.985 95.0827C126.078 95.0827 126.264 95.0827 126.729 95.1775C127.101 95.2723 127.287 95.3671 127.287 95.3671H127.38L127.659 95.1775V95.0827C127.659 95.0827 127.659 94.9879 127.752 94.8931C127.752 94.7983 127.845 94.7983 127.845 94.7983C127.752 94.5139 127.566 94.3243 127.287 94.2295C127.194 94.1347 126.915 94.0399 126.543 93.945C125.985 93.8503 125.706 93.8503 125.706 93.8503C124.497 93.8503 123.846 94.0399 123.846 94.3243C123.753 94.4191 123.753 94.5139 123.753 94.5139V94.9879C123.753 95.0827 123.846 95.0827 123.846 95.1775C123.939 95.6515 124.497 96.1255 125.427 96.5995C125.706 96.6943 125.892 96.7891 125.985 96.7891C126.078 96.8839 126.078 96.8839 126.078 96.8839C126.078 96.8839 126.078 96.8839 125.985 96.9787L125.241 97.0735H124.962L124.497 97.1683H124.125C124.032 97.1683 123.939 97.1683 123.66 97.2631C123.66 97.3579 123.753 97.3579 123.753 97.4527C123.753 97.5475 123.753 97.5475 123.753 97.6423L123.846 97.7371C123.846 97.7371 123.846 97.7371 123.846 97.8319C123.939 97.9267 123.939 98.0215 123.939 98.0215C124.032 98.0215 124.125 98.1163 124.311 98.1163C124.497 98.2111 124.683 98.2111 124.683 98.2111H125.055L125.52 98.3059C125.613 98.3059 125.613 98.3059 125.799 98.3059H125.892C126.078 98.3059 126.264 98.4007 126.264 98.4007C126.45 98.4007 126.822 98.3059 127.194 98.1163C127.566 97.9267 127.845 97.8319 127.845 97.7371C127.938 97.5475 127.938 97.4527 127.938 97.2631C127.845 96.6943 127.008 96.0307 125.52 95.3671ZM133.238 97.7371C133.238 97.7371 133.145 97.7371 133.052 97.8319C133.145 97.8319 133.238 97.9267 133.331 97.9267C133.331 97.9267 133.238 98.0215 133.052 98.1163C132.959 98.2111 132.68 98.2111 132.494 98.3059C132.401 98.4007 132.401 98.4007 132.308 98.4955L131.1 98.6851C130.263 98.5903 129.519 98.4007 129.054 98.1163C128.682 97.7371 128.496 97.2631 128.31 96.7891C128.31 96.6943 128.217 96.6943 128.217 96.5995C128.217 96.3151 128.31 95.9359 128.589 95.4619C128.868 94.9879 129.24 94.6087 129.519 94.5139C129.519 94.5139 129.612 94.5139 129.705 94.5139C129.891 94.4191 130.077 94.2295 130.542 94.1347C130.914 94.0399 131.193 94.0399 131.379 94.0399C131.565 94.0399 131.843 94.1347 132.122 94.2295V94.3243C132.215 94.3243 132.215 94.3243 132.308 94.4191C132.308 94.4191 132.308 94.5139 132.401 94.5139C132.401 94.6087 132.401 94.7983 132.494 94.9879V95.1775C132.494 95.1775 132.494 95.2723 132.401 95.2723V95.3671C132.401 95.4619 132.401 95.5567 132.308 95.6515C132.308 95.6515 132.308 95.7463 132.308 95.8411C132.215 95.9359 132.122 96.1255 132.029 96.3151L131.007 97.0735C131.1 97.1683 131.379 97.1683 131.843 97.1683H133.052C133.145 97.2631 133.238 97.3579 133.331 97.4527C133.331 97.5475 133.238 97.6423 133.145 97.7371C133.331 97.7371 133.331 97.7371 133.238 97.7371ZM131.286 95.2723C131.007 95.2723 130.821 95.3671 130.728 95.3671C130.542 95.4619 130.356 95.6515 130.263 95.7463C130.263 95.7463 130.263 95.7463 130.356 95.7463C130.821 95.7463 131.1 95.5567 131.286 95.2723ZM86.184 78.5872C86.742 79.156 87.021 80.0092 87.021 81.1469C87.021 81.9053 86.742 83.1377 85.4401 83.9909C85.1611 84.1805 84.8821 84.3701 84.5102 84.6545C84.6031 85.1285 84.6961 85.6025 84.6961 86.0765C84.6961 88.257 83.0223 90.7218 79.4885 93.8503C76.9777 96.0307 75.0249 97.4527 73.63 98.1163C72.8861 98.4955 71.7701 98.6851 70.1893 98.6851C65.6326 98.6851 62.0989 97.2631 59.5881 94.4191C57.3563 91.9542 56.2403 88.6362 56.2403 84.7493C56.2403 83.6117 56.6123 81.9053 57.2633 79.63C57.3563 79.156 57.7282 78.3976 59.4021 76.1224L59.4951 76.0276L59.5881 75.9328C62.3779 73.6575 64.5167 72.1407 66.0976 71.2875C68.2364 70.1499 70.5612 69.5811 72.979 69.5811C73.816 69.5811 74.4669 70.1499 75.0249 70.8135C75.5828 71.4771 75.8618 72.0459 75.9548 72.5199C76.2338 73.2783 76.5128 74.1316 76.2338 74.89L76.0478 75.4588C76.0478 75.5536 75.9548 75.5536 75.9548 75.5536L75.4899 75.7432C75.3969 75.7432 75.2109 75.9328 75.0249 76.0276C74.6529 76.312 74.188 76.5016 73.816 76.6912C73.723 76.786 73.444 76.9756 73.072 77.26L72.979 77.3548L72.8861 77.4496C72.0491 77.8288 71.3982 78.208 70.8402 78.682C71.5842 78.3976 72.4211 78.208 73.351 77.9236C74.095 77.734 75.0249 77.6392 76.3268 77.734C76.6058 77.734 76.7917 77.734 77.0707 77.734C77.8147 77.734 78.1866 77.734 78.3726 77.6392C79.3955 77.26 81.0694 76.8808 83.4872 76.312L84.2312 76.1224C84.3242 76.1224 84.4172 76.1224 84.4172 76.2172L84.8821 76.786C84.9751 76.9756 85.0681 76.9756 85.0681 77.0704L85.4401 77.3548C85.5331 77.3548 85.5331 77.4496 85.5331 77.4496L85.6261 77.8288C85.7191 78.0184 85.812 78.208 86.184 78.5872ZM86.649 81.0521C86.649 80.104 86.37 79.3456 85.905 78.8716C85.4401 78.3976 85.3471 78.208 85.2541 78.1132C85.2541 78.1132 85.2541 78.1132 85.2541 78.0184L85.1611 77.6392L84.8821 77.4496C84.7891 77.3548 84.6961 77.3548 84.6031 77.1652L84.2312 76.6912L83.5802 76.786C81.2554 77.26 79.5815 77.734 78.5586 78.1132C78.0007 78.208 77.3497 78.208 76.3268 78.208C75.1179 78.208 74.188 78.208 73.444 78.3976C71.8631 78.7768 70.4682 79.2508 69.3523 79.7248C69.2593 79.8196 69.0733 79.7248 69.0733 79.63C68.9804 79.5352 69.0733 79.3456 69.1663 79.3456L70.1893 78.5872C70.8402 77.9236 71.6771 77.4496 72.7001 76.9756L72.8861 76.8808C73.258 76.5964 73.537 76.4068 73.723 76.312C74.095 76.1224 74.5599 75.838 74.9319 75.6484C75.1179 75.5536 75.3039 75.364 75.3969 75.364L75.8618 75.1744L75.9548 74.7004C76.2338 74.0367 75.9548 73.3731 75.6758 72.6147C75.6758 72.6147 75.6758 72.6147 75.6758 72.5199C75.5828 72.0459 75.3969 71.5719 74.8389 71.0031C74.3739 70.5291 73.816 69.9603 73.165 69.9603C70.8402 69.9603 68.5154 70.5291 66.4696 71.5719C64.8887 72.4251 62.7498 73.8471 60.053 76.1224L59.9601 76.2172L59.8671 76.312C58.2862 78.4924 57.9142 79.2508 57.8212 79.7248C57.1703 82.0001 56.7983 83.6117 56.7983 84.6545C56.7983 88.4466 57.9142 91.6698 60.053 94.0399C62.4709 96.7891 65.9116 98.2111 70.2823 98.2111C71.6772 98.2111 72.7931 98.0215 73.537 97.6423C75.0249 96.9787 76.8847 95.5567 79.3026 93.471C82.7433 90.4374 84.3242 88.0674 84.3242 86.0765C84.3242 85.6025 84.2312 85.1285 84.1382 84.6545C84.1382 84.5597 84.1382 84.4649 84.2312 84.3701C84.6031 84.0857 84.8821 83.8961 85.2541 83.6117C86.37 82.7585 86.649 81.8105 86.649 81.0521ZM84.1382 78.4924C84.0452 78.3976 83.8592 78.208 83.6732 78.0184C81.3484 78.4924 79.6745 78.9664 78.6516 79.2508C78.1866 79.4404 77.3497 79.4404 76.1408 79.4404C75.0249 79.4404 74.188 79.4404 73.63 79.63C70.7472 80.2936 68.7014 81.2417 67.3995 82.3793C67.0275 82.7585 66.8415 83.2325 66.8415 83.7065C66.8415 83.9909 67.3995 84.9389 68.5154 86.7401C68.7944 86.8349 69.3523 87.0245 70.0033 87.3089C70.6542 87.5934 71.0262 87.6882 71.1192 87.6882C71.3052 87.6882 72.2351 87.4038 74.095 86.7401C75.9548 86.1713 76.9777 85.7921 77.0707 85.7921C77.1637 85.7921 77.2567 85.9817 77.2567 86.2661C74.7459 88.8258 72.5141 90.153 70.4682 90.3426C70.3752 90.3426 70.1893 90.4374 70.0033 90.5322C69.8173 90.627 69.6313 90.7218 69.4453 90.7218C67.9574 90.7218 66.6555 90.2478 65.7256 89.2998C64.6097 88.1622 64.0517 86.6453 64.0517 84.6545C64.0517 83.2325 64.2377 82.2845 64.6097 81.8105C65.2606 80.9573 66.1906 80.1988 67.3065 79.4404L69.2593 78.1132C70.0033 77.3548 71.0262 76.786 72.1421 76.312C72.6071 76.0276 72.8861 75.838 72.979 75.7432C73.537 75.5536 74.4669 74.7952 74.7459 74.7004C74.9319 74.3212 74.3739 73.2783 74.3739 73.1835C74.3739 72.9939 74.188 72.6147 73.816 72.1407C73.444 71.6667 73.165 71.3823 72.979 71.3823C70.7472 71.3823 68.7014 71.8563 66.7485 72.8991C65.2606 73.6575 63.1218 75.1744 60.518 77.3548C59.4021 78.9664 58.7511 80.0092 58.6582 80.3884C58.0072 82.4741 57.6352 84.0857 57.6352 85.0337C57.6352 88.5414 58.6582 91.4802 60.611 93.6606C62.8428 96.2203 66.0046 97.4527 70.0963 97.4527C71.3982 97.4527 72.3281 97.2631 72.8861 96.9787C74.188 96.3151 76.0478 94.9879 78.4656 92.9022C81.6274 90.153 83.1153 87.9726 83.1153 86.2661C83.1153 85.5077 82.9293 84.8441 82.5573 84.3701C83.2083 83.8961 83.8592 83.4221 84.5102 82.9481C85.1611 82.4741 85.4401 82.0001 85.4401 81.3365C85.4401 80.6728 85.2541 80.1988 84.9751 79.9144C84.6031 79.2508 84.2312 78.7768 84.1382 78.4924ZM133.424 77.6392C133.517 78.1132 133.61 78.5872 133.61 79.0612C133.61 81.2417 131.936 83.7065 128.403 86.8349C125.892 89.0154 123.939 90.4374 122.544 91.101C121.8 91.4802 120.684 91.6698 119.103 91.6698C114.547 91.6698 111.013 90.2478 108.502 87.4038C106.27 84.9389 105.155 81.6209 105.155 77.734C105.155 76.5964 105.527 74.89 106.177 72.6147C106.27 72.1407 106.642 71.3823 108.316 69.1071L108.409 69.0123L108.502 68.9175C111.292 66.6422 113.431 65.1254 115.012 64.2722C117.151 63.1346 119.475 62.5658 121.893 62.5658C122.73 62.5658 123.381 63.1346 123.939 63.7982C124.497 64.4618 124.776 65.0306 124.869 65.5046C125.148 66.263 125.427 67.1162 125.148 67.8747L124.962 68.4435C124.962 68.5383 124.869 68.5383 124.869 68.5383L124.404 68.7279C124.311 68.7279 124.125 68.9175 123.939 69.0123C123.567 69.2967 123.102 69.4863 122.73 69.6759C122.637 69.7707 122.358 69.9603 121.986 70.2447L121.893 70.3395L121.8 70.4343C120.963 70.8135 120.312 71.1927 119.754 71.6667C120.498 71.3823 121.335 71.1927 122.265 70.9083C123.009 70.7187 123.939 70.6239 125.241 70.7187C125.52 70.7187 125.706 70.7187 125.985 70.7187C126.729 70.7187 127.101 70.7187 127.287 70.6239C128.31 70.2447 129.984 69.8655 132.401 69.2967L133.145 69.1071C133.238 69.1071 133.331 69.1071 133.331 69.2019L133.796 69.7707C133.889 69.9603 133.982 69.9603 133.982 70.0551L134.354 70.3395C134.447 70.3395 134.447 70.4343 134.447 70.4343L134.54 70.9083C134.54 71.0031 134.726 71.1927 135.098 71.5719C135.656 72.1407 135.935 72.9939 135.935 74.1315C135.935 74.89 135.656 76.1224 134.354 76.9756C133.982 77.1652 133.703 77.3548 133.424 77.6392ZM133.145 79.0612C133.145 78.5872 133.052 78.1132 132.959 77.6392C132.959 77.5444 132.959 77.4496 133.052 77.3548C133.424 77.0704 133.703 76.8808 134.075 76.5964C135.284 75.7432 135.47 74.7952 135.47 74.1315C135.47 73.1835 135.191 72.4251 134.726 71.9511C134.354 71.5719 134.168 71.2875 134.075 71.1927C134.075 71.1927 134.075 71.1927 134.075 71.0979L133.982 70.7187L133.703 70.5291C133.61 70.4343 133.517 70.4343 133.424 70.2447L133.052 69.7707L132.401 69.8655C130.077 70.3395 128.403 70.8135 127.38 71.1927C126.822 71.2875 126.171 71.2875 125.148 71.2875C123.939 71.2875 123.009 71.2875 122.265 71.4771C120.684 71.8563 119.289 72.3303 118.174 72.8043C118.081 72.8991 117.895 72.8043 117.895 72.7095C117.802 72.6147 117.895 72.4251 117.988 72.4251L119.01 71.6667C119.661 71.0031 120.498 70.5291 121.521 70.0551L121.707 69.9603C122.079 69.6759 122.358 69.4863 122.544 69.3915C122.916 69.2019 123.381 68.9175 123.753 68.7279C123.939 68.6331 124.125 68.4435 124.218 68.4435L124.683 68.2539L124.869 67.7799C125.148 67.1162 124.869 66.4526 124.59 65.6942C124.59 65.6942 124.59 65.6942 124.59 65.5994C124.497 65.1254 124.311 64.6514 123.753 64.0826C123.288 63.5138 122.73 62.945 122.079 62.945C119.754 62.945 117.43 63.5138 115.384 64.5566C113.803 65.4098 111.664 66.8318 108.967 69.1071L108.874 69.2019L108.781 69.2967C107.2 71.4771 106.828 72.2355 106.735 72.7095C106.084 74.9848 105.713 76.5964 105.713 77.6392C105.713 81.4313 106.828 84.6545 108.967 87.0245C111.385 89.7738 114.826 91.1958 119.196 91.1958C120.591 91.1958 121.707 91.0062 122.451 90.627C123.939 89.9634 125.799 88.5414 128.217 86.4557C131.565 83.4221 133.145 81.0521 133.145 79.0612ZM133.424 75.838C134.075 75.364 134.354 74.89 134.354 74.2264C134.354 73.5627 134.168 73.0887 133.889 72.8043C133.331 72.2355 133.052 71.8563 132.959 71.5719C132.866 71.4771 132.68 71.2875 132.494 71.0979C130.17 71.5719 128.496 72.0459 127.473 72.3303C126.915 72.4251 126.078 72.5199 124.962 72.4251C123.846 72.4251 123.009 72.4251 122.451 72.6147C119.568 73.2783 117.523 74.2264 116.221 75.364C115.849 75.7432 115.663 76.2172 115.663 76.6912C115.663 76.9756 116.221 77.9236 117.337 79.7248C117.616 79.8196 118.174 80.0092 118.824 80.2936C119.475 80.578 119.847 80.6728 119.94 80.6728C120.033 80.6728 121.056 80.3884 122.916 79.7248C124.776 79.156 125.706 78.7768 125.892 78.7768C125.985 78.7768 126.078 78.9664 126.078 79.2508C123.567 81.8105 121.335 83.1377 119.289 83.3273C119.196 83.3273 119.01 83.4221 118.824 83.5169C118.639 83.6117 118.453 83.7065 118.267 83.7065C116.779 83.7065 115.477 83.2325 114.547 82.2845C113.431 81.1469 112.873 79.63 112.873 77.6392C112.873 76.2172 113.059 75.2692 113.431 74.7952C114.082 73.9419 115.012 73.1835 116.128 72.4251L118.081 71.0979C118.825 70.3395 119.847 69.7707 120.963 69.2967C121.428 69.0123 121.707 68.8227 121.8 68.7279C122.358 68.5383 123.288 67.7799 123.567 67.6851C123.753 67.3058 123.195 66.263 123.195 66.1682C123.195 65.9786 123.009 65.5994 122.637 65.1254C122.265 64.6514 121.986 64.367 121.8 64.367C119.568 64.367 117.523 64.841 115.57 65.8838C114.082 66.6422 111.943 68.1591 109.339 70.3395C108.223 71.9511 107.572 72.9939 107.479 73.3731C106.828 75.4588 106.456 77.0704 106.456 78.0184C106.456 81.5261 107.479 84.4649 109.432 86.6453C111.664 89.205 114.826 90.4374 118.917 90.4374C120.219 90.4374 121.149 90.2478 121.707 89.9634C123.009 89.2998 124.869 87.9726 127.287 85.8869C130.449 83.1377 131.936 80.9573 131.936 79.2508C131.936 78.4924 131.751 77.8288 131.379 77.3548C132.122 76.786 132.773 76.312 133.424 75.838ZM103.946 80.7677C104.597 81.6209 104.876 82.9481 104.876 84.9389C104.876 85.1285 104.876 85.4129 104.783 85.7921C104.69 86.0765 104.69 86.1713 104.69 86.1713C104.69 86.6453 104.504 87.2141 104.225 87.9726C104.132 88.257 104.039 88.4466 104.039 88.4466V88.5414C103.946 89.0154 103.946 89.205 103.946 89.2998L104.132 89.7738C104.132 89.8686 104.132 89.9634 104.132 89.9634L103.853 90.5322C103.481 91.1958 103.016 92.049 102.179 93.1866C101.9 93.6606 101.342 94.3243 100.412 95.2723C99.854 95.8411 99.017 96.5047 97.9011 97.2631C96.3202 98.4007 95.7623 98.5903 95.2973 98.5903H93.6235C92.1356 98.5903 90.0897 97.9267 88.6018 94.7035C87.7649 92.9022 87.2999 91.0062 87.2999 89.205C87.2999 86.7401 87.6719 84.2753 88.4159 81.9053C88.8808 80.4832 89.6248 79.3456 90.6477 78.682C91.9496 77.8288 93.4375 77.4496 95.1113 77.4496C95.2973 77.4496 95.4833 77.4496 96.3202 77.6392C96.9712 77.734 97.1572 77.734 97.2502 77.734H97.5291H97.6221L97.9011 77.8288C97.9941 77.9236 98.6451 78.1132 101.063 78.5872H101.249C101.249 78.5872 101.249 78.5872 101.342 78.5872L101.528 78.682C102.179 79.0612 102.923 79.5352 103.76 80.2936L103.853 80.3884L103.946 80.7677ZM104.411 84.9389C104.411 83.1377 104.132 81.9053 103.574 81.0521L103.481 80.9573L103.388 80.8625C102.551 80.1988 101.807 79.63 101.249 79.3456L101.063 79.2508H100.877C98.4591 78.7768 97.8081 78.5872 97.6221 78.4924L97.4361 78.3976H97.2502C97.1572 78.3976 96.8782 78.3976 96.2272 78.208C95.3903 78.0184 95.2043 78.0184 95.1113 78.0184C93.5305 78.0184 92.0426 78.3976 90.9267 79.156C89.9967 79.8196 89.3458 80.7677 88.8808 82.0949C88.1369 84.3701 87.7649 86.8349 87.7649 89.2998C87.7649 91.0062 88.2299 92.8074 88.9738 94.6087C90.3687 97.5475 92.2286 98.2111 93.5305 98.2111H95.2043C95.6693 98.2111 96.1343 98.0215 97.6221 96.9787C98.6451 96.2203 99.482 95.6515 100.04 95.0827C100.97 94.1347 101.528 93.471 101.807 93.0918C102.551 91.9542 103.109 91.101 103.388 90.5322L103.667 90.0582L103.481 89.5842V89.4894C103.481 89.3946 103.481 89.1102 103.574 88.6362V88.5414C103.574 88.4466 103.667 88.257 103.853 87.8778C104.132 87.2141 104.318 86.7401 104.318 86.2661C104.318 86.2661 104.318 86.1713 104.411 85.7921C104.411 85.3181 104.411 85.1285 104.411 84.9389ZM102.737 81.9053C103.202 82.4741 103.388 83.5169 103.388 85.1285C103.388 85.2233 103.388 85.4129 103.295 85.6973C103.202 85.9817 103.202 86.1713 103.202 86.3609C103.202 86.6453 103.109 87.0245 102.83 87.4986C102.551 87.9726 102.458 88.3518 102.458 88.5414C102.365 89.2998 102.365 89.7738 102.458 90.0582C102.179 90.627 101.621 91.4802 100.877 92.6178C100.598 92.997 100.04 93.5658 99.203 94.5139C98.7381 94.9879 97.9941 95.6515 96.9712 96.3151C95.9483 96.9787 95.3903 97.3579 95.2043 97.3579H93.6235C92.1356 97.3579 90.9267 96.4099 89.9967 94.4191C89.2528 92.8074 88.8808 91.1958 88.8808 89.5842C88.8808 87.2141 89.2528 84.9389 89.9037 82.7585C90.2757 81.6209 90.7407 80.8625 91.4846 80.3884C92.5075 79.7248 93.7164 79.4404 95.1113 79.4404C95.2043 79.4404 95.4833 79.5352 96.0413 79.63C96.5992 79.7248 96.9712 79.8196 97.2502 79.8196C97.7151 80.0092 98.831 80.2936 100.691 80.6728C101.249 80.7677 101.9 81.2417 102.737 81.9053ZM99.482 84.2753H98.924C98.0871 84.3701 97.3432 84.4649 96.5992 84.5597C95.6693 84.7493 95.0183 85.1285 94.5534 85.6025C94.1814 86.1713 93.9954 87.1193 94.0884 88.6362C94.0884 88.9206 94.1814 89.205 94.2744 89.679C94.3674 90.153 94.4604 90.4374 94.4604 90.5322C95.5763 90.2478 96.6922 89.2998 97.8081 87.6882C98.831 86.3609 99.389 85.2233 99.482 84.2753ZM151 86.8349L150.721 88.3518C150.628 89.0154 150.256 89.7738 149.605 90.4374C149.233 91.0062 149.047 91.1958 149.047 91.1958C148.861 91.7646 148.489 92.6178 148.024 93.6606L147.931 93.8503C147.28 94.7983 146.35 95.9359 144.862 97.0735L144.676 97.1683C144.305 97.4527 143.747 97.8319 143.003 98.3059L142.817 98.4007C142.445 98.5903 142.166 98.5903 141.236 98.5903C137.888 98.5903 133.889 96.9787 133.889 89.2998C133.889 87.4038 134.447 85.4129 135.563 83.3273L135.656 83.1377C136.028 82.6637 136.493 81.9053 137.237 80.8625L137.516 80.4832L137.609 80.3884L138.911 79.9144C138.446 79.5352 138.074 79.156 137.702 78.4924C136.772 77.0704 136.586 76.5016 136.586 76.0276C136.586 74.5108 137.33 73.0887 138.725 71.8563L138.818 71.7615C139.748 71.0979 140.771 70.3395 141.794 69.6759L142.073 69.4863H142.166H142.538C144.584 69.3915 146.071 69.2967 147.001 69.1071L148.024 68.9175C148.117 68.9175 148.21 68.9175 148.303 69.0123L148.675 69.7707C148.768 69.8655 148.861 69.9603 149.233 70.2447C149.791 70.7187 150.442 71.4771 150.535 72.4251V72.5199V72.6147C150.535 72.7095 150.535 72.8043 150.442 72.9939C150.442 72.9939 150.442 72.9939 150.442 73.0887C150.442 73.0887 150.349 73.4679 149.977 75.1744L149.884 75.6484C149.884 75.7432 149.884 75.7432 149.791 75.838L149.326 76.1224C149.326 76.1224 148.954 76.312 146.536 78.3976C144.769 80.0092 144.026 80.2936 143.282 80.2936C143.189 80.2936 142.817 80.2936 142.073 80.4832C141.887 80.4832 141.701 80.578 141.515 80.578C141.794 80.6729 142.073 80.8625 142.352 80.9573L142.817 81.1469C142.91 81.1469 142.91 81.2417 142.91 81.2417L143.189 81.6209C144.119 83.0429 144.491 84.1805 144.491 85.1285C144.491 85.7921 144.398 86.4557 144.305 87.1193C144.398 87.0245 144.491 87.0245 144.676 86.9297C146.164 86.1713 146.629 85.9817 147.001 85.9817C147.466 85.9817 148.024 86.1713 148.303 86.5505H148.396H150.535C150.628 86.5505 150.628 86.5505 150.721 86.6453C151 86.6453 151 86.7401 151 86.8349ZM150.442 87.0245H148.396C148.303 87.0245 148.303 87.0245 148.21 86.9297C147.931 86.6453 147.559 86.4557 147.187 86.4557C146.815 86.4557 146.443 86.5505 145.048 87.3089C144.676 87.4986 144.398 87.6882 144.212 87.783C144.119 87.783 144.026 87.783 143.933 87.783C143.84 87.6882 143.84 87.5934 143.84 87.4986C144.026 86.6453 144.119 85.8869 144.119 85.1285C144.119 84.2753 143.747 83.2325 142.817 81.9053L142.631 81.6209L142.259 81.5261C141.794 81.3365 141.236 81.1469 140.771 80.7677C140.678 80.6728 140.678 80.578 140.678 80.4832C140.678 80.3884 140.771 80.2936 140.864 80.2936C141.236 80.2936 141.608 80.1988 142.073 80.104C142.817 80.0092 143.189 79.9144 143.282 79.9144C143.84 79.9144 144.491 79.63 146.257 78.1132C148.675 76.1224 149.047 75.838 149.047 75.838L149.419 75.5536L149.512 75.1744C149.791 73.8471 149.884 73.3731 149.977 73.1835C149.977 73.1835 149.977 73.1835 149.977 73.0887C150.07 72.8043 150.07 72.7095 150.07 72.6147C150.07 71.7615 149.419 71.0979 148.954 70.7187C148.582 70.3395 148.396 70.2447 148.303 70.1499C148.303 70.1499 148.303 70.1499 148.303 70.0551L148.024 69.3915L147.187 69.5811C146.257 69.7707 144.676 69.9603 142.631 69.9603H142.352L142.073 70.1499C141.05 70.9083 140.027 71.5719 139.097 72.2355L139.004 72.3303C137.702 73.5627 136.958 74.7952 136.958 76.2172C136.958 76.6912 137.144 77.1652 137.981 78.3976C138.446 79.156 138.911 79.63 139.469 79.9144C139.562 79.9144 139.562 80.0092 139.562 80.104C139.562 80.1988 139.469 80.2936 139.376 80.2936L137.702 80.8625L137.516 81.1469C136.772 82.1897 136.307 82.9481 135.935 83.4221L135.842 83.5169C134.726 85.5077 134.168 87.4986 134.168 89.2998C134.168 96.5995 137.888 98.1163 141.05 98.1163C141.794 98.1163 142.166 98.1163 142.352 97.9267L142.445 97.8319C143.189 97.3579 143.747 96.9787 144.212 96.6943L144.305 96.5995C145.699 95.4619 146.629 94.4191 147.28 93.471L147.373 93.3762C147.838 92.3334 148.21 91.4802 148.396 90.9114C148.489 90.8166 148.582 90.5322 149.047 90.0582C149.605 89.3946 149.977 88.8258 150.07 88.1622L150.442 87.0245ZM147.559 87.8778C147.466 87.6882 147.373 87.5934 147.28 87.5934C147.094 87.5934 146.536 87.8778 145.606 88.3518C144.676 88.8258 144.212 89.1102 144.026 89.1102C143.003 89.1102 142.445 89.1102 142.259 89.1102C142.91 87.6882 143.189 86.3609 143.189 85.2233C143.189 84.5597 142.817 83.7065 142.073 82.5689C141.422 82.3793 140.678 82.0001 140.027 81.5261C139.376 81.7157 138.911 81.9053 138.539 82.0001C137.795 83.0429 137.237 83.8961 136.865 84.3701C135.842 86.2661 135.377 87.9726 135.377 89.5842C135.377 94.7035 137.33 97.2631 141.236 97.2631C141.701 97.2631 142.073 97.2631 142.073 97.1683C142.817 96.6943 143.375 96.2203 143.84 96.0307C145.141 94.9879 145.978 94.0399 146.536 93.1866C147.001 92.1438 147.373 91.2906 147.559 90.7218C147.652 90.5322 147.931 90.153 148.396 89.5842C148.861 89.1102 149.047 88.6362 149.14 88.257C149.047 88.257 148.768 88.257 148.489 88.257C148.117 88.257 147.931 88.1622 147.745 88.1622C147.652 88.1622 147.559 88.0674 147.559 87.8778ZM142.073 79.156C142.724 79.0612 143.189 78.9664 143.468 78.9664C143.84 78.9664 144.583 78.3976 145.699 77.3548C147.373 75.9328 148.303 75.1744 148.582 74.9848C148.954 73.2783 149.14 72.5199 149.14 72.7095C149.14 72.4251 148.861 72.0459 148.396 71.5719C147.838 71.0979 147.559 70.8135 147.466 70.7187C146.443 70.9083 144.862 71.0979 142.724 71.1927C141.701 71.9511 140.678 72.6147 139.748 73.3731C138.632 74.3212 138.074 75.364 138.074 76.4068C138.074 76.5964 138.353 77.1652 138.911 78.0184C139.469 78.8716 140.027 79.3456 140.585 79.3456C140.957 79.2508 141.422 79.2508 142.073 79.156ZM36.3399 75.4588C36.1539 75.4588 36.0609 75.6484 36.1539 75.7432C36.1539 75.9328 36.3399 76.0276 36.4329 75.9328C36.4329 75.9328 36.5259 75.9328 36.8048 75.9328L40.4316 78.3976C40.5246 78.4924 40.5246 78.682 40.6176 78.7768C40.6176 78.8716 40.8035 78.9664 40.8965 78.9664H40.9895C41.0825 78.8716 41.1755 78.7768 41.1755 78.5872C39.5016 75.0796 36.3399 75.4588 36.3399 75.4588ZM50.4748 74.0367C47.499 75.1744 47.778 77.9236 47.778 77.9236C47.778 78.0184 47.871 78.208 48.057 78.208C48.243 78.208 48.336 78.0184 48.336 77.9236C48.336 77.9236 48.336 77.734 48.336 77.5444L50.2888 74.7952C50.3818 74.7004 50.5678 74.7004 50.6608 74.6056C50.7538 74.5108 50.8468 74.416 50.8468 74.2264C50.7538 74.0367 50.6608 73.9419 50.4748 74.0367ZM31.8762 64.1774C31.6902 64.367 31.6902 64.841 32.0622 65.4098C32.4342 65.9786 32.8062 66.263 33.0851 66.0734C33.2711 65.8838 33.2711 65.4098 32.8992 64.841C32.6202 64.2722 32.1552 63.9878 31.8762 64.1774ZM35.9679 63.893C35.6889 63.7982 35.317 64.1774 35.038 64.6514C34.759 65.2202 34.759 65.789 34.945 65.8838C35.224 65.9786 35.5959 65.5994 35.8749 65.1254C36.1539 64.6514 36.2469 64.0826 35.9679 63.893ZM31.4113 97.0735H31.6902V95.1775H31.4113V97.0735ZM12.6267 95.7463C12.8127 95.7463 12.9057 95.6515 12.9987 95.5567C13.0917 95.4619 13.1847 95.3671 13.1847 95.1775C13.1847 94.9879 13.1847 94.8931 13.0917 94.7983C12.9987 94.7035 12.9057 94.6087 12.7197 94.6087C12.5337 94.6087 12.4407 94.7035 12.3477 94.7983C12.2547 94.8931 12.1618 94.9879 12.1618 95.1775C12.1618 95.3671 12.2547 95.4619 12.3477 95.5567C12.3477 95.7463 12.4407 95.7463 12.6267 95.7463ZM53.3576 70.7187C54.3805 74.5108 54.0085 77.734 52.5206 80.3884C52.1487 81.0521 51.5907 81.7157 50.8468 82.4741V101.719C50.8468 102.951 49.8238 103.994 48.6149 103.994H11.2318C10.0229 104.089 9 103.046 9 101.814V58.2049C9 56.9725 10.0229 55.9297 11.2318 55.9297H17.5553C17.3694 55.2661 17.2764 54.7921 17.2764 54.5077C17.2764 54.5077 17.2764 54.4129 17.2764 54.3181C17.1834 52.9908 17.2764 52.0428 17.8343 51.474C18.1133 51.1896 18.4853 51 19.0432 51C19.4152 51 19.7872 51.0948 20.2521 51.2844C20.9031 51.5688 21.554 52.2324 21.74 52.422C23.3209 54.4129 25.7387 54.9817 26.2967 55.0765C28.2495 54.3181 30.0164 53.9388 31.5972 53.9388C32.8062 53.9388 34.573 54.1284 35.9679 55.1713C38.6647 55.0765 39.9666 52.6116 40.1526 52.2324C40.2456 51.8532 40.5246 51.6636 40.8965 51.6636C40.9895 51.6636 41.1755 51.6636 41.2685 51.7584C42.3844 52.422 42.9424 53.4648 42.7564 54.7921C42.7564 55.0765 42.5704 55.4557 42.4774 55.8349H48.7079C49.9168 55.8349 50.9398 56.8777 50.9398 58.1101V69.2019C51.8697 69.2967 52.7066 69.6759 53.2646 70.3395C53.3576 70.4343 53.3576 70.4343 53.4506 70.5291C53.3576 70.6239 53.3576 70.7187 53.3576 70.7187ZM11.5108 96.3151C11.7898 96.5995 12.1618 96.6943 12.6267 96.6943C13.0917 96.6943 13.4637 96.5995 13.7426 96.3151C14.1146 96.0307 14.2076 95.6515 14.2076 95.2723C14.2076 94.9879 14.1146 94.7035 13.8356 94.4191C13.6496 94.2295 13.4637 94.1347 13.3707 94.1347H14.1146V93.1866H13.3707V92.8074H12.0688V93.1866H11.1388V94.1347H11.7898C11.5108 94.2295 11.3248 94.4191 11.2318 94.6087C11.1388 94.7983 11.0458 95.0827 11.0458 95.2723C11.0458 95.7463 11.2318 96.0307 11.5108 96.3151ZM15.6955 97.6423H12.6267V96.7891H11.4178V98.0215C11.4178 98.2111 11.5108 98.4007 11.6968 98.4955C11.7898 98.5903 11.9758 98.5903 12.2547 98.5903H15.7885V97.6423H15.6955ZM16.0675 94.2295H15.6025V92.7126H14.3936V97.1683H15.6025V94.9879H16.1604V94.2295H16.0675ZM21.647 96.4099H17.2764V97.4527H20.3451V98.6851H21.647V96.4099ZM21.74 95.0827H17.0904V96.0307H18.7642V96.3151H20.0661V96.0307H21.74V95.0827ZM20.3451 93.7554V94.1347C20.3451 94.3243 20.3451 94.4191 20.3451 94.5139C20.3451 94.6087 20.3451 94.7035 20.2521 94.8931H21.461C21.554 94.5139 21.554 94.2295 21.554 94.0399C21.554 93.8503 21.554 93.5658 21.554 93.1866V92.7126H17.2764V93.7554H20.3451ZM27.5056 92.997H26.3897V94.6087H25.7387V92.997H24.5298V97.2631C24.5298 97.7371 24.5298 98.0215 24.6228 98.1163C24.7158 98.2111 24.9948 98.3059 25.3667 98.3059H27.5056V92.997ZM29.4584 94.3243H28.9935V92.7126H27.7845V98.5903H28.9935V95.2723H29.4584V94.3243ZM34.0151 92.7126H32.9921V94.6087H32.8062V92.8074H31.7832V94.1347H31.5043V92.8074H30.3883V96.9787C30.3883 97.4527 30.4813 97.7371 30.5743 97.7371C30.6673 97.8319 30.8533 97.8319 31.3183 97.8319H32.8062V95.5567H32.9921V98.5903H34.0151V92.7126ZM35.131 92.7126H34.1081V98.5903H35.131V92.7126ZM41.0825 95.6515H40.6176C40.7105 95.4619 40.7105 95.1775 40.7105 94.7983C40.7105 94.4191 40.7105 93.945 40.7105 93.471V92.997H36.6189V93.945H39.5016V94.2295H36.7119V95.1775H39.5016V95.2723C39.5016 95.4619 39.4086 95.5567 39.4086 95.6515H36.3399V96.5995H37.0838V98.6851H38.2927V96.5995H39.1297V98.6851H40.3386V96.5995H41.0825V95.6515ZM45.7322 93.8503V93.945C45.7322 94.1347 45.7322 94.3243 45.7322 94.5139C45.7322 94.7035 45.7322 94.8931 45.6392 95.0827H46.7551C46.7551 94.7983 46.8481 94.4191 46.8481 94.1347C46.8481 93.8503 46.8481 93.471 46.8481 93.0918V92.8074H43.8723V93.8503H45.7322ZM43.7793 95.2723V96.2203H47.0341V95.2723H45.4532V94.2295H44.3373V95.2723H43.7793ZM48.336 97.6423H45.2672V96.5995H44.0583V97.8319C44.0583 98.2111 44.1513 98.4007 44.2443 98.4955C44.3373 98.5903 44.6162 98.6851 44.9882 98.6851H48.336V97.6423ZM48.8009 93.945H48.243V92.7126H47.127V96.8839H48.336V94.8931H48.8939V93.945H48.8009ZM52.1487 71.1927C51.9627 70.9083 51.4047 70.5291 50.4748 70.5291C50.0098 70.5291 48.8009 71.0031 47.964 71.3823C47.592 71.4771 47.406 71.5719 47.313 71.6667C47.0341 71.7615 46.6621 71.7615 46.3831 71.7615C45.7322 71.7615 45.4532 71.5719 45.3602 71.4771C45.1742 71.3823 45.1742 71.1927 45.2672 71.0031C45.3602 70.9083 45.4532 70.9083 45.5462 70.9083C45.6392 70.9083 45.6392 70.9083 45.7322 71.0031C45.7322 71.0031 45.9181 71.0979 46.3831 71.0979C46.6621 71.0979 47.0341 71.0031 47.406 70.9083C45.5462 69.5811 41.2685 66.1682 40.2456 61.3334L40.1526 60.6697H40.8035C40.8965 60.6697 40.9895 60.6697 41.1755 60.7645C42.6634 61.523 44.0583 61.9022 45.3602 61.9022C46.1971 61.9022 46.9411 61.7126 47.685 61.4282C46.7551 60.3853 44.7092 58.5841 41.5475 58.5841C41.3615 58.5841 41.1755 58.5841 40.8965 58.5841C40.6176 58.5841 40.3386 58.5841 40.1526 58.5841C40.0596 58.5841 40.0596 58.5841 40.0596 58.5841C39.7806 58.5841 39.6876 58.3945 39.6876 58.2997C39.5946 58.1101 39.7806 57.9205 39.8736 57.7309C39.9666 57.6361 39.9666 57.6361 40.0596 57.5413C40.2456 57.3517 41.6405 55.5505 41.4545 54.1284C41.4545 53.844 41.2685 53.5596 41.0825 53.37C40.6176 54.2232 39.2227 56.1193 36.8048 56.5933C37.0838 56.7829 37.5488 57.1621 37.8278 57.7309C37.8278 57.8257 37.8278 57.9205 37.8278 57.9205L37.7348 58.0153C37.4558 58.2049 36.6189 58.6789 35.41 58.6789C35.038 58.6789 34.573 58.5841 34.201 58.4893C34.759 59.1529 35.038 59.8165 35.038 60.5749C35.038 60.6697 35.038 60.7645 34.945 60.7645C34.852 60.7645 34.666 60.8593 34.48 60.8593C33.8291 60.8593 32.0622 60.6697 30.4813 58.5841L30.7603 58.3945C32.2482 60.2905 33.8291 60.4801 34.48 60.4801C34.48 60.4801 34.48 60.4801 34.573 60.4801C34.573 59.6269 34.0151 58.8685 33.0851 58.2049C32.9921 58.1101 32.8992 58.1101 32.8992 57.9205C32.8992 57.8257 32.8991 57.7309 32.9921 57.7309C32.9921 57.7309 33.0851 57.7309 33.1781 57.7309C33.1781 57.7309 33.1781 57.7309 33.2711 57.7309C34.0151 58.1101 34.759 58.2997 35.5029 58.2997C36.4329 58.2997 37.0838 58.0153 37.4558 57.8257C37.0838 57.2569 36.6189 56.9725 36.4329 56.8777C36.0609 56.6881 36.0609 56.6881 35.9679 56.6881C35.8749 56.6881 35.7819 56.5933 35.6889 56.5933H35.5959C35.41 56.5933 35.317 56.4985 35.224 56.4037C34.1081 55.4557 32.6202 55.2661 31.5043 55.2661C30.1094 55.2661 28.4355 55.6453 26.6686 56.3089V56.4985H26.2967C25.9247 56.4985 22.5769 55.8349 20.6241 53.2752C20.5311 53.1804 20.0661 52.7064 19.6942 52.5168C19.4152 52.3272 19.1362 52.3272 19.0432 52.3272C18.8572 52.3272 18.8572 52.3272 18.7642 52.422C18.6713 52.5168 18.3923 52.9908 18.5783 54.3181V54.6025C18.6713 55.1713 19.0432 57.0673 20.1591 58.1101C20.4381 58.2049 20.5311 58.3945 20.5311 58.6789C20.5311 59.0581 20.2521 59.2477 19.8802 59.2477C19.6942 59.2477 19.6012 59.1529 19.5082 59.0581C19.2292 58.9633 18.7642 58.9633 18.1133 58.9633C16.3464 58.9633 13.8356 59.5321 12.0688 62.2814C12.7197 62.471 13.6496 62.6606 14.9515 62.6606C16.6254 62.6606 18.2993 62.3762 20.1591 61.7126L21.926 61.049C21.926 61.049 21.926 61.049 21.926 61.1438L20.7171 62.5658C20.6241 62.6606 18.7642 65.4098 17.2764 69.2019C16.0675 72.6147 14.6726 77.3548 15.9745 81.3365V81.4313C16.2534 82.2845 19.0432 89.3946 28.3425 89.3946C30.9463 89.3946 33.8291 88.8258 36.9908 87.6882L37.3628 87.5934L37.4558 87.6882C37.6418 87.6882 38.4787 87.8778 39.3157 87.8778C40.1526 87.8778 41.1755 87.783 41.7335 87.1193C42.0124 86.8349 42.1984 86.3609 42.1984 85.8869V85.7921C40.8965 85.9817 39.5946 86.1713 38.3857 86.1713C36.9908 86.1713 35.5959 85.9817 34.294 85.6973C32.2482 85.2233 30.2954 84.3701 28.7145 83.0429C25.9247 80.9573 24.8088 78.4924 24.7158 78.3976C24.4368 78.7768 24.3438 79.2508 24.3438 80.0092C24.3438 80.2936 24.1578 80.4832 23.8788 80.4832C23.5999 80.4832 23.4139 80.2936 23.4139 80.0092C23.4139 78.682 23.7859 77.8288 24.4368 77.3548C24.8088 77.1652 25.1807 76.9756 25.6457 76.9756C26.2967 76.9756 26.9476 77.26 26.9476 77.26C27.0406 77.3548 27.1336 77.3548 27.2266 77.5444C27.2266 77.6392 27.2266 77.8288 27.2266 77.9236C27.1336 78.1132 26.9476 78.208 26.8546 78.208C26.7616 78.208 26.7616 78.208 26.6686 78.208C26.6686 78.208 26.2037 78.0184 25.7387 78.0184C25.5527 78.0184 25.3667 78.0184 25.1807 78.1132C25.2737 78.1132 25.2737 78.208 25.2737 78.208C25.3667 78.3028 26.4826 80.6729 29.0864 82.6637C29.8304 83.2325 30.7603 83.8013 31.9692 84.2753C33.6431 85.0337 35.7819 85.6025 38.4787 85.6025C39.8736 85.6025 41.2685 85.4129 42.7564 85.1285H42.8494C42.9424 85.1285 42.9424 85.1285 43.0354 85.1285C48.057 83.8961 50.3818 81.5261 51.4047 79.8196C52.7066 77.4496 52.9856 74.6056 52.1487 71.1927ZM25.7387 97.2631H26.3897V95.5567H25.7387V97.2631Z" fill="black"/>
</svg>
