<svg width="155" height="155" viewBox="0 0 155 155" fill="none" xmlns="http://www.w3.org/2000/svg">
<g clip-path="url(#clip0)">
<path fill-rule="evenodd" clip-rule="evenodd" d="M118.436 68.051C118.195 67.6863 117.834 67.3216 117.713 67.2C116.871 66.2275 115.668 65.2549 114.344 64.1608V64.0392C114.103 63.9176 113.862 63.6745 113.622 63.5529L113.501 63.4314C111.937 62.2157 110.132 60.7569 107.845 59.7843C107.725 59.7843 107.725 59.6627 107.605 59.6627C104.716 58.0824 99.7822 56.9882 96.894 56.3804C96.7736 55.8941 96.6533 55.2863 96.6533 54.9216C96.4126 53.7059 95.9312 52.6118 95.4498 51.3961C95.6905 50.7882 95.9312 50.0588 96.0516 49.3294C96.2923 47.749 96.1719 46.2902 95.8109 45.1961C94.9685 43.251 93.2837 42.0353 91.2378 41.9137C91.1175 41.9137 90.9971 41.9137 90.8768 41.9137C90.5157 41.4275 90.1547 40.9412 89.6733 40.4549C88.2292 38.7529 86.3037 37.5373 84.0172 36.6863C84.1375 36.5647 84.2579 36.4431 84.2579 36.2C84.2579 36.0784 84.3782 36.0784 84.3782 35.9569C84.9799 34.8627 84.9799 33.6471 84.3782 32.6745C83.2951 30.851 80.5272 30 75.7135 30C75.3524 30 75.1117 30 74.6304 30C70.5387 30.1216 68.1318 30.7294 66.808 32.1882C66.086 33.0392 65.7249 34.0118 65.8453 35.1059C65.8453 35.8353 66.086 36.5647 66.447 37.5373C64.1605 38.7529 62.4756 40.3333 61.2722 42.2784C60.3095 42.5216 59.5874 43.0078 58.8653 43.7373C57.9026 44.8314 56.9398 46.6549 57.5415 49.8157C57.6619 50.4235 57.7822 50.9098 58.0229 51.5176C57.4212 52.7333 56.9398 54.0706 56.5788 55.651L55.1347 55.7726L49.1175 56.502H48.8768C48.6361 56.502 48.5158 56.6235 48.3954 56.6235L47.3123 56.8667C47.192 56.8667 47.192 56.8667 47.0716 56.8667L46.2292 57.1098C46.1089 57.1098 45.9885 57.1098 45.9885 57.2314L45.1461 57.5961C45.0258 57.5961 45.0258 57.7176 44.9054 57.7176L43.341 58.5686C43.2206 58.5686 43.2206 58.6902 43.1003 58.6902L42.7393 59.1765L42.0172 59.7843C41.8968 59.9059 41.8968 59.9059 41.7765 59.9059L41.2951 60.2706C41.1748 60.3922 41.1748 60.3922 41.0544 60.5137L40.4527 61.1216L39.9713 61.7294C39.851 61.851 39.851 61.851 39.851 61.851L39.3696 62.3373L39.2493 62.4588L38.8883 62.9451C38.8883 63.0667 38.7679 63.0667 38.7679 63.1882L38.4069 63.7961C38.4069 63.7961 38.2865 63.9176 38.2865 64.0392L38.0458 64.5255C38.0458 64.6471 37.9255 64.6471 37.9255 64.7686L37.4441 65.9843C37.4441 66.1059 37.3238 66.1059 37.3238 66.2275L36.7221 67.9294C36.7221 68.051 36.7221 68.051 36.7221 68.1726L36.4814 69.1451V69.2667L36.2407 70.6039C36.2407 70.7255 36.2407 70.7255 36.2407 70.8471L36 72.1843C36 72.3059 36 72.3059 36 72.4275V72.6706C36 72.7922 36 72.9137 36 73.0353V73.7647C36 73.8863 36 74.0078 36 74.1294V74.3726C36 74.4941 36 74.4941 36 74.6157L36.6017 76.6824C36.6017 76.8039 36.6017 76.8039 36.7221 76.9255L36.8424 77.1686C36.8424 77.2902 36.9628 77.4118 36.9628 77.4118V77.5333C36.9628 77.6549 37.0831 77.7765 37.0831 77.898L37.3238 78.3843C37.3238 78.5059 37.4441 78.5059 37.4441 78.6275C37.4441 78.6275 37.8052 79.2353 37.9255 79.3569C37.9255 79.3569 38.0458 79.4784 38.0458 79.6L38.4069 79.9647C38.5272 80.0863 38.5272 80.2078 38.6476 80.2078L39.0086 80.5725C39.1289 80.6941 39.2493 80.8157 39.3696 80.9373L39.7307 81.1804C39.851 81.302 39.9713 81.4235 40.212 81.4235L40.6934 81.6667C40.8138 81.6667 40.8138 81.7882 40.9341 81.7882L41.2951 81.9098C41.8968 82.1529 42.0172 82.2745 42.1375 82.2745C41.5358 82.7608 41.0544 83.3686 40.5731 83.9765C39.0086 86.2863 39.0086 89.2039 40.4527 91.6353C40.9341 92.4863 41.6562 93.2157 42.4986 93.702V113.031C42.4986 115.098 42.4986 118.137 44.7851 120.447C46.4699 122.149 48.9971 123 52.4871 123H101.828C106.04 123 108.928 121.663 110.493 119.231C111.817 117.043 111.817 114.733 111.817 112.91V93.9451C112.9 93.2157 113.862 92.2431 114.464 91.149C115.908 88.5961 115.427 85.5569 113.381 83.0039C113.14 82.7608 112.9 82.5177 112.659 82.2745C113.501 81.9098 114.223 81.5451 114.825 81.0588C115.066 80.9373 115.186 80.8157 115.427 80.6941C115.668 80.5726 115.908 80.451 116.029 80.451C116.871 80.2078 117.593 79.6 118.074 78.9922C121.203 75.102 119.759 69.9961 118.436 68.051ZM117.352 78.2627C116.871 78.749 116.269 79.2353 115.668 79.4784C115.547 79.6 115.307 79.6 114.946 79.8431L114.825 79.9647C114.705 80.0863 114.585 80.2078 114.344 80.2078C113.501 80.8157 112.539 81.302 111.456 81.6667L110.493 82.0314L111.335 82.5177C111.817 82.7608 112.298 83.1255 112.539 83.4902C114.344 85.6784 114.825 88.3529 113.501 90.5412C112.9 91.5137 112.057 92.4863 110.974 93.0941L110.734 93.2157V112.788C110.734 114.49 110.734 116.678 109.53 118.502C108.808 119.596 107.845 120.447 106.521 121.055C105.198 121.663 103.633 121.906 101.708 121.906H52.3668C49.1175 121.906 46.8309 121.176 45.2665 119.596C43.341 117.651 43.341 114.733 43.341 112.91V93.3373V93.2157L43.2206 93.0941C42.3782 92.6078 41.7765 92 41.2951 91.149C40.0917 88.9608 40.0917 86.5294 41.4155 84.5843C41.8968 83.8549 42.4986 83.2471 43.2206 82.7608L43.4613 82.6392V81.6667L43.1003 81.5451H42.9799L42.4986 81.4235C42.3782 81.4235 42.2579 81.302 42.1375 81.302L41.7765 81.0588C41.6562 81.0588 41.6562 80.9373 41.5358 80.9373L41.1748 80.6941C40.9341 80.6941 40.8138 80.5725 40.8138 80.5725L40.4527 80.3294C40.3324 80.2078 40.212 80.2078 40.212 80.0863L39.851 79.7216C39.6103 79.6 39.6103 79.4784 39.49 79.4784L39.0086 78.8706C39.0086 78.8706 38.6476 78.3843 38.6476 78.2627L38.5272 78.1412L38.2865 77.6549C38.2865 77.5333 38.1662 77.5333 38.1662 77.4118L38.0458 77.2902C38.0458 77.1686 37.9255 77.1686 37.9255 77.0471L37.8052 76.8039V76.6824L37.3238 75.4667L37.2034 74.7373C37.2034 74.6157 37.2034 74.6157 37.2034 74.6157V74.3726C37.2034 74.251 37.2034 74.251 37.2034 74.1294V73.5216V73.2784V73.0353C37.2034 72.9137 37.2034 72.9137 37.2034 72.7922L37.3238 71.2118C37.3238 71.2118 37.5645 69.8745 37.5645 69.7529L37.8052 68.6588L38.1662 67.5647V66.4706C38.1662 66.4706 38.1662 66.349 38.2865 66.349L38.7679 65.2549C38.7679 65.2549 38.7679 65.1333 38.8883 65.1333L39.1289 64.6471C39.1289 64.5255 39.1289 64.5255 39.2493 64.5255L39.6103 64.0392C39.6103 64.0392 39.6103 63.9176 39.7307 63.9176L40.5731 62.8235L40.6934 62.702L41.7765 61.6078C41.8968 61.6078 41.8968 61.4863 42.0172 61.4863L42.4986 61C42.4986 61 42.6189 61 42.6189 60.8784L43.2206 60.3922L44.063 59.7843C44.063 59.7843 44.1834 59.6627 44.3037 59.6627L45.8682 58.8118C45.8682 58.8118 45.9885 58.8118 46.1089 58.6902L46.9513 58.3255C46.9513 58.3255 47.0716 58.3255 47.0716 58.2039L49.1175 57.5961C49.2378 57.5961 49.3582 57.5961 49.4785 57.4745L55.7364 56.6235L57.7822 56.502L57.9026 56.1373C58.2636 54.4353 58.745 52.9765 59.3467 51.7608L59.467 51.5176L59.3467 51.2745C59.106 50.7882 58.9857 50.1804 58.8653 49.5725C58.2636 46.7765 59.106 45.1961 59.9484 44.3451C60.5501 43.7373 61.2722 43.3726 62.1146 43.1294H62.3553L62.4756 42.8863C63.5587 40.8196 65.3639 39.2392 67.7708 38.1451L68.2521 37.902L68.0115 37.4157C67.5301 36.4431 67.2894 35.7137 67.2894 34.9843C67.2894 34.1333 67.5301 33.4039 68.0115 32.7961C69.0946 31.5804 71.2607 31.0941 75.1117 30.9725C75.4728 30.9725 75.8338 30.9725 76.0745 30.9725C80.4069 30.9725 83.0544 31.702 83.8968 33.2824C84.2579 34.0118 84.2579 34.8627 83.8968 35.5922L83.7765 35.7137C83.5358 36.0784 83.4155 36.3216 83.1748 36.6863L82.8137 37.1725L83.1748 37.2941C85.702 38.1451 87.5072 39.3608 89.0716 41.0627C89.553 41.6706 90.0344 42.1569 90.3954 42.6431L90.5157 42.8863H90.7564C90.8768 42.8863 91.1175 42.8863 91.2378 42.8863C92.8023 42.8863 94.2464 43.8588 94.8481 45.5608C95.2092 46.5333 95.3295 47.8706 95.0888 49.2078C94.9685 49.9373 94.7278 50.5451 94.4871 51.2745L94.3668 51.5176L94.4871 51.7608C94.9685 52.8549 95.4498 54.0706 95.6905 55.2863C95.8109 55.7725 95.9312 56.3804 96.0516 56.9882V57.3529L96.4126 57.4745C99.1805 57.9608 104.235 59.1765 107.123 60.6353C107.123 60.6353 107.244 60.7569 107.364 60.7569C109.65 61.7294 111.335 63.0667 112.9 64.2824L113.02 64.4039C113.261 64.5255 113.501 64.7686 113.742 65.0118L113.862 65.1333C115.186 66.1059 116.269 67.0784 117.112 68.051C117.232 68.1726 117.473 68.4157 117.713 68.902C118.797 70.3608 120.12 74.8588 117.352 78.2627Z" fill="black"/>
<path fill-rule="evenodd" clip-rule="evenodd" d="M105.92 83.6117C105.198 83.9764 104.716 84.4627 104.115 84.949C103.393 84.949 102.55 84.8274 101.708 84.949C100.625 85.0706 99.9026 85.5568 99.1805 86.2863C99.0602 86.4078 98.8195 86.5294 98.6992 86.4078C96.7737 85.8 95.0889 86.1647 93.7651 87.3804C93.7651 87.3804 93.6447 87.3804 93.6447 87.5019C91.7192 86.651 89.7937 86.7725 88.2293 88.2314C86.3038 87.1372 84.3783 87.3804 82.6934 88.5961C80.7679 87.5019 78.9628 87.5019 77.1576 88.7176C75.3525 87.5019 73.427 87.5019 71.6218 88.5961C70.0573 87.3804 68.1318 87.1372 66.086 88.2314C64.5215 86.8941 62.7164 86.651 60.6705 87.5019C59.2264 86.0431 57.4212 85.6784 55.255 86.4078C54.6533 85.8 53.9313 85.1921 52.9685 84.949C52.0058 84.7059 51.1634 84.7059 50.2006 85.0706C49.5989 84.2196 48.6361 83.4902 47.553 83.247C46.4699 83.0039 45.3868 83.1255 44.4241 83.4902C41.8969 84.4627 40.2121 87.3804 41.8969 90.1764C42.2579 90.7843 42.7393 91.149 43.341 91.5137C43.8224 91.7568 44.3038 92 44.7851 92.1215V112.788V113.518C44.7851 113.761 44.7851 114.004 44.7851 114.247C44.7851 114.49 44.7851 114.733 44.7851 114.976C44.7851 115.463 44.9055 115.949 45.0258 116.435C45.0258 116.557 45.1462 116.8 45.1462 116.922C45.1462 117.043 45.2665 117.165 45.2665 117.286C45.2665 117.408 45.3868 117.651 45.5072 117.773C45.6275 117.894 45.6275 118.016 45.7479 118.259C45.9886 118.623 46.2293 118.988 46.5903 119.231C46.7106 119.353 46.831 119.353 46.831 119.474C47.0717 119.718 47.3124 119.839 47.6734 119.961C47.6734 119.839 47.7937 119.961 48.0344 119.961C48.1548 120.082 48.3954 120.082 48.5158 120.082C48.6361 120.082 48.7565 120.204 48.8768 120.204C49.2379 120.325 49.4785 120.325 49.9599 120.447C50.0803 120.447 50.3209 120.569 50.4413 120.569C51.043 120.69 51.7651 120.69 52.4871 120.69H101.828C102.791 120.69 103.633 120.569 104.355 120.447C104.716 120.325 105.077 120.325 105.438 120.204C105.799 120.082 106.04 119.961 106.281 119.839C106.883 119.596 107.244 119.353 107.605 118.988C107.725 118.867 107.725 118.867 107.845 118.745C107.966 118.623 108.086 118.502 108.206 118.259C108.327 118.137 108.327 118.016 108.447 117.894C108.567 117.773 108.567 117.651 108.688 117.529C108.808 117.408 108.808 117.286 108.928 117.165C109.169 116.678 109.289 116.314 109.289 115.827C109.289 115.706 109.289 115.584 109.41 115.463V115.341C109.41 115.22 109.41 114.976 109.41 114.855C109.41 114.612 109.41 114.369 109.41 114.125C109.41 113.882 109.41 113.761 109.41 113.518C109.41 113.274 109.41 113.031 109.41 112.788V92.4863V92.1215C110.011 92 110.613 91.7568 111.095 91.3921C113.261 90.0549 114.464 87.3804 112.057 84.5843C111.696 84.098 111.215 83.8549 110.613 83.6117C109.169 83.0039 106.883 83.1255 105.92 83.6117ZM99.6619 88.3529C99.6619 88.2314 99.6619 88.2314 99.6619 88.3529C99.7823 88.1098 99.9026 87.8666 100.023 87.7451C100.745 86.5294 102.069 86.0431 103.513 86.5294C103.393 86.651 103.393 86.8941 103.272 87.0157C103.272 87.0157 103.272 87.1372 103.152 87.1372C102.911 87.6235 102.55 88.2314 102.309 88.7176C101.587 90.0549 100.745 91.2706 99.9026 92.4863C99.7823 92.6078 99.6619 92.7294 99.6619 92.851C99.5416 92.9725 99.5416 92.9725 99.4212 93.0941L99.3009 93.2157L99.1805 93.3372C99.0602 93.4588 98.9399 93.4588 98.9399 93.4588H98.8195C98.5788 93.5804 98.4585 93.5804 98.2178 93.7019C97.7364 93.8235 97.1347 93.8235 96.6533 93.7019C96.533 93.7019 96.2923 93.5804 96.172 93.5804C96.6533 92.851 97.255 92.1215 97.7364 91.3921C98.3381 90.4196 99.0602 89.3255 99.6619 88.3529ZM88.4699 90.298C88.831 89.9333 89.192 89.447 89.553 89.2039C90.3954 88.4745 91.7192 88.3529 92.8023 88.8392C92.3209 89.3255 91.9599 89.9333 91.4785 90.4196C91.3582 90.6627 91.1175 90.7843 90.9972 91.0274C90.0344 92.1215 89.192 93.2157 88.2293 94.3098C87.3869 95.2823 86.1834 95.5255 85.1003 95.2823C84.8596 95.1608 84.6189 95.1608 84.3783 95.0392C85.5817 93.7019 86.6648 92.4863 87.8682 91.149C87.9886 90.7843 88.2293 90.5412 88.4699 90.298ZM82.4528 91.0274C82.8138 90.6627 83.1748 90.298 83.5358 89.9333C84.4986 88.9608 86.0631 88.7176 87.3869 89.447C86.7851 90.0549 86.1834 90.6627 85.5817 91.3921C84.4986 92.6078 83.4155 93.7019 82.2121 94.9176C81.49 95.647 80.2866 95.8902 79.3238 95.647C79.0831 95.647 78.9628 95.5255 78.7221 95.4039C78.6017 95.4039 78.4814 95.2823 78.3611 95.1608C78.7221 94.7961 79.0831 94.5529 79.3238 94.1882C79.6848 93.8235 80.0459 93.5804 80.4069 93.2157C80.8883 92.7294 81.3697 92.2431 81.851 91.7568C81.9714 91.3921 82.2121 91.2706 82.4528 91.0274ZM72.1032 89.9333C73.1863 88.9608 74.7507 88.9608 75.9542 89.8117C75.2321 90.4196 74.5101 91.149 73.788 91.7568C73.0659 92.3647 72.3439 93.0941 71.5015 93.7019C71.1404 94.0666 70.6591 94.4313 70.1777 94.6745C69.0946 95.4039 67.6505 95.4039 66.5674 94.6745C66.5674 94.6745 66.447 94.5529 66.3267 94.5529C66.5674 94.3098 66.9284 94.1882 67.1691 93.9451C67.5301 93.7019 67.7708 93.4588 68.1318 93.2157C68.8539 92.6078 69.576 92 70.298 91.5137C70.8997 91.0274 71.5015 90.5412 72.1032 89.9333ZM59.7078 89.6902C60.0688 89.447 60.5502 89.2039 60.9112 88.9608C62.1146 88.2314 63.5588 88.2313 64.7622 89.0823C64.1605 89.5686 63.5588 89.9333 62.9571 90.4196C62.8367 90.5412 62.8367 90.5412 62.7164 90.6627C62.596 90.6627 62.596 90.7843 62.4757 90.7843C61.1519 91.6353 59.9485 92.4862 58.6247 93.3372C57.4212 94.0666 55.6161 93.9451 54.6533 92.851C55.1347 92.6078 55.6161 92.3647 55.9771 92C57.1805 91.2706 58.384 90.4196 59.7078 89.6902ZM42.7393 88.1098C42.2579 87.1372 43.2207 85.5568 44.5444 84.949C44.5444 84.949 44.6648 84.949 44.6648 84.8274C45.0258 84.7059 45.3868 84.5843 45.7479 84.5843C46.831 84.4627 47.9141 84.8274 48.6361 85.8C48.5158 85.8 48.2751 85.9215 48.0344 85.9215C46.9513 86.4078 45.7479 86.7725 44.6648 87.2588C44.0631 87.5019 43.341 87.8666 42.7393 88.1098ZM47.0717 90.5412C46.831 90.6627 46.4699 90.6627 46.2293 90.7843C46.1089 90.7843 46.1089 90.7843 45.9886 90.7843C45.8682 90.7843 45.7479 90.7843 45.5072 90.7843C45.3868 90.7843 45.2665 90.7843 45.2665 90.7843C45.0258 90.7843 44.9055 90.6627 44.6648 90.6627C44.5444 90.5412 44.3038 90.5412 44.1834 90.4196C44.0631 90.298 43.9427 90.298 43.8224 90.1764C43.702 90.0549 43.5817 90.0549 43.5817 89.9333C43.4613 89.6902 43.341 89.5686 43.2207 89.447C43.702 89.3255 44.1834 89.0823 44.6648 88.9608C46.4699 88.2314 48.2751 87.3804 50.0803 86.651C50.0803 86.651 50.0803 86.651 50.2006 86.651C51.5244 86.0431 52.8482 86.2863 53.8109 87.2588C53.5702 87.3804 53.2092 87.6235 52.8482 87.7451C51.5244 88.3529 50.3209 89.0823 48.9972 89.6902C48.3954 89.9333 47.6734 90.298 47.0717 90.5412ZM48.9972 91.3921C50.0803 90.7843 51.2837 90.1764 52.3668 89.5686C53.2092 89.0823 53.9313 88.7176 54.7737 88.2314C55.0144 88.1098 55.255 87.9882 55.4957 87.8666C56.8195 87.1372 58.384 87.2588 59.2264 88.2314C58.745 88.4745 58.2636 88.8392 57.9026 89.0823C57.6619 89.2039 57.4212 89.447 57.0602 89.5686C55.6161 90.4196 54.1719 91.2706 52.7278 92C51.404 92.851 49.4785 92.3647 48.9972 91.3921ZM60.7909 112.545C60.3095 113.153 59.7078 113.761 58.8654 114.125C58.023 114.49 57.0602 114.733 55.9771 114.733C54.6533 114.733 53.5702 114.49 52.6075 114.004C52.0058 113.639 51.5244 113.153 51.043 112.545C50.682 111.937 50.4413 111.329 50.4413 110.722C50.4413 110.357 50.5616 109.992 50.8023 109.749C51.043 109.506 51.404 109.384 51.7651 109.384C52.1261 109.384 52.3668 109.506 52.6075 109.749C52.8482 109.992 52.9685 110.235 53.2092 110.6C53.3295 110.965 53.5702 111.329 53.6906 111.573C53.9313 111.816 54.172 112.059 54.4126 112.18C54.7737 112.302 55.1347 112.424 55.7364 112.424C56.4585 112.424 57.0602 112.302 57.5416 111.937C58.023 111.573 58.2636 111.208 58.2636 110.722C58.2636 110.357 58.1433 109.992 57.9026 109.749C57.6619 109.506 57.3009 109.263 56.9399 109.141C56.5788 109.02 55.9771 108.898 55.255 108.655C54.2923 108.412 53.4499 108.169 52.8482 107.804C52.1261 107.439 51.6447 107.074 51.2837 106.467C50.9227 105.859 50.682 105.251 50.682 104.4C50.682 103.671 50.9227 102.941 51.2837 102.333C51.6447 101.725 52.3668 101.239 53.0889 100.996C53.8109 100.631 54.7737 100.51 55.8568 100.51C56.6992 100.51 57.4212 100.631 58.023 100.874C58.6247 101.118 59.106 101.361 59.5874 101.725C59.9485 102.09 60.3095 102.455 60.5502 102.82C60.7909 103.184 60.7909 103.549 60.7909 104.035C60.7909 104.4 60.6705 104.765 60.4298 105.008C60.1891 105.251 59.8281 105.494 59.4671 105.494C59.106 105.494 58.8654 105.373 58.6247 105.251C58.5043 105.129 58.2636 104.765 58.023 104.4C57.7823 103.914 57.5416 103.549 57.1805 103.306C56.9399 103.063 56.3381 102.941 55.7364 102.941C55.1347 102.941 54.533 103.063 54.172 103.427C53.8109 103.671 53.5702 104.035 53.5702 104.4C53.5702 104.643 53.6906 104.765 53.8109 105.008C53.9313 105.129 54.0516 105.373 54.2923 105.494C54.533 105.616 54.7737 105.737 55.0144 105.859C55.255 105.98 55.7364 105.98 56.2178 106.224C56.9399 106.345 57.6619 106.588 58.2636 106.831C58.8654 107.074 59.3467 107.318 59.8281 107.682C60.3095 108.047 60.6705 108.412 60.9112 108.898C61.1519 109.384 61.2722 109.992 61.2722 110.722C61.3926 111.086 61.1519 111.937 60.7909 112.545ZM60.4298 93.9451C61.5129 93.2157 62.4757 92.4863 63.5588 91.7568C64.0401 91.3921 64.5215 91.149 64.8826 90.7843C65.4843 90.4196 65.9656 89.9333 66.5674 89.5686C67.6505 88.7176 69.3353 88.7176 70.298 89.6902C69.576 90.1764 68.8539 90.7843 68.1318 91.2706C66.8081 92.2431 65.6046 93.2157 64.2808 94.1882C63.1977 94.9176 61.6333 94.7961 60.4298 93.9451ZM74.3897 108.776C74.3897 109.871 74.2694 110.722 74.149 111.451C73.9083 112.18 73.5473 112.788 72.9456 113.396C72.4642 113.882 71.8625 114.247 71.2608 114.369C70.6591 114.612 69.8167 114.733 68.9742 114.733C67.8911 114.733 67.0487 114.612 66.3267 114.369C65.6046 114.125 65.0029 113.761 64.4012 113.274C63.9198 112.788 63.5588 112.18 63.3181 111.451C63.0774 110.722 62.9571 109.871 62.9571 108.776V102.333C62.9571 101.725 63.0774 101.239 63.4384 100.996C63.6791 100.631 64.0401 100.51 64.5215 100.51C65.0029 100.51 65.3639 100.631 65.6046 100.996C65.8453 101.239 65.9656 101.725 65.9656 102.333V108.898C65.9656 109.627 66.086 110.235 66.2063 110.722C66.3267 111.208 66.5674 111.573 67.0487 111.816C67.4098 112.059 68.0115 112.18 68.7336 112.18C69.6963 112.18 70.4184 111.937 70.7794 111.451C71.1404 110.965 71.3811 110.114 71.3811 109.02V102.455C71.3811 101.847 71.5015 101.361 71.7422 101.118C71.9828 100.753 72.4642 100.631 72.8252 100.631C73.1863 100.631 73.6677 100.753 73.9083 101.118C74.149 101.361 74.3897 101.847 74.3897 102.455V108.776ZM75.5932 95.1608C75.5932 95.2823 75.5932 95.2823 75.5932 95.1608C75.2321 95.2823 74.9914 95.4039 74.6304 95.4039C74.3897 95.4039 74.0287 95.4039 73.788 95.4039C73.427 95.4039 73.1863 95.2823 72.9456 95.1608C72.8252 95.1608 72.7049 95.0392 72.5846 95.0392L72.4642 94.9176C72.4642 94.9176 72.5846 94.9176 72.5846 95.0392C73.3066 94.3098 74.149 93.4588 74.8711 92.7294C75.2321 92.3647 75.5932 92.1215 75.9542 91.7568C76.5559 91.149 77.278 90.5412 77.8797 90.0549C78.9628 89.0823 80.2866 88.9608 81.6103 89.6902C81.129 90.1764 80.6476 90.6627 80.1662 91.0274C79.9255 91.2706 79.6848 91.5137 79.4442 91.6353C78.3611 92.6078 77.3983 93.5804 76.3152 94.5529C76.0745 94.9176 75.8338 95.0392 75.5932 95.1608ZM90.1548 113.153C90.1548 114.125 89.553 114.733 88.5903 114.733C88.1089 114.733 87.7479 114.612 87.5072 114.369C87.2665 114.125 87.0258 113.639 87.0258 113.153C87.0258 111.816 87.0258 107.925 87.0258 107.925V105.98C86.3038 107.318 84.4986 110.114 84.4986 110.114V110.235C84.4986 110.235 84.4986 110.357 84.3783 110.357C83.8969 111.086 83.4155 111.208 83.0545 111.208C82.6934 111.208 82.2121 111.086 81.851 110.357C81.2493 109.263 80.5273 108.29 79.9255 107.196C79.9255 107.196 79.5645 106.467 79.2035 106.102C79.2035 108.047 79.2035 113.274 79.2035 113.274C79.2035 114.247 78.6017 114.855 77.7593 114.855C76.7966 114.855 76.1949 114.247 76.1949 113.274V102.82C76.1949 101.725 76.6763 101.118 77.3983 100.874C77.639 100.753 77.8797 100.753 78.1204 100.753C78.9628 100.753 79.5645 101.118 80.0459 101.847C80.6476 102.941 81.3697 104.035 81.9714 105.129C81.9714 105.129 83.0545 106.831 83.0545 106.953L83.7765 105.737C84.4986 104.522 85.2207 103.184 86.0631 101.847C86.5444 101.118 87.1462 100.631 87.9886 100.631C88.2293 100.631 88.4699 100.631 88.831 100.753C89.553 100.996 90.0344 101.604 90.0344 102.576C90.1548 102.576 90.1548 112.545 90.1548 113.153ZM90.8768 94.6745C90.6361 94.6745 90.3954 94.5529 90.2751 94.4313C90.7565 93.8235 91.2379 93.2157 91.7192 92.6078C92.4413 91.6353 93.1634 90.7843 93.8854 89.8117C93.8854 89.8117 93.8854 89.8117 93.8854 89.6902C94.2464 89.3255 94.4871 88.8392 94.8482 88.4745C95.6906 87.5019 97.1347 87.1372 98.3381 87.7451C98.0975 88.1098 97.8568 88.4745 97.6161 88.8392C96.7737 90.0549 95.9313 91.2706 95.0889 92.4863C94.8482 92.851 94.6075 93.0941 94.3668 93.4588C94.2464 93.5804 94.2464 93.7019 94.1261 93.7019C94.0058 93.8235 93.8854 93.9451 93.7651 93.9451C93.6447 94.0666 93.5244 94.0666 93.404 94.1882C92.3209 94.6745 91.5989 94.7961 90.8768 94.6745ZM104.837 110.478C104.596 111.329 104.115 112.059 103.513 112.788C102.911 113.396 102.189 113.882 101.347 114.247C100.504 114.612 99.5416 114.733 98.4585 114.733C97.3754 114.733 96.4126 114.612 95.5702 114.247C94.9685 113.882 94.2465 113.396 93.6447 112.667C93.043 112.059 92.682 111.329 92.3209 110.357C92.0803 109.506 91.8396 108.533 91.8396 107.561C91.8396 106.467 91.9599 105.494 92.3209 104.643C92.5616 103.792 93.043 103.063 93.6447 102.333C94.2465 101.725 94.9685 101.239 95.6906 100.874C96.533 100.51 97.3754 100.388 98.4585 100.388C99.9026 100.388 101.106 100.631 102.069 101.239C103.032 101.847 103.874 102.698 104.355 103.671C104.837 104.765 105.077 105.98 105.077 107.439C105.318 108.655 105.198 109.627 104.837 110.478ZM110.252 85.1921C111.576 85.9216 112.178 87.6235 111.576 88.9608C111.215 89.6902 110.493 90.298 109.65 90.5412C109.049 90.7843 108.327 90.9059 107.845 90.6627C108.447 89.3255 109.049 87.8666 109.65 86.5294C109.771 86.1647 110.011 85.6784 110.252 85.1921ZM108.688 84.7059C108.688 84.8274 108.567 84.949 108.567 85.0706C108.567 85.1921 108.567 85.1921 108.447 85.3137C108.447 85.4353 108.327 85.5568 108.327 85.6784C107.966 86.5294 107.605 87.2588 107.123 88.1098C106.642 89.0823 106.16 90.0549 105.679 91.0274C105.077 92.1215 103.754 92.7294 102.43 92.6078C102.43 92.6078 102.43 92.6078 102.309 92.6078C102.189 92.6078 101.948 92.4863 101.828 92.4863C102.189 91.8784 102.55 91.149 103.032 90.5412C103.272 90.1764 103.393 89.8117 103.633 89.5686C104.235 88.5961 104.716 87.5019 105.198 86.5294C105.198 86.4078 105.318 86.4078 105.318 86.2863C105.799 85.3137 106.762 84.7059 107.966 84.7059C108.086 84.7059 108.206 84.7059 108.327 84.7059C108.447 84.7059 108.567 84.7059 108.688 84.7059Z" fill="black"/>
<path fill-rule="evenodd" clip-rule="evenodd" d="M100.504 103.671C100.023 103.306 99.3009 103.184 98.5788 103.184C98.0974 103.184 97.616 103.306 97.1347 103.427C96.6533 103.671 96.2923 103.914 96.0516 104.278C95.6905 104.643 95.4498 105.129 95.3295 105.737C95.0888 106.345 95.0888 106.953 95.0888 107.682C95.0888 108.412 95.2092 109.02 95.3295 109.627C95.5702 110.235 95.8109 110.722 96.0516 111.086C96.4126 111.451 96.7736 111.694 97.1347 111.937C97.616 112.059 97.9771 112.18 98.4584 112.18C99.0602 112.18 99.6619 112.059 100.264 111.694C100.865 111.329 101.226 110.843 101.587 110.235C101.948 109.506 102.069 108.655 102.069 107.682C102.069 106.71 101.948 105.98 101.587 105.251C101.467 104.4 100.986 103.914 100.504 103.671Z" fill="black"/>
<path fill-rule="evenodd" clip-rule="evenodd" d="M116.751 69.2667C116.51 69.0235 116.39 68.7804 116.269 68.6588C115.427 67.6863 114.224 66.7137 113.02 65.7412C112.779 65.498 112.539 65.2549 112.178 65.1333C110.613 63.7961 108.928 62.4588 106.521 61.6078C102.911 59.6627 95.4499 58.3255 94.8482 58.3255C94.9685 57.4745 94.7278 56.502 94.4871 55.5294C94.1261 54.0706 93.6447 52.7333 92.9226 51.5176C93.2837 50.7882 93.6447 50.0588 93.7651 49.0863C94.0057 47.8706 93.8854 46.898 93.5244 46.1686C92.9226 44.7098 91.4785 43.9804 90.0344 44.4667C89.9141 44.4667 89.7937 44.5882 89.6734 44.5882C89.192 43.7372 88.7106 42.8863 87.8682 42.0353C85.702 39.6039 82.9341 38.6314 80.6476 38.0235H80.5272C80.7679 37.2941 81.6103 36.3216 82.3324 35.2274V35.1059C83.1748 33.6471 81.7307 32.0667 74.7507 32.1882C69.2149 32.3098 68.0115 33.5255 68.0115 34.9843C68.0115 35.8353 68.4929 36.6863 68.8539 37.4157C68.9742 37.6588 69.0946 37.902 69.3353 38.2667C69.3353 38.3882 69.4556 38.3882 69.4556 38.5098C69.576 38.5098 69.576 38.5098 69.576 38.5098C66.2063 39.7255 63.7994 41.6706 62.8367 44.3451C61.6333 44.2235 60.9112 44.8314 60.5502 45.1961C59.9484 45.9255 59.3467 47.1412 59.8281 49.3294C59.9484 50.1804 60.3095 50.9098 60.6705 51.5176C59.3467 53.4627 58.8654 55.7725 58.6247 57.5961L55.6161 57.8392L49.5989 58.5686C49.5989 58.5686 49.5989 58.5686 49.4785 58.5686H49.3582C49.2378 58.5686 49.2378 58.5686 49.1175 58.6902C49.1175 58.6902 49.1175 58.6902 48.9972 58.6902L48.1548 58.9333H48.0344L47.192 59.1765C47.192 59.1765 47.192 59.1765 47.0717 59.1765L46.2293 59.5412H46.1089L45.3868 59.9059H45.2665L44.5444 60.2706H44.4241L43.702 60.7569C43.702 60.7569 43.5817 60.7569 43.5817 60.8784L43.2207 61.4863C43.2207 61.4863 43.2207 61.4863 43.1003 61.4863L42.4986 61.9725C42.4986 61.9725 42.4986 61.9725 42.3783 62.0941L42.0172 62.5804L41.8969 62.702L41.4155 63.1882C41.4155 63.1882 41.4155 63.3098 41.2952 63.3098L40.9341 63.7961C40.9341 63.7961 40.9341 63.9176 40.8138 63.9176L40.4527 64.4039L40.0917 64.8902V65.0118L39.851 65.498C39.851 65.498 39.851 65.498 39.851 65.6196L39.6103 66.1059C39.6103 66.1059 39.6103 66.1059 39.6103 66.2274L39.3697 66.7137V66.8353L39.129 67.4431L38.7679 68.5373C38.7679 68.5373 38.7679 68.5372 38.7679 68.6588L38.4069 69.6314L38.2866 70.847C38.2866 70.847 38.2866 70.8471 38.2866 70.9686V71.3333V72.4274V72.549V72.7922V72.9137V73.1569C38.2866 73.1569 38.2866 73.1569 38.2866 73.2784V73.5216V73.6431V73.8863C38.2866 73.8863 38.2866 73.8863 38.2866 74.0078L38.4069 74.7372L38.8883 76.0745V76.1961L39.0086 76.4392V76.5608L39.129 76.8039C39.129 76.8039 39.129 76.9255 39.2493 76.9255L39.49 77.4118C39.49 77.4118 39.49 77.5333 39.6103 77.5333L39.9714 78.0196C39.9714 78.0196 39.9714 78.1412 40.0917 78.1412L40.4527 78.6274L40.5731 78.749L40.9341 79.1137L41.0545 79.2353L41.4155 79.4784C41.5358 79.4784 41.5358 79.6 41.6562 79.6L42.0172 79.8431C42.0172 79.8431 42.1376 79.8431 42.1376 79.9647L42.4986 80.0863C42.6189 80.0863 42.6189 80.2078 42.7393 80.2078L43.2207 80.3294C43.341 80.3294 43.341 80.3294 43.4613 80.3294L43.8224 80.451C43.9427 80.451 43.9427 80.451 43.9427 80.451H44.3038C44.3038 80.451 44.3038 80.451 44.4241 80.451H44.6648H44.7851H44.9055L46.4699 80.8157L48.3954 81.0588C48.3954 81.0588 48.3954 81.0588 48.5158 81.0588H49.2378H49.3582H50.0803H50.2006L52.1261 80.9373L56.2178 80.451C56.2178 80.451 56.2178 80.451 56.3381 80.451L57.6619 80.2078L61.5129 79.2353H61.6333L71.9828 75.3451L74.3897 74.8588C74.51 74.8588 74.7507 74.9804 74.9914 74.8588C74.9914 74.8588 79.3238 74.8588 85.9427 78.0196C90.5158 80.2078 97.6161 81.7882 103.874 81.6667C105.92 81.6667 107.966 81.4235 109.771 80.9373C110.373 80.8157 110.974 80.5725 111.456 80.451C111.576 80.3294 111.817 80.3294 111.937 80.2078C112.057 80.0863 112.298 80.0863 112.418 79.9647C112.539 79.8431 112.779 79.8431 112.9 79.7216C113.261 79.6 113.501 79.3569 113.862 79.1137C113.983 78.9922 114.103 78.9922 114.224 78.8706L114.344 78.749C114.464 78.6274 114.464 78.6274 114.585 78.6274C114.825 78.5059 115.186 78.3843 115.307 78.2627C115.788 78.1412 116.149 77.7765 116.51 77.4118C118.797 74.7373 117.593 70.6039 116.751 69.2667ZM61.5129 46.898C61.8739 46.5333 62.4757 46.5333 62.8367 46.898C63.3181 47.2627 63.5588 47.6274 64.0401 48.1137C64.4012 46.1686 65.3639 43.251 68.1318 41.7922C69.576 41.0627 70.7794 41.3059 72.2235 42.0353C73.6676 42.7647 74.2694 44.2235 76.0745 44.3451C78 44.4667 78.2407 43.1294 79.5645 42.1569C81.3696 40.698 84.1376 41.1843 85.8224 42.4C87.0258 43.251 88.2292 44.9529 88.9513 48.1137C89.192 47.6274 89.6734 47.1412 90.0344 46.7765C90.5158 46.4118 90.9972 46.2902 91.3582 46.6549C91.7192 46.898 91.9599 47.6274 91.7192 48.9647C91.5989 49.9373 91.2378 50.302 90.6361 51.1529C90.5158 51.3961 90.3954 51.5176 90.2751 51.7608C90.9971 53.4627 91.9599 56.0157 91.9599 58.9333C91.9599 59.1765 92.0802 59.5412 91.8396 59.6627C90.9972 59.9059 89.4327 58.4471 83.6562 58.8118H83.5358C84.7393 58.0823 85.8224 57.2314 86.7851 56.3804C87.0258 56.6235 87.3868 56.7451 87.7479 56.8667C87.7479 56.8667 87.8682 56.8667 87.8682 56.7451L87.9886 56.502C87.9886 56.3804 87.9886 56.3804 87.9886 56.2588C87.8682 56.0157 87.6275 55.8941 87.5072 55.7725C87.3868 55.651 87.2665 55.5294 87.1461 55.4078C87.0258 55.2863 86.9055 55.1647 86.9055 55.0431C86.7851 54.8 86.5444 54.6784 86.4241 54.4353H86.3037C86.3037 54.4353 86.3037 54.4353 86.1834 54.4353L85.9427 54.5569C85.9427 54.5569 85.8224 54.6784 85.8224 54.8C85.9427 55.1647 86.0631 55.4078 86.3037 55.7725C85.702 56.2588 85.1003 56.7451 84.3782 57.2314C83.6562 57.7176 82.8138 58.2039 81.9714 58.5686C81.6103 58.6902 81.2493 58.9333 80.7679 59.0549C79.3238 59.1765 76.3152 59.298 73.1863 59.4196C73.0659 59.4196 72.9456 59.298 72.8252 59.298C72.7049 59.298 72.5845 59.1765 72.4642 59.1765C72.3439 59.1765 72.2235 59.0549 72.1032 59.0549C71.7421 58.9333 71.5015 58.8118 71.1404 58.6902C70.298 58.3255 69.4556 57.8392 68.7335 57.3529C68.0115 56.8667 67.5301 56.3804 66.9284 55.8941C67.1691 55.651 67.4098 55.2863 67.5301 54.9216C67.5301 54.8 67.5301 54.8 67.4098 54.6784L67.1691 54.5569C67.1691 54.5569 67.1691 54.5569 67.0487 54.5569H66.9284C66.6877 54.6784 66.5674 54.9216 66.3267 55.0431C66.2063 55.1647 66.086 55.2863 65.9656 55.4078C65.8453 55.5294 65.725 55.651 65.6046 55.651C65.3639 55.7725 65.2436 56.0157 65.0029 56.1372C65.0029 56.1372 64.8825 56.2588 65.0029 56.3804L65.1232 56.6235L65.2436 56.7451C65.6046 56.6235 65.8453 56.502 66.086 56.3804C67.2894 57.7176 68.7335 58.6902 70.4184 59.5412C66.447 59.7843 62.4757 59.9059 61.2722 60.0274C60.9112 60.0274 60.9112 58.9333 60.9112 58.8118C60.9112 57.5961 60.5502 54.4353 62.3553 51.6392C62.1146 51.2745 61.2722 50.1804 61.0315 49.2078C60.9112 47.8706 61.1519 47.2627 61.5129 46.898ZM114.344 75.7098C114.344 75.7098 113.742 75.9529 113.381 76.1961C113.14 76.3176 112.9 76.4392 112.659 76.5608C112.539 76.6823 112.298 76.8039 112.057 76.9255C107.123 80.451 94.3668 78.8706 86.9055 75.4667C79.4441 72.0627 74.0287 72.0627 74.0287 72.0627C74.0287 72.0627 80.0459 67.9294 82.5731 66.8353C84.4986 65.9843 86.7851 64.5255 90.1547 63.6745C66.5674 68.1725 55.9771 83.0039 46.1089 76.1961C43.8224 78.2627 41.2952 75.4667 41.2952 75.4667C41.2952 75.4667 40.8138 75.102 40.6934 74.8588C40.3324 74.1294 39.851 64.2823 49.5989 61.9725C49.7192 61.9725 55.1347 61 60.9112 60.8784C62.235 60.8784 63.5588 60.7569 64.8825 60.6353C67.2894 60.3922 69.6963 60.2706 72.1032 60.149L76.9169 59.9059H77.3983L82.3324 59.6627C82.6934 59.6627 83.1748 59.5412 83.5358 59.5412C85.8224 59.4196 87.5072 59.5412 90.6361 60.149C92.9227 60.6353 95.3295 61.6078 97.1347 62.8235C100.023 62.5804 102.911 62.702 105.438 63.5529C107.845 64.4039 109.53 66.5922 111.456 68.1725C112.539 69.0235 113.622 69.9961 114.224 70.6039C114.344 70.7255 114.464 70.8471 114.585 70.9686C114.946 71.4549 115.668 74.1294 114.344 75.7098Z" fill="black"/>
<path fill-rule="evenodd" clip-rule="evenodd" d="M67.4097 50.1804C68.8539 49.8157 71.8625 49.8157 75.1117 53.949C74.9914 53.5843 73.3066 48.2353 67.2894 48.8431C66.9284 48.8431 66.6877 49.0863 66.6877 49.451V49.5726C66.6877 50.0588 67.0487 50.302 67.4097 50.1804Z" fill="black"/>
<path fill-rule="evenodd" clip-rule="evenodd" d="M85.9427 50.0588C86.3037 50.1804 86.6647 49.8157 86.6647 49.451V49.3294C86.6647 49.0863 86.4241 48.7216 86.063 48.7216C79.9255 48.2353 78.361 53.949 78.361 53.949C81.49 49.6941 84.4986 49.6941 85.9427 50.0588Z" fill="black"/>
<path fill-rule="evenodd" clip-rule="evenodd" d="M97.2551 62.702C97.1347 62.702 97.1347 62.5804 97.0144 62.5804C95.3295 62.702 93.6447 62.9451 92.0803 63.3098C91.3582 63.4314 90.6361 63.5529 90.0344 63.7961C91.2379 63.5529 92.4413 63.4314 93.6447 63.1882C95.5702 62.8235 97.2551 62.702 97.2551 62.702Z" fill="black"/>
</g>
<defs>
<clipPath id="clip0">
<rect width="84" height="93" fill="white" transform="translate(36 30)"/>
</clipPath>
</defs>
</svg>
