<svg width="100" height="100" viewBox="0 0 100 100" fill="none" xmlns="http://www.w3.org/2000/svg">
<path d="M36.3671 52.679C34.0918 52.679 32.2478 50.8349 32.2478 48.5597C34.5322 48.5597 36.3671 50.4037 36.3671 52.679Z" fill="#F8B033"/>
<path d="M36.3669 52.679C38.6422 52.679 40.4862 50.8349 40.4862 48.5597C38.211 48.5597 36.3669 50.4037 36.3669 52.679Z" fill="#F8B033"/>
<path d="M32.2568 48.5688C32.2568 46.2936 34.1009 44.4496 36.3761 44.4496C36.3669 46.7248 34.5229 48.5688 32.2568 48.5688Z" fill="#F8B033"/>
<path d="M40.4862 48.5688C40.4862 46.2936 38.6422 44.4496 36.3669 44.4496C36.3669 46.7248 38.211 48.5688 40.4862 48.5688Z" fill="#F8B033"/>
<path d="M40.4863 48.5505C40.5139 48.5505 40.5414 48.5505 40.5689 48.5505C40.5414 48.5597 40.5139 48.5597 40.4863 48.5505Z" fill="#F8B033"/>
<path d="M40.4036 48.5505C40.4311 48.5505 40.4586 48.5505 40.4861 48.5505C40.4586 48.5597 40.4311 48.5597 40.4036 48.5505Z" fill="#F8B033"/>
<path d="M44.6056 52.6698C42.3304 52.6698 40.4863 50.8258 40.4863 48.5505C42.7616 48.5597 44.6056 50.3946 44.6056 52.6698Z" fill="#F8B033"/>
<path d="M44.6055 52.6698C46.8807 52.6698 48.7247 50.8258 48.7247 48.5505C46.4495 48.5597 44.6055 50.3946 44.6055 52.6698Z" fill="#F8B033"/>
<path d="M40.4863 48.5597C40.4863 46.2845 42.3304 44.4404 44.6056 44.4404C44.6056 46.7157 42.7616 48.5597 40.4863 48.5597Z" fill="#F8B033"/>
<path d="M48.7247 48.5597C48.7247 46.2845 46.8807 44.4404 44.6055 44.4404C44.6055 46.7157 46.4495 48.5597 48.7247 48.5597Z" fill="#F8B033"/>
<path d="M36.3671 44.4496C34.0918 44.4496 32.2478 42.6056 32.2478 40.3303C34.5322 40.3303 36.3671 42.1744 36.3671 44.4496Z" fill="#F8B033"/>
<path d="M36.3669 44.4496C38.6422 44.4496 40.4862 42.6056 40.4862 40.3303C38.211 40.3303 36.3669 42.1744 36.3669 44.4496Z" fill="#F8B033"/>
<path d="M40.4862 40.3395C40.4862 38.0643 38.6422 36.2202 36.3669 36.2202C36.3669 38.4954 38.211 40.3395 40.4862 40.3395Z" fill="#F8B033"/>
<path d="M44.6056 44.4404C42.3304 44.4404 40.4863 42.5964 40.4863 40.3212C42.7616 40.3303 44.6056 42.1744 44.6056 44.4404Z" fill="#F8B033"/>
<path d="M44.6055 44.4404C46.8807 44.4404 48.7247 42.5964 48.7247 40.3212C46.4495 40.3303 44.6055 42.1744 44.6055 44.4404Z" fill="#F8B033"/>
<path d="M40.4863 40.3303C40.4863 38.0551 42.3304 36.2111 44.6056 36.2111C44.6056 38.4863 42.7616 40.3303 40.4863 40.3303Z" fill="#F8B033"/>
<path d="M36.3669 60.9083C38.6422 60.9083 40.4862 59.0643 40.4862 56.7891C38.211 56.7982 36.3669 58.6331 36.3669 60.9083Z" fill="#F8B033"/>
<path d="M32.2568 56.7982C32.2568 54.523 34.1009 52.679 36.3761 52.679C36.3669 54.9542 34.5229 56.7982 32.2568 56.7982Z" fill="#F8B033"/>
<path d="M40.4862 56.7982C40.4862 54.523 38.6422 52.679 36.3669 52.679C36.3669 54.9542 38.211 56.7982 40.4862 56.7982Z" fill="#F8B033"/>
<path d="M44.6056 60.9083C42.3304 60.9083 40.4863 59.0643 40.4863 56.7891C42.7616 56.7891 44.6056 58.6331 44.6056 60.9083Z" fill="#F8B033"/>
<path d="M40.4863 56.7982C40.4863 54.523 42.3304 52.679 44.6056 52.679C44.6056 54.9542 42.7616 56.7982 40.4863 56.7982Z" fill="#F8B033"/>
<path d="M48.7247 56.7982C48.7247 54.523 46.8807 52.679 44.6055 52.679C44.6055 54.9542 46.4495 56.7982 48.7247 56.7982Z" fill="#F8B033"/>
<path d="M11.0643 58.0009C11.0643 58.4596 11.0918 58.4596 8.88082 58.4596V50.7899L5.14687 39.9092C5.03678 39.5605 5.09183 39.5605 7.63311 39.5605L8.71568 43.2578C9.25696 44.9826 9.98173 48.1202 10.0368 48.9C10.1193 48.1202 10.8716 44.9826 11.3854 43.2578L12.3304 39.9642C12.468 39.5605 12.468 39.5605 14.7065 39.5605L11.0551 50.689V58.0009H11.0643Z" fill="#F8B033"/>
<path d="M21.1378 58.734C17.9268 58.734 17.0828 57.2753 17.0828 54.2478V45.3854C17.0828 44.9542 17.0828 44.9542 19.3488 44.9542V54.4313C19.3488 56.1836 19.6974 56.8074 21.1562 56.8074C21.6424 56.8074 22.3947 56.6973 22.9635 56.3212V45.3854C22.9635 44.9542 22.991 44.9542 25.147 44.9542V57.7616C24.1378 58.3304 22.5965 58.734 21.1378 58.734Z" fill="#F8B033"/>
<path d="M63.3672 39.5505V41.1469C63.3672 41.4955 63.2295 41.6056 62.9084 41.6056H59.5873V58.0276C59.5873 58.4588 59.5598 58.4588 57.4039 58.4588V41.6056H53.7341V39.9817C53.7341 39.6882 53.8717 39.5505 54.1928 39.5505H63.3672Z" fill="#F8B033"/>
<path d="M63.6055 45.4129C64.0642 45.1193 65.6606 44.679 67.7156 44.679C70.0367 44.679 71.0642 45.5413 71.0642 47.9725V49.4037C71.0642 52.5138 71.0367 55.7523 70.8991 57.8074C70.1652 58.2386 68.8991 58.7248 67.1468 58.7248C65.1743 58.7523 63.2844 58.3212 63.2844 54.6147C63.2844 50.8624 65.0642 50.1835 66.8808 50.1835C67.4771 50.1835 68.3119 50.2661 68.8532 50.5322V48.3946C68.8532 47.1285 68.2569 46.7982 67.1743 46.7982C65.8257 46.7982 64.3945 47.0643 63.6055 47.3946C63.367 46.9634 63.3119 46.4771 63.3119 46.156C63.3119 45.8716 63.3853 45.5505 63.6055 45.4129ZM67.578 51.8441C66.4954 51.8441 65.578 52.2202 65.578 54.5689C65.578 56.5413 66.2844 56.89 67.3303 56.89C67.9266 56.89 68.523 56.6698 68.7615 56.4312C68.8441 55.5413 68.8441 53.5413 68.8441 52.0826C68.4954 51.9267 67.9542 51.8441 67.578 51.8441Z" fill="#F8B033"/>
<path d="M78.624 44.6881C81.4588 44.6881 82.4313 45.6881 82.4313 48.312V58.0092C82.4313 58.4679 82.3763 58.4679 80.1652 58.4679V48.9542C80.1652 47.2477 79.8992 46.6055 78.5689 46.6055C77.9726 46.6055 77.1377 46.7707 76.5414 47.0918V58.0092C76.5414 58.4679 76.4864 58.4679 74.3579 58.4679V45.6055C75.413 45.1468 77.1928 44.6881 78.624 44.6881Z" fill="#F8B033"/>
<path d="M94.1285 46.7891C93.8625 46.7891 93.5047 46.734 93.156 46.6515C93.8074 47.2753 94.1836 48.2478 94.1836 49.5689C94.1836 52.4313 92.945 54.2937 89.8074 54.2937C89.3487 54.2937 88.9726 54.2661 88.5964 54.1836C88.2478 54.5322 87.89 55.0184 87.89 55.3762C87.89 55.8625 89.2661 55.9726 91.0735 56.2111C93.2111 56.5322 94.6423 57.2386 94.6423 59.367C94.6423 61.6881 93.0735 63.7707 89.4863 63.7707C85.8441 63.7707 85.1377 62.2294 85.1377 60.8258C85.1377 59.5322 86.0276 58.3395 87.2203 57.5597C86.1652 57.2661 85.523 56.8074 85.5414 56.101C85.5689 55.3487 86.2203 54.4771 87.2661 53.6423C86.0001 52.8349 85.5872 51.3487 85.5872 49.6148C85.5872 46.0184 87.4221 44.6698 90.0735 44.6698C90.4221 44.6698 90.9359 44.7248 91.3946 44.89H94.6606C94.7707 45.0826 94.8808 45.4313 94.8808 45.9175C94.8808 46.523 94.5872 46.7891 94.1285 46.7891ZM89.3487 57.945C89.1836 57.9175 89.0276 57.9175 88.89 57.89C88.0826 58.4863 87.4037 59.4313 87.4037 60.3212C87.4037 61.156 87.8349 61.7524 89.6698 61.7524C91.5872 61.7524 92.4221 60.6148 92.4221 59.6698C92.4313 58.4588 91.7248 58.1102 89.3487 57.945ZM91.9634 49.0643C91.9634 47.0918 91.2845 46.312 89.9909 46.312C88.8258 46.312 87.9083 47.2019 87.9083 49.5781C87.9083 51.4955 88.2294 52.6331 89.9083 52.6331C91.3487 52.6239 91.9634 51.4129 91.9634 49.0643Z" fill="#F8B033"/>
</svg>
